<svg width="400" height="200" viewbox = "0 0 400 200"  xmlns="http://www.w3.org/2000/svg">
<!--<json>{
  "glyph": "0336,0336,0336,0336,0330,0332,0332,0332,0331,0332,0332,0331,0331,0331,0332,0332,0331,0332,0331,0333,0331,0331,0331,0332,0214,0214,0214,0214,0214,0214,0214,0214,0214,0337,0337,0337,0337,0333,0333,0330,0330,0333,01101,01102,01103,01104,",
  "x0": 149.54545454545456,
  "y0": 310,
  "unit": 80.52550000000005,
  "width": 400,
  "height": 200,
  "style": {
    "color0": "black",
    "fill0": "black",
    "line0": 1,
    "color1": "black",
    "fill1": "black",
    "line1": 5,
    "color2": "red",
    "fill2": "red",
    "line2": 1,
    "color3": "#FF7900",
    "fill3": "#FF7900",
    "line3": 1,
    "color4": "yellow",
    "fill4": "yellow",
    "line4": 1,
    "color5": "green",
    "fill5": "green",
    "line5": 1,
    "color6": "blue",
    "fill6": "blue",
    "line6": 1,
    "color7": "purple",
    "fill7": "purple",
    "line7": 1
  },
  "shapes": [
    "0220:0341,",
    "01220:0333,0200,0336,0330,0332,0336,0332,060,062,062,060,0365,0333,0333,0331,0331,0333,0337,0337,",
    "01221:0333,0200,0336,0330,0332,0336,0332,060,062,062,061,0365,0333,0333,0331,0331,0333,0337,0337,",
    "01222:0333,0200,0336,0330,0332,0336,0332,060,062,062,062,0365,0333,0333,0331,0331,0333,0337,0337,",
    "01223:0333,0200,0336,0330,0332,0336,0332,060,062,062,063,0365,0333,0333,0331,0331,0333,0337,0337,",
    "01224:0333,0200,0336,0330,0332,0336,0332,060,062,062,064,0365,0333,0333,0331,0331,0333,0337,0337,",
    "01225:0333,0200,0336,0330,0332,0336,0332,060,062,062,065,0365,0333,0333,0331,0331,0333,0337,0337,",
    "01226:0333,0200,0336,0330,0332,0336,0332,060,062,062,066,0365,0333,0333,0331,0331,0333,0337,0337,",
    "01227:0333,0200,0336,0330,0332,0336,0332,060,062,062,067,0365,0333,0333,0331,0331,0333,0337,0337,",
    "01230:0333,0200,0336,0330,0332,0336,0332,060,062,063,060,0365,0333,0333,0331,0331,0333,0337,0337,",
    "01231:0333,0200,0336,0330,0332,0336,0332,060,062,063,061,0365,0333,0333,0331,0331,0333,0337,0337,",
    "01232:0333,0200,0336,0330,0332,0336,0332,060,062,063,062,0365,0333,0333,0331,0331,0333,0337,0337,",
    "01233:0333,0200,0336,0330,0332,0336,0332,060,062,063,063,0365,0333,0333,0331,0331,0333,0337,0337,",
    "01234:0333,0200,0336,0330,0332,0336,0332,060,062,063,064,0365,0333,0333,0331,0331,0333,0337,0337,",
    "01235:0333,0200,0336,0330,0332,0336,0332,060,062,063,065,0365,0333,0333,0331,0331,0333,0337,0337,",
    "01236:0333,0200,0336,0330,0332,0336,0332,060,062,063,066,0365,0333,0333,0331,0331,0333,0337,0337,",
    "01237:0333,0200,0336,0330,0332,0336,0332,060,062,063,067,0365,0333,0333,0331,0331,0333,0337,0337,"
  ]
}</json>-->	<path d = "M336 60 L336 67 L337 71 L338 74 L340 77 L343 79 L346 81 L349 83 L353 85 L356 87 L359 89 L361 92 L364 94 L367 96 L370 98 L373 100 L375 103 L378 105 L380 108 L383 111 L386 113 L388 116 L389 120 L389 123 L388 127 L387 130 L386 133 L384 137 L382 140 L380 143 L379 146 L379 143 L379 139 L379 135 L377 132 L374 130 L372 127 L369 125 L366 122 L364 120 L361 117 L358 115 L355 113 L353 110 L350 108 L347 106 L344 104 L341 101 L338 99 L336 97 L333 94 L331 91 L329 88 L328 85 L327 81 L327 77 L329 74 L330 71 L331 67 L333 64 L335 61 Z" stroke = "#000000" stroke-width = "1" fill = "#000000" />	<path d = "M370 98 L374 92 L378 86 L371 83 L365 79 L365 77 L368 70 L372 64 L374 61 L376 64 L379 67 L382 68 L386 69 L389 70 L391 69 L386 83 L382 89 L376 94 L370 98 Z" stroke = "#000000" stroke-width = "1" fill = "#000000" />	<path d = "M337 100 L336 104 L336 108 L336 111 L337 115 L339 118 L341 121 L344 123 L347 125 L347 127 L343 133 L340 139 L338 143 L335 143 L331 144 L328 145 L324 146 L321 148 L323 145 L324 141 L326 138 L328 135 L326 132 L325 128 L324 125 L323 121 L324 118 L325 114 L326 111 L328 108 L330 105 L333 102 L336 100 Z" stroke = "#000000" stroke-width = "1" fill = "#000000" />	<path d = "M246 49 L250 53 L255 56 L260 58 L265 59 L271 59 L277 59 L282 59 L288 60 L291 64 L293 70 L294 75 L294 81 L294 86 L294 92 L294 97 L294 103 L294 109 L294 114 L294 120 L298 124 L300 125 L301 125 L295 135 L289 144 L283 143 L278 142 L272 142 L267 142 L261 142 L256 142 L250 142 L245 142 L239 142 L234 143 L228 143 L222 144 L221 144 L227 135 L233 126 L234 125 L256 124 L278 123 L281 123 L282 123 L282 117 L282 112 L282 106 L281 100 L281 95 L281 89 L279 84 L275 80 L270 79 L264 79 L259 79 L253 78 L248 77 L243 75 L238 72 L234 69 L233 68 L236 63 L239 59 L242 54 L245 49 L245 49 Z" stroke = "#000000" stroke-width = "1" fill = "#000000" />	<path d = "M155 69 L160 62 L165 55 L167 52 L168 51 L168 55 L170 59 L173 62 L176 64 L178 65 L179 65 L179 82 L179 99 L180 116 L180 125 L181 127 L181 129 L173 144 L172 145 L172 146 L170 129 L170 127 L170 125 L161 127 L154 130 L146 134 L142 136 L139 138 L136 141 L133 145 L134 141 L135 137 L137 133 L139 129 L141 126 L144 122 L147 120 L151 118 L155 116 L159 115 L163 114 L167 112 L169 108 L170 104 L170 100 L170 96 L170 92 L170 87 L167 84 L163 83 L159 81 L156 78 L155 74 L155 69 Z" stroke = "#000000" stroke-width = "1" fill = "#000000" />	<path d = "M25 47 L27 48 L29 50 L31 51 L34 52 L36 53 L38 54 L41 54 L43 55 L46 55 L48 56 L50 56 L53 56 L55 56 L58 56 L60 56 L63 56 L65 56 L68 56 L70 56 L73 56 L75 56 L78 56 L80 56 L82 57 L85 58 L87 59 L89 61 L90 63 L89 66 L88 68 L87 70 L86 72 L84 74 L83 76 L81 78 L79 80 L78 82 L76 84 L76 86 L76 88 L76 91 L76 93 L76 96 L76 98 L76 101 L77 103 L77 106 L77 108 L77 111 L77 113 L77 116 L77 118 L78 121 L78 123 L77 125 L75 127 L74 129 L72 131 L71 133 L70 135 L68 137 L67 139 L65 141 L64 143 L62 145 L61 148 L60 145 L60 143 L60 133 L59 123 L59 113 L59 103 L60 93 L60 88 L60 83 L62 79 L63 77 L58 76 L54 76 L49 76 L44 76 L39 75 L34 75 L29 75 L24 74 L19 73 L15 70 L11 67 L14 63 L17 59 L20 55 L23 51 L26 47 Z" stroke = "#000000" stroke-width = "1" fill = "#000000" /></svg>