<svg width="400" height="400" viewbox = "0 0 400 400"  xmlns="http://www.w3.org/2000/svg">
<!--<json>{
  "glyph": "0330,0330,0332,0332,0332,0335,0335,0220,0330,0330,0330,0330,0330,0335,0335,0220,0333,0333,0333,0333,0333,0333,0221,0330,0330,0330,0330,0330,0335,0335,0221,0335,0335,0331,0331,0331,0332,0332,0332,0330,0336,0331,0337,0341,0211,0211,0211,0341,",
  "x0": 192.23844294495547,
  "y0": 183.3962929213032,
  "unit": 37.56574004507889,
  "width": 400,
  "height": 400,
  "style": {
    "color0": "black",
    "fill0": "black",
    "line0": 2,
    "color1": "black",
    "fill1": "black",
    "line1": 5,
    "color2": "red",
    "fill2": "red",
    "line2": 1,
    "color3": "#FF7900",
    "fill3": "#FF7900",
    "line3": 1,
    "color4": "yellow",
    "fill4": "yellow",
    "line4": 1,
    "color5": "green",
    "fill5": "green",
    "line5": 1,
    "color6": "blue",
    "fill6": "blue",
    "line6": 1,
    "color7": "purple",
    "fill7": "purple",
    "line7": 1
  },
  "shapes": [
    "0220:0306,0335,0330,0334,0334,0350,0334,0312,0337,0362,0203,0334,0334,0334,0334,0203,0334,0334,0334,0334,0203,0354,0334,0334,0334,0334,0306,0335,0313,0336,0336,0330,0334,0337,0362,0203,0203,0336,0203,0334,0334,0203,0203,0203,0203,0203,0203,0203,0334,0334,0203,0203,0203,0203,0203,0203,0203,0334,0334,0203,0203,0354,0331,0335,0335,0331,0334,0334,0337,0337,0335,0335,0350,0335,0312,0336,0331,0334,0334,0304,0313,",
    "0221:0306,0335,0330,0334,0334,0312,0337,0350,0334,0362,0203,0334,0334,0334,0334,0313,0336,0336,0203,0203,0334,0334,0203,0203,0334,0334,0203,0203,0354,0331,0331,0331,0334,0334,0334,0334,0362,0203,0334,0334,0334,0334,0203,0334,0334,0334,0334,0203,0354,0306,0330,0330,0330,0330,0334,0334,0362,0203,0203,0203,0203,0203,0203,0334,0334,0203,0203,0203,0335,0335,0203,0312,0313,0336,0203,0304,0334,0312,0337,0203,0334,0336,0313,0203,0203,0203,0203,0337,0306,0335,0203,0203,0203,0334,0334,0203,0203,0203,0335,0203,0203,0304,0336,0334,0312,0337,0203,0334,0312,0336,0313,0203,0203,0203,0306,0335,0335,0313,0337,0203,0203,0203,0334,0334,0203,0354,0332,0335,0334,0337,0337,0335,0335,0350,0335,0312,0336,0331,0334,0334,0304,0313,",
    "01220:0333,0200,0336,0330,0332,0336,0220,0337,0331,0333,0337,",
    "01221:0333,0200,0336,0330,0332,0336,0221,0337,0331,0333,0337,",
    "01222:0333,0200,0336,0330,0332,0336,0332,060,062,062,062,0365,0333,0333,0331,0331,0333,0337,0337,",
    "01223:0333,0200,0336,0330,0332,0336,0332,060,062,062,063,0365,0333,0333,0331,0331,0333,0337,0337,",
    "01224:0333,0200,0336,0330,0332,0336,0332,060,062,062,064,0365,0333,0333,0331,0331,0333,0337,0337,",
    "01225:0333,0200,0336,0330,0332,0336,0332,060,062,062,065,0365,0333,0333,0331,0331,0333,0337,0337,",
    "01226:0333,0200,0336,0330,0332,0336,0332,060,062,062,066,0365,0333,0333,0331,0331,0333,0337,0337,",
    "01227:0333,0200,0336,0330,0332,0336,0332,060,062,062,067,0365,0333,0333,0331,0331,0333,0337,0337,",
    "01230:0333,0200,0336,0330,0332,0336,0332,060,062,063,060,0365,0333,0333,0331,0331,0333,0337,0337,",
    "01231:0333,0200,0336,0330,0332,0336,0332,060,062,063,061,0365,0333,0333,0331,0331,0333,0337,0337,",
    "01232:0333,0200,0336,0330,0332,0336,0332,060,062,063,062,0365,0333,0333,0331,0331,0333,0337,0337,",
    "01233:0333,0200,0336,0330,0332,0336,0332,060,062,063,063,0365,0333,0333,0331,0331,0333,0337,0337,",
    "01234:0333,0200,0336,0330,0332,0336,0332,060,062,063,064,0365,0333,0333,0331,0331,0333,0337,0337,",
    "01235:0333,0200,0336,0330,0332,0336,0332,060,062,063,065,0365,0333,0333,0331,0331,0333,0337,0337,",
    "01236:0333,0200,0336,0330,0332,0336,0332,060,062,063,066,0365,0333,0333,0331,0331,0333,0337,0337,",
    "01237:0333,0200,0336,0330,0332,0336,0332,060,062,063,067,0365,0333,0333,0331,0331,0333,0337,0337,"
  ]
}</json>-->	<path d = "M47 127 L112 127 L80 71 L47 127 Z" stroke = "#000000" stroke-width = "2" fill = "none" />	<path d = "M55 141 L88 141 L120 141 L136 141 L128 127 L120 113 L112 99 L104 85 L96 71 L88 57 L80 43 L71 57 L63 71 L55 85 L47 99 L39 113 L31 127 L23 141 L39 141 L55 141 Z" stroke = "#000000" stroke-width = "2" fill = "none" />	<path d = "M112 277 L47 277 L80 334 L112 277 Z" stroke = "#000000" stroke-width = "2" fill = "none" />	<path d = "M104 263 L71 263 L39 263 L23 263 L31 277 L39 291 L47 305 L55 320 L63 334 L71 348 L80 362 L88 348 L96 334 L104 320 L112 305 L120 291 L128 277 L136 263 L120 263 L104 263 Z" stroke = "#000000" stroke-width = "2" fill = "none" />	<path d = "M337 277 L272 277 L281 291 L289 305 L305 305 L321 305 L329 291 L337 277 Z" stroke = "#000000" stroke-width = "2" fill = "none" />	<path d = "M313 320 L297 320 L305 334 L313 320 Z" stroke = "#000000" stroke-width = "2" fill = "none" />	<path d = "M346 263 L329 263 L313 263 L297 263 L281 263 L264 263 L248 263 L256 277 L264 291 L272 305 L256 305 L248 305 L248 320 L256 320 L264 320 L272 320 L281 320 L289 334 L297 348 L305 362 L313 348 L321 334 L329 320 L346 320 L362 320 L362 305 L354 305 L346 305 L337 305 L346 291 L354 277 L362 263 L346 263 Z" stroke = "#000000" stroke-width = "2" fill = "none" />	<path d = "M272 127 L337 127 L329 113 L321 99 L305 99 L289 99 L281 113 L272 127 Z" stroke = "#000000" stroke-width = "2" fill = "none" />	<path d = "M297 85 L313 85 L305 71 L297 85 Z" stroke = "#000000" stroke-width = "2" fill = "none" />	<path d = "M264 141 L281 141 L297 141 L313 141 L329 141 L346 141 L362 141 L354 127 L346 113 L337 99 L354 99 L362 99 L362 85 L354 85 L346 85 L337 85 L329 85 L321 71 L313 57 L305 43 L297 57 L289 71 L281 85 L264 85 L248 85 L248 99 L256 99 L264 99 L272 99 L264 113 L256 127 L248 141 L264 141 Z" stroke = "#000000" stroke-width = "2" fill = "none" /><circle cx="192" cy = "202" r = "37.56574004507889" stroke = "#000000" stroke-width = "2" fill = "none" />
<circle cx="192" cy = "202" r = "56.26131465922772" stroke = "#000000" stroke-width = "2" fill = "none" />
</svg>