<svg width="400" height="400" viewbox = "0 0 400 400"  xmlns="http://www.w3.org/2000/svg">
<!--<json>{
  "glyph": "0331,0331,0332,0332,0332,0332,0332,01313,01200,01336,01330,01350,01334,01310,01337,01304,01313,0331,0332,0332,0332,0332,0332,0332,0332,0332,0332,0332,0336,0331,0337,01200,01336,01330,01350,01334,01310,01337,01313,01304,01200,0332,0332,0332,0332,0332,0331,0332,0332,0332,0332,0332,0336,0330,0333,0336,0341,0337,0337,0330,0330,0330,0330,0333,0333,0333,0333,0336,0333,0330,0337,0330,0330,0331,0336,0330,0211,0211,0211,0211,0211,0211,0337,0321,0331,0333,0337,0200,0336,0330,0350,0310,0334,0337,0313,0304,0200,0336,0330,0350,0334,0310,0337,0313,0304,0200,",
  "x0": 200,
  "y0": 183.45,
  "unit": 37.56574004507888,
  "width": 400,
  "height": 400,
  "style": {
    "color0": "black",
    "fill0": "black",
    "line0": 1,
    "color1": "black",
    "fill1": "black",
    "line1": 5,
    "color2": "red",
    "fill2": "red",
    "line2": 1,
    "color3": "#FF7900",
    "fill3": "#FF7900",
    "line3": 1,
    "color4": "yellow",
    "fill4": "yellow",
    "line4": 1,
    "color5": "green",
    "fill5": "green",
    "line5": 1,
    "color6": "blue",
    "fill6": "blue",
    "line6": 1,
    "color7": "purple",
    "fill7": "purple",
    "line7": 1
  },
  "shapes": [
    "01220:0333,0200,0336,0330,0332,0336,0332,060,062,062,060,0365,0333,0333,0331,0331,0333,0337,0337,",
    "01221:0333,0200,0336,0330,0332,0336,0332,060,062,062,061,0365,0333,0333,0331,0331,0333,0337,0337,",
    "01222:0333,0200,0336,0330,0332,0336,0332,060,062,062,062,0365,0333,0333,0331,0331,0333,0337,0337,",
    "01223:0333,0200,0336,0330,0332,0336,0332,060,062,062,063,0365,0333,0333,0331,0331,0333,0337,0337,",
    "01224:0333,0200,0336,0330,0332,0336,0332,060,062,062,064,0365,0333,0333,0331,0331,0333,0337,0337,",
    "01225:0333,0200,0336,0330,0332,0336,0332,060,062,062,065,0365,0333,0333,0331,0331,0333,0337,0337,",
    "01226:0333,0200,0336,0330,0332,0336,0332,060,062,062,066,0365,0333,0333,0331,0331,0333,0337,0337,",
    "01227:0333,0200,0336,0330,0332,0336,0332,060,062,062,067,0365,0333,0333,0331,0331,0333,0337,0337,",
    "01230:0333,0200,0336,0330,0332,0336,0332,060,062,063,060,0365,0333,0333,0331,0331,0333,0337,0337,",
    "01231:0333,0200,0336,0330,0332,0336,0332,060,062,063,061,0365,0333,0333,0331,0331,0333,0337,0337,",
    "01232:0333,0200,0336,0330,0332,0336,0332,060,062,063,062,0365,0333,0333,0331,0331,0333,0337,0337,",
    "01233:0333,0200,0336,0330,0332,0336,0332,060,062,063,063,0365,0333,0333,0331,0331,0333,0337,0337,",
    "01234:0333,0200,0336,0330,0332,0336,0332,060,062,063,064,0365,0333,0333,0331,0331,0333,0337,0337,",
    "01235:0333,0200,0336,0330,0332,0336,0332,060,062,063,065,0365,0333,0333,0331,0331,0333,0337,0337,",
    "01236:0333,0200,0336,0330,0332,0336,0332,060,062,063,066,0365,0333,0333,0331,0331,0333,0337,0337,",
    "01237:0333,0200,0336,0330,0332,0336,0332,060,062,063,067,0365,0333,0333,0331,0331,0333,0337,0337,"
  ]
}</json>-->	<path d = "M50 259 L50 221 L12 221 L12 259 L50 259 Z" stroke = "#000000" stroke-width = "1" fill = "none" />	<path d = "M40 249 L40 240 L31 240 L22 240 L22 249 L31 249 L40 249 Z" stroke = "#000000" stroke-width = "1" fill = "none" />    <line x1="31" y1="249" x2="31" y2="240" style="stroke:#000000;stroke-width:1" />
	<path d = "M87 259 L87 221 L50 221 L50 259 L87 259 Z" stroke = "#000000" stroke-width = "1" fill = "none" />	<path d = "M78 249 L78 230 L59 230 L59 249 L78 249 Z" stroke = "#000000" stroke-width = "1" fill = "none" />	<path d = "M125 259 L125 221 L87 221 L87 259 L125 259 Z" stroke = "#000000" stroke-width = "1" fill = "none" />    <line x1="115" y1="240" x2="97" y2="240" style="stroke:#000000;stroke-width:1" />
	<path d = "M162 259 L162 221 L125 221 L125 259 L162 259 Z" stroke = "#000000" stroke-width = "1" fill = "none" />	<path d = "M148 249 L139 249 L139 240 L134 240 L139 235 L144 230 L148 235 L153 240 L148 240 L148 249 Z" stroke = "#000000" stroke-width = "1" fill = "none" />	<path d = "M200 259 L200 221 L162 221 L162 259 L200 259 Z" stroke = "#000000" stroke-width = "1" fill = "none" />	<path d = "M194 227 L181 240 L194 253 " stroke = "#000000" stroke-width = "1" fill = "none" />    <line x1="181" y1="240" x2="186" y2="240" style="stroke:#000000;stroke-width:1" />
    <line x1="191" y1="240" x2="195" y2="240" style="stroke:#000000;stroke-width:1" />
	<path d = "M238 259 L238 221 L200 221 L200 259 L238 259 Z" stroke = "#000000" stroke-width = "1" fill = "none" />  <path d="M212.14212264099774 233.15786268607442           A9.391435011269722 9.391435011269722 0 0 1 225.42361740408086 233.15786268607386" fill = "none" stroke = "#000000" stroke-width = "1" />
  <path d="M212.14212264099822 246.43935744915754           A9.391435011269722 9.391435011269722 0 0 1 212.14212264099774 233.15786268607442" fill = "none" stroke = "#000000" stroke-width = "1" />
  <path d="M225.42361740408137 246.43935744915711           A9.391435011269722 9.391435011269722 0 0 1 212.14212264099822 246.43935744915754" fill = "none" stroke = "#000000" stroke-width = "1" />
	<path d = "M222 255 L225 246 L217 243 " stroke = "#000000" stroke-width = "1" fill = "none" />	<path d = "M275 259 L275 221 L238 221 L238 259 L275 259 Z" stroke = "#000000" stroke-width = "1" fill = "none" />    <line x1="256" y1="259" x2="275" y2="240" style="stroke:#000000;stroke-width:1" />
    <line x1="275" y1="240" x2="256" y2="221" style="stroke:#000000;stroke-width:1" />
    <line x1="256" y1="221" x2="238" y2="240" style="stroke:#000000;stroke-width:1" />
    <line x1="238" y1="240" x2="256" y2="259" style="stroke:#000000;stroke-width:1" />
	<path d = "M313 259 L313 221 L275 221 L275 259 L313 259 Z" stroke = "#000000" stroke-width = "1" fill = "none" />    <line x1="294" y1="240" x2="294" y2="230" style="stroke:#000000;stroke-width:1" />
    <line x1="294" y1="240" x2="285" y2="240" style="stroke:#000000;stroke-width:1" />
    <line x1="294" y1="240" x2="294" y2="249" style="stroke:#000000;stroke-width:1" />
    <line x1="294" y1="240" x2="303" y2="240" style="stroke:#000000;stroke-width:1" />
	<path d = "M350 259 L350 221 L313 221 L313 259 L350 259 Z" stroke = "#000000" stroke-width = "1" fill = "none" /><circle cx="331" cy = "240" r = "18.782870022539445" stroke = "#000000" stroke-width = "1" fill = "none" />
    <line x1="331" y1="240" x2="331" y2="221" style="stroke:#000000;stroke-width:1" />
    <line x1="331" y1="240" x2="350" y2="240" style="stroke:#000000;stroke-width:1" />
    <line x1="331" y1="240" x2="331" y2="259" style="stroke:#000000;stroke-width:1" />
    <line x1="331" y1="240" x2="313" y2="240" style="stroke:#000000;stroke-width:1" />
<circle cx="325" cy = "233" r = "4.695717505634861" stroke = "#000000" stroke-width = "1" fill = "none" />
<circle cx="338" cy = "233" r = "4.695717505634861" stroke = "#000000" stroke-width = "1" fill = "none" />
<circle cx="338" cy = "246" r = "4.695717505634861" stroke = "#000000" stroke-width = "1" fill = "none" />
<circle cx="325" cy = "246" r = "4.695717505634861" stroke = "#000000" stroke-width = "1" fill = "none" />
	<path d = "M388 259 L388 221 L350 221 L350 259 L388 259 Z" stroke = "#000000" stroke-width = "1" fill = "none" />	<path d = "M378 249 L378 240 L369 240 L360 240 L360 249 L369 249 L378 249 Z" stroke = "#000000" stroke-width = "1" fill = "none" />    <line x1="369" y1="249" x2="369" y2="240" style="stroke:#000000;stroke-width:1" />
	<path d = "M50 315 L50 277 L12 277 L12 315 L50 315 Z" stroke = "#000000" stroke-width = "1" fill = "none" />	<path d = "M40 306 L40 287 L22 287 L22 306 L40 306 Z" stroke = "#000000" stroke-width = "1" fill = "none" />	<path d = "M87 315 L87 277 L50 277 L50 315 L87 315 Z" stroke = "#000000" stroke-width = "1" fill = "none" />    <line x1="78" y1="296" x2="59" y2="296" style="stroke:#000000;stroke-width:1" />
	<path d = "M125 315 L125 277 L87 277 L87 315 L125 315 Z" stroke = "#000000" stroke-width = "1" fill = "none" />	<path d = "M111 306 L101 306 L101 296 L97 296 L101 291 L106 287 L111 291 L115 296 L111 296 L111 306 Z" stroke = "#000000" stroke-width = "1" fill = "none" />	<path d = "M162 315 L162 277 L125 277 L125 315 L162 315 Z" stroke = "#000000" stroke-width = "1" fill = "none" />	<path d = "M157 283 L144 296 L157 309 " stroke = "#000000" stroke-width = "1" fill = "none" />    <line x1="144" y1="296" x2="148" y2="296" style="stroke:#000000;stroke-width:1" />
    <line x1="153" y1="296" x2="158" y2="296" style="stroke:#000000;stroke-width:1" />
	<path d = "M200 315 L200 277 L162 277 L162 315 L200 315 Z" stroke = "#000000" stroke-width = "1" fill = "none" />  <path d="M174.57638259591945 289.5064727536916           A9.391435011269724 9.391435011269724 0 0 1 187.85787735900257 289.5064727536931" fill = "none" stroke = "#000000" stroke-width = "1" />
  <path d="M174.57638259591783 302.7879675167747           A9.391435011269724 9.391435011269724 0 0 1 174.57638259591945 289.5064727536916" fill = "none" stroke = "#000000" stroke-width = "1" />
  <path d="M187.85787735900098 302.7879675167764           A9.391435011269724 9.391435011269724 0 0 1 174.57638259591783 302.7879675167747" fill = "none" stroke = "#000000" stroke-width = "1" />
	<path d = "M184 311 L188 303 L179 299 " stroke = "#000000" stroke-width = "1" fill = "none" />	<path d = "M238 315 L238 277 L200 277 L200 315 L238 315 Z" stroke = "#000000" stroke-width = "1" fill = "none" />    <line x1="219" y1="315" x2="238" y2="296" style="stroke:#000000;stroke-width:1" />
    <line x1="238" y1="296" x2="219" y2="277" style="stroke:#000000;stroke-width:1" />
    <line x1="219" y1="277" x2="200" y2="296" style="stroke:#000000;stroke-width:1" />
    <line x1="200" y1="296" x2="219" y2="315" style="stroke:#000000;stroke-width:1" />
	<path d = "M275 315 L275 277 L238 277 L238 315 L275 315 Z" stroke = "#000000" stroke-width = "1" fill = "none" />    <line x1="256" y1="296" x2="256" y2="287" style="stroke:#000000;stroke-width:1" />
    <line x1="256" y1="296" x2="247" y2="296" style="stroke:#000000;stroke-width:1" />
    <line x1="256" y1="296" x2="256" y2="306" style="stroke:#000000;stroke-width:1" />
    <line x1="256" y1="296" x2="266" y2="296" style="stroke:#000000;stroke-width:1" />
	<path d = "M313 315 L313 277 L275 277 L275 315 L313 315 Z" stroke = "#000000" stroke-width = "1" fill = "none" />	<path d = "M303 306 L303 296 L294 296 L285 296 L285 306 L294 306 L303 306 Z" stroke = "#000000" stroke-width = "1" fill = "none" />    <line x1="294" y1="306" x2="294" y2="296" style="stroke:#000000;stroke-width:1" />
	<path d = "M350 315 L350 277 L313 277 L313 315 L350 315 Z" stroke = "#000000" stroke-width = "1" fill = "none" /><circle cx="331" cy = "296" r = "18.78287002253945" stroke = "#000000" stroke-width = "1" fill = "none" />
    <line x1="331" y1="296" x2="331" y2="277" style="stroke:#000000;stroke-width:1" />
    <line x1="331" y1="296" x2="350" y2="296" style="stroke:#000000;stroke-width:1" />
    <line x1="331" y1="296" x2="331" y2="315" style="stroke:#000000;stroke-width:1" />
    <line x1="331" y1="296" x2="313" y2="296" style="stroke:#000000;stroke-width:1" />
<circle cx="325" cy = "290" r = "4.695717505634862" stroke = "#000000" stroke-width = "1" fill = "none" />
<circle cx="338" cy = "290" r = "4.695717505634862" stroke = "#000000" stroke-width = "1" fill = "none" />
<circle cx="338" cy = "303" r = "4.695717505634862" stroke = "#000000" stroke-width = "1" fill = "none" />
<circle cx="325" cy = "303" r = "4.695717505634862" stroke = "#000000" stroke-width = "1" fill = "none" />
	<path d = "M388 315 L388 277 L350 277 L350 315 L388 315 Z" stroke = "#000000" stroke-width = "1" fill = "none" />	<path d = "M378 306 L378 287 L360 287 L360 306 L378 306 Z" stroke = "#000000" stroke-width = "1" fill = "none" /><circle cx="31" cy = "334" r = "9.391435011269724" stroke = "#000000" stroke-width = "1" fill = "none" />
	<path d = "M284 193 L284 24 L116 24 L116 193 L284 193 Z" stroke = "#000000" stroke-width = "5" fill = "none" />	<path d = "M284 108 L200 24 L116 108 L200 193 L284 108 Z" stroke = "#000000" stroke-width = "5" fill = "none" />	<path d = "M242 66 L158 66 L158 150 L242 150 L242 66 Z" stroke = "#000000" stroke-width = "5" fill = "none" /></svg>