<svg width="450" height="750" viewbox = "0 0 450 750"  xmlns="http://www.w3.org/2000/svg">
<!--<json>{
  "glyph": "0321,0306,0334,0221,0335,0221,0335,0221,0335,0221,0335,0221,0335,0221,0331,0334,0331,0350,0335,0222,0335,0350,0335,0330,0334,0334,0330,0334,0334,0334,0222,0350,0334,0223,0335,0330,0334,0334,0223,0334,0330,0335,0330,0335,0335,0223,0335,0330,0334,0334,0350,0334,0222,0335,0350,0335,0330,0334,0334,0334,0222,0350,0335,0335,0335,0221,0334,0221,0334,0221,0334,0221,0335,0331,0335,0335,0221,0221,0335,0335,0335,0220,0330,0332,0335,0350,0335,0222,0350,0334,0221,0335,0221,0220,0335,0335,0330,0220,0335,0330,0220,0335,0333,0220,0332,0220,0330,0220,0333,0220,0334,0331,0220,0335,0331,0220,",
  "x0": 225,
  "y0": 368.08972024999997,
  "unit": 155.89736800000006,
  "width": 450,
  "height": 750,
  "style": {
    "color0": "black",
    "fill0": "black",
    "line0": 1,
    "color1": "black",
    "fill1": "white",
    "line1": 4,
    "color2": "red",
    "fill2": "red",
    "line2": 1,
    "color3": "#FF7900",
    "fill3": "#FF7900",
    "line3": 1,
    "color4": "yellow",
    "fill4": "yellow",
    "line4": 1,
    "color5": "green",
    "fill5": "green",
    "line5": 1,
    "color6": "blue",
    "fill6": "blue",
    "line6": 1,
    "color7": "purple",
    "fill7": "purple",
    "line7": 1
  },
  "shapes": [
    "0220:0336,0336,0347,0337,0337,",
    "0221:0304,0336,0336,0336,0336,0332,0337,0337,0337,0337,0362,0203,0335,0336,0336,0336,0203,0335,0337,0337,0337,0203,0335,0336,0336,0336,0203,0363,0335,0336,0333,0337,0337,0337,0337,0330,0306,",
    "0222:0304,0336,0336,0336,0336,0332,0337,0337,0337,0337,0312,0337,0362,0203,0335,0336,0313,0336,0336,0336,0203,0335,0337,0337,0337,0312,0337,0203,0335,0336,0313,0336,0336,0336,0203,0363,0335,0336,0333,0337,0337,0337,0337,0306,",
    "0223:0304,0336,0336,0336,0336,0332,0337,0337,0337,0337,0362,0203,0203,0335,0336,0336,0336,0203,0335,0337,0337,0337,0203,0203,0335,0336,0336,0336,0203,0363,0335,0336,0333,0337,0337,0337,0337,0306,",
    "0224:0336,0336,0336,0201,0330,0330,0337,0341,0330,0341,0330,0336,0201,0337,0337,0337,",
    "0225:0336,0336,0201,0330,0337,0334,0336,0336,0336,0336,0331,0337,0362,0203,0335,0337,0337,0337,0305,0352,0334,0203,0335,0304,0335,0336,0336,0336,0203,0363,0331,0334,0337,0337,0337,0305,0352,0334,0331,0335,0304,0336,0336,0336,0362,0335,0203,0334,0337,0337,0337,0305,0352,0335,0203,0334,0304,0334,0336,0336,0336,0203,0363,0335,0333,0337,0337,0337,0305,0352,0335,0331,0334,0304,0336,0336,0336,0336,0332,0337,0337,0337,0337,0336,0330,0337,0341,0331,0337,0336,0336,0331,0337,0337,",
    "0226:0336,0330,0337,0336,0341,0332,0336,0350,0335,0342,0335,0335,0342,0335,0335,0342,0335,0335,0342,0335,0304,0337,0337,0333,0336,0336,0350,0335,0342,0335,0335,0342,0335,0335,0342,0335,0335,0342,0335,0304,0337,0332,0330,0337,",
    "0227:0335,0312,0336,0306,0201,0334,0334,0313,0337,0201,0334,0334,0201,0334,0334,0336,0201,0304,0334,0312,0337,0313,0330,",
    "0230:0336,0336,0201,0334,0201,0335,0201,0335,0201,0201,0335,0201,0335,0201,0335,0330,0334,0330,0335,0201,0335,0201,0201,0335,0201,0335,0335,0330,0332,0201,0337,0337,",
    "0231:0336,0336,0336,0336,0347,0337,0337,0337,0337,",
    "0232:0336,0201,0336,0336,0330,0341,0331,0337,0337,0331,0337,",
    "0233:0342,0336,0330,0336,0336,0331,0334,0306,0362,0203,0335,0335,0203,0203,0335,0335,0203,0203,0335,0335,0203,0363,0330,0335,0335,0330,0330,0335,0331,0337,0342,0336,0330,0334,0337,0331,0336,0333,0335,0304,0334,0331,0331,0331,0337,0337,0337,0330,",
    "0234:0201,0336,0331,0350,0335,0336,0331,0337,0342,0336,0330,0334,0334,0331,0337,0342,0336,0330,0335,0337,0331,0304,0337,0330,",
    "0235:0331,0221,0333,0335,0335,0221,0335,0335,0330,",
    "0236:0201,0336,0336,0334,0306,0362,0336,0203,0335,0335,0203,0203,0335,0335,0203,0203,0335,0335,0203,0363,0304,0335,0337,0337,0337,0331,",
    "0237:0304,0336,0336,0336,0332,0337,0337,0337,0342,0336,0336,0333,0337,0337,0342,0330,0336,0336,0336,0332,0337,0337,0337,0220,0306,",
    "01220:0333,0200,0336,0330,0332,0220,0331,0333,0337,",
    "01221:0333,0200,0336,0332,0336,0337,0306,0334,0201,0335,0201,0335,0201,0335,0201,0335,0201,0335,0201,0335,0330,0335,0221,0331,0334,0331,0335,0304,0333,0337,",
    "01222:0333,0200,0336,0332,0306,0334,0201,0335,0201,0335,0201,0335,0201,0335,0201,0335,0201,0331,0350,0335,0222,0350,0332,0335,0335,0335,0304,0333,0337,",
    "01223:0333,0200,0336,0332,0306,0334,0201,0335,0201,0335,0201,0335,0201,0335,0201,0335,0201,0335,0335,0223,0304,0333,0337,",
    "01225:0333,0200,0336,0330,0332,0336,0331,0337,0225,0333,0336,0331,0337,0337,",
    "01226:0333,0200,0336,0332,0336,0330,0337,0226,0331,0333,0336,0331,0337,0337,",
    "01227:0333,0200,0336,0332,0336,0330,0337,0227,0331,0336,0331,0337,0333,0337,",
    "01230:0333,0200,0336,0332,0337,0230,0336,0333,0337,0331,",
    "01231:0333,0200,0336,0332,0337,0342,0336,0330,0335,0342,0335,0342,0335,0342,0335,0337,0231,0336,0333,0331,0337,",
    "01232:0333,0200,0336,0330,0332,0336,0331,0337,0232,0333,0336,0331,0337,0337,",
    "01233:0333,0200,0336,0330,0332,0336,0331,0337,0233,0331,0336,0333,0333,0331,0337,0337,",
    "01234:0333,0200,0336,0330,0332,0336,0331,0333,0332,0337,0234,0333,0331,0336,0331,0337,0337,",
    "01235:0333,0200,0336,0330,0332,0336,0332,0330,0337,0235,0331,0336,0333,0331,0337,0337,",
    "01236:0333,0200,0336,0330,0332,0336,0331,0337,0236,0336,0333,0331,0333,0337,0337,",
    "01237:0333,0200,0336,0330,0332,0336,0220,0237,0304,0333,0333,0330,0337,0337,0331,"
  ]
}</json>-->	<path d = "M220 377 L85 299 L95 282 L230 360 L220 377 Z" stroke = "#000000" stroke-width = "4" fill = "#ffffff" />	<path d = "M80 290 L80 134 L100 134 L100 290 L80 290 Z" stroke = "#000000" stroke-width = "4" fill = "#ffffff" />	<path d = "M85 126 L220 48 L230 65 L95 143 L85 126 Z" stroke = "#000000" stroke-width = "4" fill = "#ffffff" />	<path d = "M230 48 L365 126 L355 143 L220 65 L230 48 Z" stroke = "#000000" stroke-width = "4" fill = "#ffffff" />	<path d = "M370 134 L370 290 L350 290 L350 134 L370 134 Z" stroke = "#000000" stroke-width = "4" fill = "#ffffff" />	<path d = "M365 299 L230 377 L220 360 L355 282 L365 299 Z" stroke = "#000000" stroke-width = "4" fill = "#ffffff" />	<path d = "M368 139 L233 373 L217 363 L352 129 L368 139 Z" stroke = "#000000" stroke-width = "4" fill = "#ffffff" />	<path d = "M98 129 L233 363 L217 373 L82 139 L98 129 Z" stroke = "#000000" stroke-width = "4" fill = "#ffffff" />	<path d = "M95 126 L230 204 L365 282 L355 299 L220 221 L85 143 L95 126 Z" stroke = "#000000" stroke-width = "4" fill = "#ffffff" />	<path d = "M85 282 L220 204 L355 126 L365 143 L230 221 L95 299 L85 282 Z" stroke = "#000000" stroke-width = "4" fill = "#ffffff" />	<path d = "M235 56 L235 212 L235 368 L215 368 L215 212 L215 56 L235 56 Z" stroke = "#000000" stroke-width = "4" fill = "#ffffff" />	<path d = "M90 125 L360 125 L360 144 L90 144 L90 125 Z" stroke = "#000000" stroke-width = "4" fill = "#ffffff" />	<path d = "M90 280 L360 280 L360 300 L90 300 L90 280 Z" stroke = "#000000" stroke-width = "4" fill = "#ffffff" />	<path d = "M100 290 L100 446 L80 446 L80 290 L100 290 Z" stroke = "#000000" stroke-width = "4" fill = "#ffffff" />	<path d = "M95 438 L230 516 L220 532 L85 454 L95 438 Z" stroke = "#000000" stroke-width = "4" fill = "#ffffff" />	<path d = "M220 516 L355 438 L365 454 L230 532 L220 516 Z" stroke = "#000000" stroke-width = "4" fill = "#ffffff" />	<path d = "M350 446 L350 290 L370 290 L370 446 L350 446 Z" stroke = "#000000" stroke-width = "4" fill = "#ffffff" />	<path d = "M235 368 L235 524 L215 524 L215 368 L235 368 Z" stroke = "#000000" stroke-width = "4" fill = "#ffffff" />	<path d = "M235 524 L235 680 L215 680 L215 524 L235 524 Z" stroke = "#000000" stroke-width = "4" fill = "#ffffff" />    <circle cx="225" cy = "680" r = "38.974342000000014" stroke = "#000000" stroke-width = "4" fill = "#ffffff" />
	<path d = "M90 436 L360 436 L360 456 L90 456 L90 436 Z" stroke = "#000000" stroke-width = "4" fill = "#ffffff" />	<path d = "M85 438 L220 360 L230 377 L95 454 L85 438 Z" stroke = "#000000" stroke-width = "4" fill = "#ffffff" />	<path d = "M230 360 L365 438 L355 454 L220 377 L230 360 Z" stroke = "#000000" stroke-width = "4" fill = "#ffffff" />    <circle cx="360" cy = "446" r = "38.974342000000014" stroke = "#000000" stroke-width = "4" fill = "#ffffff" />
    <circle cx="225" cy = "524" r = "38.974342000000014" stroke = "#000000" stroke-width = "4" fill = "#ffffff" />
    <circle cx="90" cy = "446" r = "38.974342000000014" stroke = "#000000" stroke-width = "4" fill = "#ffffff" />
    <circle cx="225" cy = "368" r = "38.974342000000014" stroke = "#000000" stroke-width = "4" fill = "#ffffff" />
    <circle cx="90" cy = "290" r = "38.974342000000014" stroke = "#000000" stroke-width = "4" fill = "#ffffff" />
    <circle cx="90" cy = "134" r = "38.974342000000014" stroke = "#000000" stroke-width = "4" fill = "#ffffff" />
    <circle cx="225" cy = "56" r = "38.974342000000014" stroke = "#000000" stroke-width = "4" fill = "#ffffff" />
    <circle cx="360" cy = "134" r = "38.974342000000014" stroke = "#000000" stroke-width = "4" fill = "#ffffff" />
    <circle cx="360" cy = "290" r = "38.974342000000014" stroke = "#000000" stroke-width = "4" fill = "#ffffff" />
</svg>