<svg width="450" height="450" viewbox = "0 0 450 450"  xmlns="http://www.w3.org/2000/svg">
<!--<json>{
  "glyph": "0330,0321,0366,0330,0333,0333,0336,0331,0337,0367,0335,0335,0366,0331,0333,0333,0367,0335,0335,0337,0336,0331,0331,0331,0332,0332,0210,0210,01336,01366,01330,01333,01333,01336,0331,0332,0332,0332,0332,0332,0332,0336,0331,0332,0337,01331,01337,01367,01335,01335,01366,0331,0331,0332,0332,0332,0332,0332,0332,0336,0330,0337,01331,01333,01333,01367,01335,01335,0331,0331,0332,0332,0332,0332,0332,0332,0336,0330,0337,01337,",
  "x0": 225,
  "y0": 184.0909090909091,
  "unit": 66.11570247933884,
  "width": 450,
  "height": 450,
  "style": {
    "color0": "black",
    "fill0": "black",
    "line0": 1,
    "color1": "black",
    "fill1": "black",
    "line1": 5,
    "color2": "red",
    "fill2": "red",
    "line2": 1,
    "color3": "#FF7900",
    "fill3": "#FF7900",
    "line3": 1,
    "color4": "yellow",
    "fill4": "yellow",
    "line4": 1,
    "color5": "green",
    "fill5": "green",
    "line5": 1,
    "color6": "blue",
    "fill6": "blue",
    "line6": 1,
    "color7": "purple",
    "fill7": "purple",
    "line7": 1
  },
  "shapes": [
    "0220:0305,0350,0334,0362,0203,0335,0335,0203,0335,0335,0335,0203,0335,0335,0203,0363,0335,0335,0335,0335,",
    "01220:0333,0200,0336,0330,0332,0336,0326,0220,0320,0337,0313,0304,0331,0333,0337,",
    "0221:0305,0350,0350,0334,0362,0203,0335,0335,0203,0335,0335,0335,0335,0335,0335,0335,0335,0203,0335,0335,0203,0363,0335,0335,0335,0335,0335,0335,0335,0335,0335,",
    "01221:0333,0200,0336,0330,0332,0336,0326,0221,0320,0313,0304,0337,0331,0333,0337,",
    "0222:0341,0336,0333,0341,0332,0337,0333,0333,0333,",
    "01222:0333,0200,"
  ]
}</json>--><path    d = "M225,118 C225,52 357,19 357,85" fill = "none" stroke-width = "5" stroke = "#000000" /><path    d = "M357,85 C357,151 225,85 225,19" fill = "none" stroke-width = "5" stroke = "#000000" />	<path d = "M143 217 L143 167 L93 167 L93 217 L143 217 Z" stroke = "#000000" stroke-width = "5" fill = "none" />    <line x1="131" y1="192" x2="105" y2="192" style="stroke:#000000;stroke-width:5" />
	<path d = "M194 217 L194 167 L143 167 L143 217 L194 217 Z" stroke = "#000000" stroke-width = "5" fill = "none" />    <line x1="156" y1="205" x2="181" y2="205" style="stroke:#000000;stroke-width:5" />
<circle cx="156" cy = "205" r = "5" stroke = "#000000" stroke-width = "5" fill = "#000000" />
<path    d = "M156,205 C181,205 156,179 181,179" fill = "none" stroke-width = "5" stroke = "#000000" />	<path d = "M244 217 L244 167 L194 167 L194 217 L244 217 Z" stroke = "#000000" stroke-width = "5" fill = "none" />	<path d = "M225 205 L213 205 L213 192 L206 192 L213 186 L219 179 L225 186 L232 192 L225 192 L225 205 Z" stroke = "#000000" stroke-width = "5" fill = "none" />	<path d = "M295 217 L295 167 L244 167 L244 217 L295 217 Z" stroke = "#000000" stroke-width = "5" fill = "none" />	<path d = "M257 198 L257 186 L270 186 L270 179 L276 186 L282 192 L276 198 L270 205 L270 198 L257 198 Z" stroke = "#000000" stroke-width = "5" fill = "none" />	<path d = "M345 217 L345 167 L295 167 L295 217 L345 217 Z" stroke = "#000000" stroke-width = "5" fill = "none" />	<path d = "M307 198 L307 186 L320 186 L320 179 L326 186 L333 192 L326 198 L320 205 L320 198 L307 198 Z" stroke = "#000000" stroke-width = "5" fill = "none" />	<path d = "M396 217 L396 167 L345 167 L345 217 L396 217 Z" stroke = "#000000" stroke-width = "5" fill = "none" />    <line x1="383" y1="192" x2="358" y2="192" style="stroke:#000000;stroke-width:5" />
	<path d = "M118 293 L118 242 L68 242 L68 293 L118 293 Z" stroke = "#000000" stroke-width = "5" fill = "none" />	<path d = "M86 255 L99 255 L99 268 L105 268 L99 274 L93 280 L86 274 L80 268 L86 268 L86 255 Z" stroke = "#000000" stroke-width = "5" fill = "none" />	<path d = "M169 293 L169 242 L118 242 L118 293 L169 293 Z" stroke = "#000000" stroke-width = "5" fill = "none" />    <line x1="143" y1="268" x2="143" y2="255" style="stroke:#000000;stroke-width:5" />
    <line x1="143" y1="268" x2="131" y2="268" style="stroke:#000000;stroke-width:5" />
    <line x1="143" y1="268" x2="143" y2="280" style="stroke:#000000;stroke-width:5" />
    <line x1="143" y1="268" x2="156" y2="268" style="stroke:#000000;stroke-width:5" />
	<path d = "M219 293 L219 242 L169 242 L169 293 L219 293 Z" stroke = "#000000" stroke-width = "5" fill = "none" /><path    d = "M181,280 C206,280 181,255 206,255" fill = "none" stroke-width = "5" stroke = "#000000" /><circle cx="206" cy = "255" r = "5" stroke = "#000000" stroke-width = "5" fill = "#000000" />
    <line x1="206" y1="255" x2="181" y2="255" style="stroke:#000000;stroke-width:5" />
	<path d = "M270 293 L270 242 L219 242 L219 293 L270 293 Z" stroke = "#000000" stroke-width = "5" fill = "none" />  <path d="M253.2209220409581 276.58528270208757           A12.626975578515879 12.626975578515879 0 0 1 235.3636819260671 276.58528270208757" fill = "none" stroke = "#000000" stroke-width = "5" />
  <path d="M235.3636819260671 276.58528270208757           A12.626975578515879 12.626975578515879 0 0 1 235.3636819260671 258.7280425871965" fill = "none" stroke = "#000000" stroke-width = "5" />
  <path d="M235.3636819260671 258.7280425871965           A12.626975578515879 12.626975578515879 0 0 1 253.2209220409581 258.7280425871965" fill = "none" stroke = "#000000" stroke-width = "5" />
	<path d = "M242 264 L253 259 L248 247 " stroke = "#000000" stroke-width = "5" fill = "none" />	<path d = "M320 293 L320 242 L270 242 L270 293 L320 293 Z" stroke = "#000000" stroke-width = "5" fill = "none" />  <path d="M303.7288243550217 276.58528270208757           A12.626975578515879 12.626975578515879 0 0 1 285.87158424013063 276.58528270208757" fill = "none" stroke = "#000000" stroke-width = "5" />
  <path d="M285.87158424013063 276.58528270208757           A12.626975578515879 12.626975578515879 0 0 1 285.87158424013063 258.7280425871965" fill = "none" stroke = "#000000" stroke-width = "5" />
  <path d="M285.87158424013063 258.7280425871965           A12.626975578515879 12.626975578515879 0 0 1 303.7288243550217 258.7280425871965" fill = "none" stroke = "#000000" stroke-width = "5" />
	<path d = "M292 264 L304 259 L299 247 " stroke = "#000000" stroke-width = "5" fill = "none" />	<path d = "M371 293 L371 242 L320 242 L320 293 L371 293 Z" stroke = "#000000" stroke-width = "5" fill = "none" />    <line x1="333" y1="280" x2="358" y2="280" style="stroke:#000000;stroke-width:5" />
<circle cx="333" cy = "280" r = "5" stroke = "#000000" stroke-width = "5" fill = "#000000" />
<path    d = "M333,280 C358,280 333,255 358,255" fill = "none" stroke-width = "5" stroke = "#000000" />	<path d = "M118 369 L118 318 L68 318 L68 369 L118 369 Z" stroke = "#000000" stroke-width = "5" fill = "none" />	<path d = "M86 331 L99 331 L99 343 L105 343 L99 350 L93 356 L86 350 L80 343 L86 343 L86 331 Z" stroke = "#000000" stroke-width = "5" fill = "none" />	<path d = "M169 369 L169 318 L118 318 L118 369 L169 369 Z" stroke = "#000000" stroke-width = "5" fill = "none" />	<path d = "M131 350 L131 337 L143 337 L143 331 L150 337 L156 343 L150 350 L143 356 L143 350 L131 350 Z" stroke = "#000000" stroke-width = "5" fill = "none" />	<path d = "M219 369 L219 318 L169 318 L169 369 L219 369 Z" stroke = "#000000" stroke-width = "5" fill = "none" />	<path d = "M181 350 L181 337 L194 337 L194 331 L200 337 L206 343 L200 350 L194 356 L194 350 L181 350 Z" stroke = "#000000" stroke-width = "5" fill = "none" />	<path d = "M270 369 L270 318 L219 318 L219 369 L270 369 Z" stroke = "#000000" stroke-width = "5" fill = "none" /><path    d = "M232,356 C257,356 232,331 257,331" fill = "none" stroke-width = "5" stroke = "#000000" /><circle cx="257" cy = "331" r = "5" stroke = "#000000" stroke-width = "5" fill = "#000000" />
    <line x1="257" y1="331" x2="232" y2="331" style="stroke:#000000;stroke-width:5" />
	<path d = "M320 369 L320 318 L270 318 L270 369 L320 369 Z" stroke = "#000000" stroke-width = "5" fill = "none" />  <path d="M303.7288243550217 352.3471361731827           A12.626975578515879 12.626975578515879 0 0 1 285.8715842401307 352.3471361731828" fill = "none" stroke = "#000000" stroke-width = "5" />
  <path d="M285.8715842401307 352.3471361731828           A12.626975578515879 12.626975578515879 0 0 1 285.87158424013063 334.4898960582917" fill = "none" stroke = "#000000" stroke-width = "5" />
  <path d="M285.87158424013063 334.4898960582917           A12.626975578515879 12.626975578515879 0 0 1 303.7288243550217 334.4898960582918" fill = "none" stroke = "#000000" stroke-width = "5" />
	<path d = "M292 339 L304 334 L299 323 " stroke = "#000000" stroke-width = "5" fill = "none" />	<path d = "M371 369 L371 318 L320 318 L320 369 L371 369 Z" stroke = "#000000" stroke-width = "5" fill = "none" />  <path d="M354.23672666908516 352.3471361731832           A12.626975578515879 12.626975578515879 0 0 1 336.3794865541941 352.3471361731831" fill = "none" stroke = "#000000" stroke-width = "5" />
  <path d="M336.3794865541941 352.3471361731831           A12.626975578515879 12.626975578515879 0 0 1 336.3794865541943 334.48989605829206" fill = "none" stroke = "#000000" stroke-width = "5" />
  <path d="M336.3794865541943 334.48989605829206           A12.626975578515879 12.626975578515879 0 0 1 354.2367266690853 334.48989605829223" fill = "none" stroke = "#000000" stroke-width = "5" />
	<path d = "M343 339 L354 334 L349 323 " stroke = "#000000" stroke-width = "5" fill = "none" />	<path d = "M118 444 L118 394 L68 394 L68 444 L118 444 Z" stroke = "#000000" stroke-width = "5" fill = "none" />    <line x1="93" y1="419" x2="93" y2="407" style="stroke:#000000;stroke-width:5" />
    <line x1="93" y1="419" x2="80" y2="419" style="stroke:#000000;stroke-width:5" />
    <line x1="93" y1="419" x2="93" y2="432" style="stroke:#000000;stroke-width:5" />
    <line x1="93" y1="419" x2="105" y2="419" style="stroke:#000000;stroke-width:5" />
</svg>