<svg width="400" height="400" viewbox = "0 0 400 400"  xmlns="http://www.w3.org/2000/svg">
<!--<json>{
  "glyph": "0336,0336,0331,0331,0337,0337,0331,0332,0332,0332,0332,01333,01200,01336,01332,01330,01337,01212,01336,0331,0332,0332,0332,0332,0332,0332,0332,0332,0336,0331,0337,01331,01333,01337,0336,0330,0333,0336,0341,0337,0330,0332,0337,0330,0330,0333,0330,0330,0211,0211,0211,0211,0211,0331,0333,0337,0332,0321,01330,",
  "x0": 200,
  "y0": 221.29681404958671,
  "unit": 45.45454545454546,
  "width": 400,
  "height": 400,
  "style": {
    "color0": "black",
    "fill0": "black",
    "line0": 1,
    "color1": "black",
    "fill1": "black",
    "line1": 5,
    "color2": "red",
    "fill2": "red",
    "line2": 1,
    "color3": "#FF7900",
    "fill3": "#FF7900",
    "line3": 1,
    "color4": "yellow",
    "fill4": "yellow",
    "line4": 1,
    "color5": "green",
    "fill5": "green",
    "line5": 1,
    "color6": "blue",
    "fill6": "blue",
    "line6": 1,
    "color7": "purple",
    "fill7": "purple",
    "line7": 1
  },
  "shapes": [
    "01220:0333,0200,0336,0330,0332,0336,0332,060,062,062,060,0365,0333,0333,0331,0331,0333,0337,0337,",
    "01221:0333,0200,0336,0330,0332,0336,0332,060,062,062,061,0365,0333,0333,0331,0331,0333,0337,0337,",
    "01222:0333,0200,0336,0330,0332,0336,0332,060,062,062,062,0365,0333,0333,0331,0331,0333,0337,0337,",
    "01223:0333,0200,0336,0330,0332,0336,0332,060,062,062,063,0365,0333,0333,0331,0331,0333,0337,0337,",
    "01224:0333,0200,0336,0330,0332,0336,0332,060,062,062,064,0365,0333,0333,0331,0331,0333,0337,0337,",
    "01225:0333,0200,0336,0330,0332,0336,0332,060,062,062,065,0365,0333,0333,0331,0331,0333,0337,0337,",
    "01226:0333,0200,0336,0330,0332,0336,0332,060,062,062,066,0365,0333,0333,0331,0331,0333,0337,0337,",
    "01227:0333,0200,0336,0330,0332,0336,0332,060,062,062,067,0365,0333,0333,0331,0331,0333,0337,0337,",
    "01230:0333,0200,0336,0330,0332,0336,0332,060,062,063,060,0365,0333,0333,0331,0331,0333,0337,0337,",
    "01231:0333,0200,0336,0330,0332,0336,0332,060,062,063,061,0365,0333,0333,0331,0331,0333,0337,0337,",
    "01232:0333,0200,0336,0330,0332,0336,0332,060,062,063,062,0365,0333,0333,0331,0331,0333,0337,0337,",
    "01233:0333,0200,0336,0330,0332,0336,0332,060,062,063,063,0365,0333,0333,0331,0331,0333,0337,0337,",
    "01234:0333,0200,0336,0330,0332,0336,0332,060,062,063,064,0365,0333,0333,0331,0331,0333,0337,0337,",
    "01235:0333,0200,0336,0330,0332,0336,0332,060,062,063,065,0365,0333,0333,0331,0331,0333,0337,0337,",
    "01236:0333,0200,0336,0330,0332,0336,0332,060,062,063,066,0365,0333,0333,0331,0331,0333,0337,0337,",
    "01237:0333,0200,0336,0330,0332,0336,0332,060,062,063,067,0365,0333,0333,0331,0331,0333,0337,0337,"
  ]
}</json>-->	<path d = "M64 289 L64 244 L18 244 L18 289 L64 289 Z" stroke = "#000000" stroke-width = "1" fill = "none" />	<path d = "M30 272 L30 261 L41 261 L41 255 L47 261 L52 267 L47 272 L41 278 L41 272 L30 272 Z" stroke = "#000000" stroke-width = "1" fill = "none" />	<path d = "M109 289 L109 244 L64 244 L64 289 L109 289 Z" stroke = "#000000" stroke-width = "1" fill = "none" />	<path d = "M98 278 L98 255 L75 255 L75 278 L98 278 Z" stroke = "#000000" stroke-width = "1" fill = "none" />	<path d = "M155 289 L155 244 L109 244 L109 289 L155 289 Z" stroke = "#000000" stroke-width = "1" fill = "none" />    <line x1="143" y1="267" x2="120" y2="267" style="stroke:#000000;stroke-width:1" />
	<path d = "M200 289 L200 244 L155 244 L155 289 L200 289 Z" stroke = "#000000" stroke-width = "1" fill = "none" />	<path d = "M189 261 L189 272 L177 272 L177 278 L172 272 L166 267 L172 261 L177 255 L177 261 L189 261 Z" stroke = "#000000" stroke-width = "1" fill = "none" />	<path d = "M245 289 L245 244 L200 244 L200 289 L245 289 Z" stroke = "#000000" stroke-width = "1" fill = "none" />	<path d = "M228 278 L217 278 L217 267 L211 267 L217 261 L223 255 L228 261 L234 267 L228 267 L228 278 Z" stroke = "#000000" stroke-width = "1" fill = "none" />	<path d = "M291 289 L291 244 L245 244 L245 289 L291 289 Z" stroke = "#000000" stroke-width = "1" fill = "none" />    <line x1="268" y1="267" x2="268" y2="255" style="stroke:#000000;stroke-width:1" />
    <line x1="268" y1="267" x2="257" y2="267" style="stroke:#000000;stroke-width:1" />
    <line x1="268" y1="267" x2="268" y2="278" style="stroke:#000000;stroke-width:1" />
    <line x1="268" y1="267" x2="280" y2="267" style="stroke:#000000;stroke-width:1" />
	<path d = "M319 278 L308 278 L308 267 L302 267 L308 261 L314 255 L319 261 L325 267 L319 267 L319 278 Z" stroke = "#000000" stroke-width = "1" fill = "none" />	<path d = "M325 278 L325 255 L302 255 L302 278 L325 278 Z" stroke = "#000000" stroke-width = "1" fill = "none" />	<path d = "M336 289 L336 244 L291 244 L291 289 L336 289 Z" stroke = "#000000" stroke-width = "1" fill = "none" />	<path d = "M382 289 L382 244 L336 244 L336 289 L382 289 Z" stroke = "#000000" stroke-width = "1" fill = "none" />    <line x1="370" y1="267" x2="348" y2="267" style="stroke:#000000;stroke-width:1" />
	<path d = "M64 358 L64 312 L18 312 L18 358 L64 358 Z" stroke = "#000000" stroke-width = "1" fill = "none" />	<path d = "M35 324 L47 324 L47 335 L52 335 L47 341 L41 346 L35 341 L30 335 L35 335 L35 324 Z" stroke = "#000000" stroke-width = "1" fill = "none" />	<path d = "M109 358 L109 312 L64 312 L64 358 L109 358 Z" stroke = "#000000" stroke-width = "1" fill = "none" />	<path d = "M75 341 L75 329 L86 329 L86 324 L92 329 L98 335 L92 341 L86 346 L86 341 L75 341 Z" stroke = "#000000" stroke-width = "1" fill = "none" />	<path d = "M155 358 L155 312 L109 312 L109 358 L155 358 Z" stroke = "#000000" stroke-width = "1" fill = "none" />    <line x1="132" y1="335" x2="132" y2="324" style="stroke:#000000;stroke-width:1" />
    <line x1="132" y1="335" x2="120" y2="335" style="stroke:#000000;stroke-width:1" />
    <line x1="132" y1="335" x2="132" y2="346" style="stroke:#000000;stroke-width:1" />
    <line x1="132" y1="335" x2="143" y2="335" style="stroke:#000000;stroke-width:1" />
<circle cx="177" cy = "335" r = "11.363636363636365" stroke = "#000000" stroke-width = "1" fill = "none" />
	<path d = "M289 220 L289 41 L111 41 L111 220 L289 220 Z" stroke = "#000000" stroke-width = "5" fill = "none" />	<path d = "M222 175 L178 175 L178 130 L155 130 L178 108 L200 86 L222 108 L245 130 L222 130 L222 175 Z" stroke = "#000000" stroke-width = "5" fill = "none" /></svg>