<svg width="400" height="250" viewbox = "0 0 400 250"  xmlns="http://www.w3.org/2000/svg">
<!--<json>{
  "glyph": "0336,0336,0336,0333,0330,0330,0330,0330,0330,0333,0330,0330,0330,0333,0333,0333,0330,0333,0333,0330,0337,0337,0337,0330,0332,0330,0332,0332,0336,0337,01603,072,0336,0336,0336,0330,0333,0337,0337,0337,0365,0336,0336,0336,0331,0332,0337,0337,0337,0333,0336,0332,0337,01711,01706,01702,01711,01702,01711,01706,01702,0331,0332,0332,0332,0332,0332,0332,0332,0332,0332,0332,0336,0331,0337,01711,01702,01711,01706,01702,01711,01702,01711,01703,01703,0331,0332,0332,0332,0332,0332,0332,0332,0332,0332,0332,0336,0331,0337,01707,01703,01703,01707,01703,01703,01707,0336,0330,0333,0336,0341,",
  "x0": 110.20553354132231,
  "y0": 206.404958677686,
  "unit": 37.56574004507889,
  "width": 400,
  "height": 250,
  "style": {
    "color0": "black",
    "fill0": "black",
    "line0": 1,
    "color1": "black",
    "fill1": "black",
    "line1": 5,
    "color2": "red",
    "fill2": "red",
    "line2": 1,
    "color3": "#FF7900",
    "fill3": "#FF7900",
    "line3": 1,
    "color4": "yellow",
    "fill4": "yellow",
    "line4": 1,
    "color5": "green",
    "fill5": "green",
    "line5": 1,
    "color6": "blue",
    "fill6": "blue",
    "line6": 1,
    "color7": "purple",
    "fill7": "purple",
    "line7": 1
  },
  "shapes": [
    "0220:0341,",
    "01220:0333,0200,0336,0330,0332,0336,0332,060,062,062,060,0365,0333,0333,0331,0331,0333,0337,0337,",
    "01221:0333,0200,0336,0330,0332,0336,0332,060,062,062,061,0365,0333,0333,0331,0331,0333,0337,0337,",
    "01222:0333,0200,0336,0330,0332,0336,0332,060,062,062,062,0365,0333,0333,0331,0331,0333,0337,0337,",
    "01223:0333,0200,0336,0330,0332,0336,0332,060,062,062,063,0365,0333,0333,0331,0331,0333,0337,0337,",
    "01224:0333,0200,0336,0330,0332,0336,0332,060,062,062,064,0365,0333,0333,0331,0331,0333,0337,0337,",
    "01225:0333,0200,0336,0330,0332,0336,0332,060,062,062,065,0365,0333,0333,0331,0331,0333,0337,0337,",
    "01226:0333,0200,0336,0330,0332,0336,0332,060,062,062,066,0365,0333,0333,0331,0331,0333,0337,0337,",
    "01227:0333,0200,0336,0330,0332,0336,0332,060,062,062,067,0365,0333,0333,0331,0331,0333,0337,0337,",
    "01230:0333,0200,0336,0330,0332,0336,0332,060,062,063,060,0365,0333,0333,0331,0331,0333,0337,0337,",
    "01231:0333,0200,0336,0330,0332,0336,0332,060,062,063,061,0365,0333,0333,0331,0331,0333,0337,0337,",
    "01232:0333,0200,0336,0330,0332,0336,0332,060,062,062,062,0365,0333,0333,0331,0331,0333,0337,0337,",
    "01233:0333,0200,0336,0330,0332,0336,0332,060,062,062,063,0365,0333,0333,0331,0331,0333,0337,0337,",
    "01234:0333,0200,0336,0330,0332,0336,0332,060,062,062,064,0365,0333,0333,0331,0331,0333,0337,0337,",
    "01235:0333,0200,0336,0330,0332,0336,0332,060,062,062,065,0365,0333,0333,0331,0331,0333,0337,0337,",
    "01236:0333,0200,0336,0330,0332,0336,0332,060,062,062,066,0365,0333,0333,0331,0331,0333,0337,0337,",
    "01237:0333,0200,0336,0330,0332,0336,0332,060,062,062,067,0365,0333,0333,0331,0331,0333,0337,0337,"
  ]
}</json>-->	<path d = "M68 84 L68 47 L30 47 L30 84 L68 84 Z" stroke = "#000000" stroke-width = "1" fill = "none" />	<path d = "M54 80 L54 70 L44 70 L44 80 L54 80 Z" stroke = "#000000" stroke-width = "1" fill = "none" />	<path d = "M52 70 L52 66 L47 66 L47 70 L52 70 Z" stroke = "#000000" stroke-width = "1" fill = "none" />	<path d = "M50 66 L50 63 L48 63 L48 66 L50 66 Z" stroke = "#000000" stroke-width = "1" fill = "none" />	<path d = "M50 63 L50 62 L49 62 L49 63 L50 63 Z" stroke = "#000000" stroke-width = "1" fill = "none" />    <text x="73" y = "80" fill = "#000000" font-size = "37.56574004507889px" font-family = "Arial">:</text>
	<path d = "M124 84 L124 47 L87 47 L87 84 L124 84 Z" stroke = "#000000" stroke-width = "1" fill = "none" />	<path d = "M110 80 L110 61 L91 61 L91 80 L110 80 Z" stroke = "#000000" stroke-width = "1" fill = "none" />    <line x1="110" y1="80" x2="115" y2="71" style="stroke:#000000;stroke-width:1" />
    <line x1="115" y1="71" x2="115" y2="53" style="stroke:#000000;stroke-width:1" />
    <line x1="115" y1="53" x2="110" y2="61" style="stroke:#000000;stroke-width:1" />
    <line x1="115" y1="53" x2="96" y2="53" style="stroke:#000000;stroke-width:1" />
    <line x1="96" y1="53" x2="91" y2="61" style="stroke:#000000;stroke-width:1" />
	<path d = "M162 84 L162 47 L124 47 L124 84 L162 84 Z" stroke = "#000000" stroke-width = "1" fill = "none" />	<path d = "M162 84 L162 47 L124 47 L124 84 L162 84 Z" stroke = "#000000" stroke-width = "1" fill = "none" />    <line x1="143" y1="66" x2="134" y2="66" style="stroke:#000000;stroke-width:1" />
    <line x1="143" y1="66" x2="152" y2="66" style="stroke:#000000;stroke-width:1" />
	<path d = "M199 84 L199 47 L162 47 L162 84 L199 84 Z" stroke = "#000000" stroke-width = "1" fill = "none" />    <line x1="181" y1="66" x2="181" y2="47" style="stroke:#0000ff;stroke-width:1" />
	<path d = "M181 47 L178 51 L183 51 L181 47 Z" stroke = "#0000ff" stroke-width = "1" fill = "#0000ff" /> M181,66 C181,47 	<path d = "M237 84 L237 47 L199 47 L199 84 L237 84 Z" stroke = "#000000" stroke-width = "1" fill = "none" />	<path d = "M223 80 L223 61 L204 61 L204 80 L223 80 Z" stroke = "#000000" stroke-width = "1" fill = "none" />    <line x1="223" y1="80" x2="228" y2="71" style="stroke:#000000;stroke-width:1" />
    <line x1="228" y1="71" x2="228" y2="53" style="stroke:#000000;stroke-width:1" />
    <line x1="228" y1="53" x2="223" y2="61" style="stroke:#000000;stroke-width:1" />
    <line x1="228" y1="53" x2="209" y2="53" style="stroke:#000000;stroke-width:1" />
    <line x1="209" y1="53" x2="204" y2="61" style="stroke:#000000;stroke-width:1" />
	<path d = "M275 84 L275 47 L237 47 L237 84 L275 84 Z" stroke = "#000000" stroke-width = "1" fill = "none" />    <line x1="256" y1="66" x2="256" y2="47" style="stroke:#0000ff;stroke-width:1" />
	<path d = "M256 47 L253 51 L258 51 L256 47 Z" stroke = "#0000ff" stroke-width = "1" fill = "#0000ff" /> M256,66 C256,47 	<path d = "M312 84 L312 47 L275 47 L275 84 L312 84 Z" stroke = "#000000" stroke-width = "1" fill = "none" />	<path d = "M298 80 L298 61 L279 61 L279 80 L298 80 Z" stroke = "#000000" stroke-width = "1" fill = "none" />    <line x1="298" y1="80" x2="303" y2="71" style="stroke:#000000;stroke-width:1" />
    <line x1="303" y1="71" x2="303" y2="53" style="stroke:#000000;stroke-width:1" />
    <line x1="303" y1="53" x2="298" y2="61" style="stroke:#000000;stroke-width:1" />
    <line x1="303" y1="53" x2="284" y2="53" style="stroke:#000000;stroke-width:1" />
    <line x1="284" y1="53" x2="279" y2="61" style="stroke:#000000;stroke-width:1" />
	<path d = "M350 84 L350 47 L312 47 L312 84 L350 84 Z" stroke = "#000000" stroke-width = "1" fill = "none" />	<path d = "M350 84 L350 47 L312 47 L312 84 L350 84 Z" stroke = "#000000" stroke-width = "1" fill = "none" />    <line x1="331" y1="66" x2="322" y2="66" style="stroke:#000000;stroke-width:1" />
    <line x1="331" y1="66" x2="340" y2="66" style="stroke:#000000;stroke-width:1" />
	<path d = "M387 84 L387 47 L350 47 L350 84 L387 84 Z" stroke = "#000000" stroke-width = "1" fill = "none" />    <line x1="368" y1="66" x2="368" y2="47" style="stroke:#0000ff;stroke-width:1" />
	<path d = "M368 47 L366 51 L371 51 L368 47 Z" stroke = "#0000ff" stroke-width = "1" fill = "#0000ff" /> M368,66 C368,47 	<path d = "M49 141 L49 103 L12 103 L12 141 L49 141 Z" stroke = "#000000" stroke-width = "1" fill = "none" />	<path d = "M35 136 L35 117 L16 117 L16 136 L35 136 Z" stroke = "#000000" stroke-width = "1" fill = "none" />    <line x1="35" y1="136" x2="40" y2="128" style="stroke:#000000;stroke-width:1" />
    <line x1="40" y1="128" x2="40" y2="109" style="stroke:#000000;stroke-width:1" />
    <line x1="40" y1="109" x2="35" y2="117" style="stroke:#000000;stroke-width:1" />
    <line x1="40" y1="109" x2="21" y2="109" style="stroke:#000000;stroke-width:1" />
    <line x1="21" y1="109" x2="16" y2="117" style="stroke:#000000;stroke-width:1" />
	<path d = "M87 141 L87 103 L49 103 L49 141 L87 141 Z" stroke = "#000000" stroke-width = "1" fill = "none" />    <line x1="68" y1="122" x2="68" y2="103" style="stroke:#0000ff;stroke-width:1" />
	<path d = "M68 103 L66 107 L70 107 L68 103 Z" stroke = "#0000ff" stroke-width = "1" fill = "#0000ff" /> M68,122 C68,103 	<path d = "M124 141 L124 103 L87 103 L87 141 L124 141 Z" stroke = "#000000" stroke-width = "1" fill = "none" />	<path d = "M110 136 L110 117 L91 117 L91 136 L110 136 Z" stroke = "#000000" stroke-width = "1" fill = "none" />    <line x1="110" y1="136" x2="115" y2="128" style="stroke:#000000;stroke-width:1" />
    <line x1="115" y1="128" x2="115" y2="109" style="stroke:#000000;stroke-width:1" />
    <line x1="115" y1="109" x2="110" y2="117" style="stroke:#000000;stroke-width:1" />
    <line x1="115" y1="109" x2="96" y2="109" style="stroke:#000000;stroke-width:1" />
    <line x1="96" y1="109" x2="91" y2="117" style="stroke:#000000;stroke-width:1" />
	<path d = "M162 141 L162 103 L124 103 L124 141 L162 141 Z" stroke = "#000000" stroke-width = "1" fill = "none" />	<path d = "M162 141 L162 103 L124 103 L124 141 L162 141 Z" stroke = "#000000" stroke-width = "1" fill = "none" />    <line x1="143" y1="122" x2="134" y2="122" style="stroke:#000000;stroke-width:1" />
    <line x1="143" y1="122" x2="152" y2="122" style="stroke:#000000;stroke-width:1" />
	<path d = "M199 141 L199 103 L162 103 L162 141 L199 141 Z" stroke = "#000000" stroke-width = "1" fill = "none" />    <line x1="181" y1="122" x2="181" y2="103" style="stroke:#0000ff;stroke-width:1" />
	<path d = "M181 103 L178 107 L183 107 L181 103 Z" stroke = "#0000ff" stroke-width = "1" fill = "#0000ff" /> M181,122 C181,103 	<path d = "M237 141 L237 103 L199 103 L199 141 L237 141 Z" stroke = "#000000" stroke-width = "1" fill = "none" />	<path d = "M223 136 L223 117 L204 117 L204 136 L223 136 Z" stroke = "#000000" stroke-width = "1" fill = "none" />    <line x1="223" y1="136" x2="228" y2="128" style="stroke:#000000;stroke-width:1" />
    <line x1="228" y1="128" x2="228" y2="109" style="stroke:#000000;stroke-width:1" />
    <line x1="228" y1="109" x2="223" y2="117" style="stroke:#000000;stroke-width:1" />
    <line x1="228" y1="109" x2="209" y2="109" style="stroke:#000000;stroke-width:1" />
    <line x1="209" y1="109" x2="204" y2="117" style="stroke:#000000;stroke-width:1" />
	<path d = "M275 141 L275 103 L237 103 L237 141 L275 141 Z" stroke = "#000000" stroke-width = "1" fill = "none" />    <line x1="256" y1="122" x2="256" y2="103" style="stroke:#0000ff;stroke-width:1" />
	<path d = "M256 103 L253 107 L258 107 L256 103 Z" stroke = "#0000ff" stroke-width = "1" fill = "#0000ff" /> M256,122 C256,103 	<path d = "M312 141 L312 103 L275 103 L275 141 L312 141 Z" stroke = "#000000" stroke-width = "1" fill = "none" />	<path d = "M298 136 L298 117 L279 117 L279 136 L298 136 Z" stroke = "#000000" stroke-width = "1" fill = "none" />    <line x1="298" y1="136" x2="303" y2="128" style="stroke:#000000;stroke-width:1" />
    <line x1="303" y1="128" x2="303" y2="109" style="stroke:#000000;stroke-width:1" />
    <line x1="303" y1="109" x2="298" y2="117" style="stroke:#000000;stroke-width:1" />
    <line x1="303" y1="109" x2="284" y2="109" style="stroke:#000000;stroke-width:1" />
    <line x1="284" y1="109" x2="279" y2="117" style="stroke:#000000;stroke-width:1" />
	<path d = "M350 141 L350 103 L312 103 L312 141 L350 141 Z" stroke = "#000000" stroke-width = "1" fill = "none" />    <line x1="331" y1="122" x2="331" y2="141" style="stroke:#0000ff;stroke-width:1" />
	<path d = "M331 141 L333 137 L329 137 L331 141 Z" stroke = "#0000ff" stroke-width = "1" fill = "#0000ff" /> M331,122 C331,141 <circle cx="331" cy = "122" r = "1" stroke = "#0000ff" stroke-width = "1" fill = "#0000ff" />
	<path d = "M387 141 L387 103 L350 103 L350 141 L387 141 Z" stroke = "#000000" stroke-width = "1" fill = "none" />    <line x1="368" y1="122" x2="368" y2="141" style="stroke:#0000ff;stroke-width:1" />
	<path d = "M368 141 L371 137 L366 137 L368 141 Z" stroke = "#0000ff" stroke-width = "1" fill = "#0000ff" /> M368,122 C368,141 <circle cx="368" cy = "122" r = "1" stroke = "#0000ff" stroke-width = "1" fill = "#0000ff" />
	<path d = "M49 197 L49 159 L12 159 L12 197 L49 197 Z" stroke = "#000000" stroke-width = "1" fill = "none" />    <line x1="30" y1="178" x2="30" y2="169" style="stroke:#000000;stroke-width:1" />
    <line x1="30" y1="178" x2="40" y2="178" style="stroke:#000000;stroke-width:1" />
    <line x1="30" y1="178" x2="30" y2="188" style="stroke:#000000;stroke-width:1" />
    <line x1="30" y1="178" x2="21" y2="178" style="stroke:#000000;stroke-width:1" />
	<path d = "M87 197 L87 159 L49 159 L49 197 L87 197 Z" stroke = "#000000" stroke-width = "1" fill = "none" />    <line x1="68" y1="178" x2="68" y2="197" style="stroke:#0000ff;stroke-width:1" />
	<path d = "M68 197 L70 193 L66 193 L68 197 Z" stroke = "#0000ff" stroke-width = "1" fill = "#0000ff" /> M68,178 C68,197 <circle cx="68" cy = "178" r = "1" stroke = "#0000ff" stroke-width = "1" fill = "#0000ff" />
	<path d = "M124 197 L124 159 L87 159 L87 197 L124 197 Z" stroke = "#000000" stroke-width = "1" fill = "none" />    <line x1="106" y1="178" x2="106" y2="197" style="stroke:#0000ff;stroke-width:1" />
	<path d = "M106 197 L108 193 L103 193 L106 197 Z" stroke = "#0000ff" stroke-width = "1" fill = "#0000ff" /> M106,178 C106,197 <circle cx="106" cy = "178" r = "1" stroke = "#0000ff" stroke-width = "1" fill = "#0000ff" />
	<path d = "M162 197 L162 159 L124 159 L124 197 L162 197 Z" stroke = "#000000" stroke-width = "1" fill = "none" />    <line x1="143" y1="178" x2="143" y2="169" style="stroke:#000000;stroke-width:1" />
    <line x1="143" y1="178" x2="152" y2="178" style="stroke:#000000;stroke-width:1" />
    <line x1="143" y1="178" x2="143" y2="188" style="stroke:#000000;stroke-width:1" />
    <line x1="143" y1="178" x2="134" y2="178" style="stroke:#000000;stroke-width:1" />
	<path d = "M199 197 L199 159 L162 159 L162 197 L199 197 Z" stroke = "#000000" stroke-width = "1" fill = "none" />    <line x1="181" y1="178" x2="181" y2="197" style="stroke:#0000ff;stroke-width:1" />
	<path d = "M181 197 L183 193 L178 193 L181 197 Z" stroke = "#0000ff" stroke-width = "1" fill = "#0000ff" /> M181,178 C181,197 <circle cx="181" cy = "178" r = "1" stroke = "#0000ff" stroke-width = "1" fill = "#0000ff" />
	<path d = "M237 197 L237 159 L199 159 L199 197 L237 197 Z" stroke = "#000000" stroke-width = "1" fill = "none" />    <line x1="218" y1="178" x2="218" y2="197" style="stroke:#0000ff;stroke-width:1" />
	<path d = "M218 197 L221 193 L216 193 L218 197 Z" stroke = "#0000ff" stroke-width = "1" fill = "#0000ff" /> M218,178 C218,197 <circle cx="218" cy = "178" r = "1" stroke = "#0000ff" stroke-width = "1" fill = "#0000ff" />
	<path d = "M275 197 L275 159 L237 159 L237 197 L275 197 Z" stroke = "#000000" stroke-width = "1" fill = "none" />    <line x1="256" y1="178" x2="256" y2="169" style="stroke:#000000;stroke-width:1" />
    <line x1="256" y1="178" x2="265" y2="178" style="stroke:#000000;stroke-width:1" />
    <line x1="256" y1="178" x2="256" y2="188" style="stroke:#000000;stroke-width:1" />
    <line x1="256" y1="178" x2="246" y2="178" style="stroke:#000000;stroke-width:1" />
<circle cx="293" cy = "178" r = "9.391435011269722" stroke = "#000000" stroke-width = "1" fill = "none" />
</svg>