<svg width="600" height="600" viewbox = "0 0 600 600"  xmlns="http://www.w3.org/2000/svg">
<!--<json>{
  "glyph": "0226,0326,0225,0320,0333,0314,0336,0331,0333,0331,0313,0333,0314,0337,0222,0330,0330,0336,0322,0334,0313,0336,0332,0337,0342,0335,0336,0331,0332,0337,0342,0333,0332,0332,0332,0332,0332,0330,0330,0330,0334,0326,0342,0335,0331,0333,",
  "x0": 300,
  "y0": 449.9999999999998,
  "unit": 156.92141883605018,
  "width": 600,
  "height": 600,
  "style": {
    "color0": "black",
    "fill0": "black",
    "line0": 1,
    "color1": "black",
    "fill1": "black",
    "line1": 4,
    "color2": "red",
    "fill2": "red",
    "line2": 0.5,
    "color3": "orange",
    "fill3": "orange",
    "line3": 3,
    "color4": "yellow",
    "fill4": "yellow",
    "line4": 0.5,
    "color5": "#00ff00",
    "fill5": "black",
    "line5": 0.5,
    "color6": "blue",
    "fill6": "blue",
    "line6": 3,
    "color7": "purple",
    "fill7": "purple",
    "line7": 2
  },
  "shapes": [
    "0220:0320,0304,0313,0200,0322,0336,0330,0332,0342,0335,0342,0335,0342,0335,0342,0335,0331,0333,0337,0320,",
    "0221:0320,0304,0313,0310,0362,0203,0334,0350,0334,0337,0203,0334,0334,0334,0336,0203,0354,0334,0334,0334,0336,0322,0342,0335,0337,0304,0313,0320,",
    "0222:0320,0362,0203,0203,0334,0314,0336,0203,0334,0337,0203,0203,0334,0336,0203,0354,0334,0334,0322,0333,0342,0333,0342,0333,0342,0333,0342,0333,0342,0335,0331,0331,0331,0331,0331,0337,0320,",
    "0223:0316,0336,0313,0336,0332,0340,0333,0333,0340,0332,0337,0316,0337,0313,",
    "0224:0336,0313,0337,0314,0336,0331,0313,0335,0362,0203,0203,0203,0203,0203,0334,0203,0203,0203,0203,0336,0203,0310,0350,0334,0337,0203,0203,0203,0203,0203,0203,0203,0336,0334,0203,0203,0203,0203,0203,0203,0334,0337,0203,0203,0203,0203,0203,0203,0203,0334,0336,0313,0304,0337,0203,0203,0203,0203,0336,0203,0334,0203,0203,0203,0203,0203,0203,0203,0203,0203,0203,0354,0334,0337,0330,0336,0337,0314,0337,0313,",
    "0225:0330,0330,0314,0336,0330,0313,0331,0331,0336,0332,0337,0335,0201,0362,0333,0333,0330,0330,0330,0330,0334,0336,0332,0330,0331,0203,0354,0335,0335,0337,0362,0203,0203,0203,0203,0336,0203,0364,0335,0337,0335,0332,0332,0332,0332,0332,0332,0332,0332,0362,0203,0203,0203,0203,0336,0203,0364,0362,0333,0333,0333,0333,0333,0333,0333,0330,0330,0203,0364,0335,0334,0331,0331,0331,0331,0331,0331,0331,0331,0332,0332,0331,0332,0331,0332,0331,0332,0332,0331,0332,0334,0337,0362,0203,0335,0203,0203,0203,0203,0336,0203,0310,0350,0335,0337,0203,0203,0203,0203,0203,0203,0203,0335,0336,0203,0203,0203,0203,0203,0203,0335,0337,0203,0203,0203,0203,0203,0203,0203,0335,0336,0313,0304,0337,0203,0203,0203,0203,0336,0203,0335,0203,0203,0364,0335,0330,0332,0332,0332,0332,0330,0332,0332,0332,0332,0337,0314,0337,0313,",
    "0226:0320,0336,0333,0337,0220,0336,0332,0337,0314,0336,0313,0336,0333,0331,0331,0337,0314,0337,0222,0336,0330,0337,0333,0220,0332,0314,0336,0332,0337,0220,0330,0314,0336,0330,0313,0333,0333,0314,0337,0220,0332,0221,0333,0335,0335,0331,0335,0335,0331,0335,0221,0314,0336,0313,0331,0332,0334,0331,0331,0331,0331,0331,0336,0332,0337,0314,0337,0336,0331,0334,0331,0333,0337,0222,0335,0335,0336,0331,0333,0331,0337,0222,0334,0336,0333,0330,0314,0337,0313,",
    "0227:0314,0336,0313,0332,0336,0332,0337,0330,0336,0330,0337,0223,0333,0333,0330,0330,0336,0331,0332,0337,0223,0331,0331,0333,0333,0336,0330,0332,0337,0223,0331,0332,0336,0331,0332,0337,0223,0333,0333,0333,0336,0333,0337,0223,0330,0330,0330,0223,0332,0332,0332,0332,0332,0332,0332,0223,0331,0331,0331,0223,0333,0333,0333,0336,0333,0337,0314,0337,0313,0320,",
    "0230:0313,0334,0336,0330,0335,0335,0305,0334,0337,0311,0337,0362,0203,0335,0335,0203,0335,0350,0335,0336,0203,0363,0313,0336,0331,0304,0335,0337,",
    "0231:0321,0342,0330,0320,0336,0230,0331,0331,0337,0350,0335,0304,",
    "0232:0231,0231,0231,0231,0231,0231,0231,0231,",
    "0233:0220,0336,0210,0232,",
    "0234:0220,0336,0335,0335,0331,0335,0331,0337,0321,0342,0332,0342,0336,0333,0337,0342,0330,0336,0336,0336,0330,0337,0366,0332,0332,0332,0367,0350,0335,0306,0350,0320,0335,0362,0203,0334,0334,0334,0334,0203,0334,0334,0334,0334,0203,0363,0335,0304,0350,0335,0304,0335,0335,0331,0331,0332,01015,0145,0154,0145,0155,0145,0156,0164,040,0144,0157,0167,0156,0365,0330,0330,0330,0330,0330,0333,0333,0333,0336,0332,0337,0333,0337,0337,",
    "0235:0220,0321,0336,0342,0335,0342,0335,0342,0335,0342,0335,0337,",
    "0236:0321,0220,0335,0336,0321,0342,0335,0335,0342,0335,0337,",
    "0237:0220,0336,0331,0332,0336,0321,0342,0335,0342,0335,0342,0335,0342,0335,0330,0330,0333,0333,0337,0337,",
    "01220:0333,0200,0336,0330,0332,0336,0331,0333,0337,0220,0336,0331,0333,0337,0337,",
    "01221:0333,0200,0336,0330,0332,0210,0221,0211,0333,0331,0337,",
    "01222:0333,0200,0336,0330,0332,0210,0222,0211,0333,0331,0337,",
    "01223:0333,0200,0336,0330,0332,0210,0327,0223,0211,0333,0331,0337,0320,",
    "01224:0333,0200,0336,0330,0332,0336,0331,0224,0331,0333,0333,0337,0337,",
    "01225:0333,0200,0336,0330,0332,0336,0331,0225,0331,0333,0333,0337,0337,",
    "01226:0333,0200,0336,0330,0332,0336,0331,0226,0331,0333,0333,0337,0337,",
    "01227:0333,0200,0336,0330,0332,0336,0331,0227,0331,0333,0333,0337,0337,",
    "01230:0333,0200,0336,0330,0332,0210,0230,0211,0333,0331,0320,0337,",
    "01231:0333,0200,0336,0330,0332,0210,0231,0211,",
    "01232:0333,0200,0336,0330,0332,0210,0232,0211,0333,0331,",
    "01233:0333,0200,0336,0330,0332,0210,0233,0211,0333,0331,0337,",
    "01234:0333,0200,0336,0330,0332,0210,0234,0211,0333,0331,0337,",
    "01235:0333,0200,0336,0330,0332,0210,0235,0211,0333,0331,0337,",
    "01236:0333,0200,0336,0330,0332,0210,0236,0211,0333,0331,0337,",
    "01237:0333,0200,0336,0330,0332,0210,0237,0211,0333,0331,0337,",
    "0240:0220,0336,0331,0333,0336,0321,0335,0342,0335,0335,0342,0335,0330,0330,0332,0332,0337,0337,",
    "01240:0333,0200,0336,0330,0332,0210,0240,0211,0333,0331,0337,",
    "0241:0220,0336,0321,0343,0332,0350,0335,0336,0342,0334,0334,0342,0335,0304,0337,0333,0337,",
    "01241:0333,0200,0336,0332,0330,0210,0241,0211,0333,0331,0337,",
    "0242:0220,0321,0336,0343,0333,0336,0350,0335,0342,0334,0334,0342,0335,0337,0304,0332,0337,",
    "01242:0333,0200,0336,0330,0332,0210,0242,0211,0333,0331,0337,",
    "0243:0220,0336,0331,0332,0336,0321,0343,0332,0350,0334,0336,0342,0335,0335,0342,0337,0334,0334,0335,0304,0332,0330,0330,0337,0337,0333,",
    "01243:0333,0200,0336,0330,0332,0210,0243,0211,0333,0331,0337,",
    "0244:0220,0336,0331,0333,0336,0321,0343,0333,0350,0336,0335,0342,0334,0334,0342,0335,0337,0304,0333,0330,0330,0337,0337,0332,",
    "01244:0333,0200,0336,0330,0332,0210,0244,0211,0333,0331,0337,",
    "0245:0210,0332,0332,0362,0335,0203,0203,0203,0203,0334,0203,0363,0332,0332,0331,0211,",
    "01245:0333,0200,0336,0330,0332,0336,0245,0337,0333,0331,0337,",
    "0246:0210,0332,0332,0335,0306,0336,0330,0335,0335,0335,0321,0362,0203,0335,0335,0203,0364,0331,0350,0335,0337,0366,0333,0333,0333,0333,0334,0334,0334,0334,0367,0335,0336,0342,0334,0334,0342,0330,0330,0330,0330,0335,0335,0335,0304,0337,0211,",
    "01246:0333,0200,0336,0330,0332,0336,0246,",
    "0247:0330,0332,0336,0332,0336,0221,0333,0333,0333,0222,0333,0333,0333,0223,0333,0333,0333,0225,0333,0331,0331,0331,0332,0332,0332,0332,0332,0332,0332,0332,0332,0332,0332,0332,0333,0333,0226,0331,0331,0331,0333,0333,0333,0333,0333,0333,0333,0333,0333,0333,0333,0333,0333,0330,0333,0330,0330,0333,0330,0331,0332,0332,0332,0332,0332,0332,0332,0332,0332,0332,0332,0332,0227,0333,0333,0333,0230,0333,0331,0331,0331,0331,0332,0332,0332,0330,0332,0332,0332,0332,0332,0332,0333,0333,0231,0333,0333,0333,0232,0331,0333,0330,0333,0333,0233,0333,0333,0333,0234,0330,0330,0332,0330,0332,0332,0337,0337,",
    "01247:0333,0200,0336,0330,0332,0220,0336,0247,0337,0331,0333,0337,"
  ]
}</json>-->	<path d = "M378 450 L378 293 L222 293 L222 450 L378 450 Z" stroke = "#000000" stroke-width = "1" fill = "none" />    <line x1="300" y1="372" x2="300" y2="293" style="stroke:#ff0000;stroke-width:0.5" />
    <line x1="300" y1="372" x2="378" y2="372" style="stroke:#ff0000;stroke-width:0.5" />
    <line x1="300" y1="372" x2="300" y2="450" style="stroke:#ff0000;stroke-width:0.5" />
    <line x1="300" y1="372" x2="222" y2="372" style="stroke:#ff0000;stroke-width:0.5" />
	<path d = "M326 502 L326 345 L326 188 L274 188 L274 345 L274 502 L326 502 Z" stroke = "#000000" stroke-width = "1" fill = "none" />    <line x1="326" y1="450" x2="274" y2="450" style="stroke:#ff0000;stroke-width:0.5" />
    <line x1="326" y1="398" x2="274" y2="398" style="stroke:#ff0000;stroke-width:0.5" />
    <line x1="326" y1="345" x2="274" y2="345" style="stroke:#ff0000;stroke-width:0.5" />
    <line x1="326" y1="293" x2="274" y2="293" style="stroke:#ff0000;stroke-width:0.5" />
    <line x1="326" y1="241" x2="274" y2="241" style="stroke:#ff0000;stroke-width:0.5" />
	<path d = "M483 450 L483 293 L326 293 L326 450 L483 450 Z" stroke = "#000000" stroke-width = "1" fill = "none" />    <line x1="405" y1="372" x2="405" y2="293" style="stroke:#ff0000;stroke-width:0.5" />
    <line x1="405" y1="372" x2="483" y2="372" style="stroke:#ff0000;stroke-width:0.5" />
    <line x1="405" y1="372" x2="405" y2="450" style="stroke:#ff0000;stroke-width:0.5" />
    <line x1="405" y1="372" x2="326" y2="372" style="stroke:#ff0000;stroke-width:0.5" />
	<path d = "M274 450 L274 293 L117 293 L117 450 L274 450 Z" stroke = "#000000" stroke-width = "1" fill = "none" />    <line x1="195" y1="372" x2="195" y2="293" style="stroke:#ff0000;stroke-width:0.5" />
    <line x1="195" y1="372" x2="274" y2="372" style="stroke:#ff0000;stroke-width:0.5" />
    <line x1="195" y1="372" x2="195" y2="450" style="stroke:#ff0000;stroke-width:0.5" />
    <line x1="195" y1="372" x2="117" y2="372" style="stroke:#ff0000;stroke-width:0.5" />
	<path d = "M378 241 L378 84 L222 84 L222 241 L378 241 Z" stroke = "#000000" stroke-width = "1" fill = "none" />    <line x1="300" y1="162" x2="300" y2="84" style="stroke:#ff0000;stroke-width:0.5" />
    <line x1="300" y1="162" x2="378" y2="162" style="stroke:#ff0000;stroke-width:0.5" />
    <line x1="300" y1="162" x2="300" y2="241" style="stroke:#ff0000;stroke-width:0.5" />
    <line x1="300" y1="162" x2="222" y2="162" style="stroke:#ff0000;stroke-width:0.5" />
	<path d = "M222 241 L222 84 L65 241 L222 241 Z" stroke = "#000000" stroke-width = "1" fill = "none" />    <line x1="222" y1="241" x2="143" y2="162" style="stroke:#ff0000;stroke-width:0.5" />
	<path d = "M378 241 L535 241 L378 84 L378 241 Z" stroke = "#000000" stroke-width = "1" fill = "none" />    <line x1="378" y1="241" x2="457" y2="162" style="stroke:#ff0000;stroke-width:0.5" />
	<path d = "M352 450 L195 450 L38 450 L38 502 L195 502 L352 502 L352 450 Z" stroke = "#000000" stroke-width = "1" fill = "none" />    <line x1="300" y1="450" x2="300" y2="502" style="stroke:#ff0000;stroke-width:0.5" />
    <line x1="248" y1="450" x2="248" y2="502" style="stroke:#ff0000;stroke-width:0.5" />
    <line x1="195" y1="450" x2="195" y2="502" style="stroke:#ff0000;stroke-width:0.5" />
    <line x1="143" y1="450" x2="143" y2="502" style="stroke:#ff0000;stroke-width:0.5" />
    <line x1="91" y1="450" x2="91" y2="502" style="stroke:#ff0000;stroke-width:0.5" />
	<path d = "M248 502 L405 502 L562 502 L562 450 L405 450 L248 450 L248 502 Z" stroke = "#000000" stroke-width = "1" fill = "none" />    <line x1="300" y1="502" x2="300" y2="450" style="stroke:#ff0000;stroke-width:0.5" />
    <line x1="352" y1="502" x2="352" y2="450" style="stroke:#ff0000;stroke-width:0.5" />
    <line x1="405" y1="502" x2="405" y2="450" style="stroke:#ff0000;stroke-width:0.5" />
    <line x1="457" y1="502" x2="457" y2="450" style="stroke:#ff0000;stroke-width:0.5" />
    <line x1="509" y1="502" x2="509" y2="450" style="stroke:#ff0000;stroke-width:0.5" />
    <line x1="274" y1="188" x2="326" y2="188" style="stroke:#0000ff;stroke-width:3" />
	<path d = "M326 188 L509 267 Z" stroke = "#0000ff" stroke-width = "3" fill = "none" />	<path d = "M509 267 L509 319 L509 372 L509 424 L509 476 L509 502 " stroke = "#0000ff" stroke-width = "3" fill = "none" />	<path d = "M91 502 L91 450 L91 398 L91 345 L91 293 L91 267 " stroke = "#0000ff" stroke-width = "3" fill = "none" />	<path d = "M91 267 L274 188 " stroke = "#0000ff" stroke-width = "3" fill = "none" />	<path d = "M91 502 L38 502 L38 450 L38 398 L38 345 L38 293 L38 267 L65 241 L91 215 L117 188 L143 162 L169 136 L195 110 L222 84 L248 84 L274 84 L300 84 L326 84 L352 84 L378 84 L405 110 L431 136 L457 162 L483 188 L509 215 L535 241 L562 267 L562 319 L562 372 L562 424 L562 476 L562 502 L535 502 L509 502 " stroke = "#0000ff" stroke-width = "3" fill = "none" />	<path d = "M562 555 L562 398 L562 241 L509 241 L509 398 L509 555 L562 555 Z" stroke = "#000000" stroke-width = "1" fill = "none" />    <line x1="562" y1="502" x2="509" y2="502" style="stroke:#ff0000;stroke-width:0.5" />
    <line x1="562" y1="450" x2="509" y2="450" style="stroke:#ff0000;stroke-width:0.5" />
    <line x1="562" y1="398" x2="509" y2="398" style="stroke:#ff0000;stroke-width:0.5" />
    <line x1="562" y1="345" x2="509" y2="345" style="stroke:#ff0000;stroke-width:0.5" />
    <line x1="562" y1="293" x2="509" y2="293" style="stroke:#ff0000;stroke-width:0.5" />
    <line x1="562" y1="267" x2="509" y2="267" style="stroke:#ff0000;stroke-width:0.5" />
    <line x1="535" y1="293" x2="535" y2="241" style="stroke:#ff0000;stroke-width:0.5" />
    <line x1="326" y1="136" x2="274" y2="136" style="stroke:#0000ff;stroke-width:3" />
</svg>