<svg width="600" height="600" viewbox = "0 0 600 600"  xmlns="http://www.w3.org/2000/svg">
<!--<json>{
  "glyph": "0321,0224,0330,0335,0335,0335,0224,0334,0334,0330,0334,0334,0335,0335,0335,0224,0330,0334,0330,0332,0335,0335,0226,0306,0335,0335,0330,0334,0330,0334,0330,0335,0330,0335,0225,0330,0334,0330,0334,0225,0330,0334,0330,0334,0225,0335,0331,0335,0335,0342,0335,0331,0335,0335,0330,0334,0330,0335,0330,0334,0334,0331,0335,0227,0306,0333,0330,0227,0335,0335,0305,0330,0334,0330,0334,0330,0334,0330,0334,0350,0353,0350,0334,0304,0335,0335,0227,0330,0305,0350,0350,0334,0336,0117,0110,0210,0365,0211,0335,0337,0331,0335,0335,0335,0331,0305,0334,0331,0306,0335,0331,0334,0330,0336,0210,0110,0304,0336,0331,0336,0332,0337,0337,0365,0336,0336,0333,0337,0330,0337,0306,0211,0337,0304,0331,0306,0333,0335,0335,0335,0305,0304,0313,0232,0330,0335,0335,0336,0336,0332,0337,0110,0365,0336,0333,0337,0337,0330,0306,0335,0331,0335,0331,0335,0304,0232,0330,0335,0335,0336,0336,0332,0337,0110,0365,0336,0333,0337,0337,0330,0306,0335,0331,0335,0331,0334,0331,0334,0331,0335,0331,0334,0336,0304,0117,0110,0332,0332,0336,0331,0337,0365,0333,0333,0336,0330,0337,0337,0306,0333,",
  "x0": 274.86851990984223,
  "y0": 382.64462809917353,
  "unit": 60.10518407212621,
  "width": 600,
  "height": 600,
  "style": {
    "color0": "black",
    "fill0": "black",
    "line0": 1,
    "color1": "black",
    "fill1": "black",
    "line1": 3.5,
    "color2": "red",
    "fill2": "red",
    "line2": 1,
    "color3": "#FF7900",
    "fill3": "#FF7900",
    "line3": 1,
    "color4": "yellow",
    "fill4": "yellow",
    "line4": 1,
    "color5": "green",
    "fill5": "green",
    "line5": 1,
    "color6": "blue",
    "fill6": "blue",
    "line6": 1,
    "color7": "purple",
    "fill7": "purple",
    "line7": 1
  },
  "shapes": [
    "0220:0336,0336,0347,0337,0337,",
    "01220:0333,0200,0336,0330,0332,0220,0331,0333,0337,",
    "0221:0304,0336,0336,0336,0336,0332,0337,0337,0337,0337,0362,0203,0335,0336,0336,0336,0203,0335,0337,0337,0337,0203,0335,0336,0336,0336,0203,0363,0335,0336,0333,0337,0337,0337,0337,0330,0306,",
    "01221:0333,0200,0336,0332,0336,0337,0306,0334,0201,0335,0201,0335,0201,0335,0201,0335,0201,0335,0201,0335,0330,0335,0221,0331,0334,0331,0335,0304,0333,0337,",
    "0222:0304,0336,0336,0336,0336,0332,0337,0337,0337,0337,0312,0337,0362,0203,0335,0336,0313,0336,0336,0336,0203,0335,0337,0337,0337,0312,0337,0203,0335,0336,0313,0336,0336,0336,0203,0363,0335,0336,0333,0337,0337,0337,0337,0306,",
    "01222:0333,0200,0336,0332,0306,0334,0201,0335,0201,0335,0201,0335,0201,0335,0201,0335,0201,0331,0350,0335,0222,0350,0332,0335,0335,0335,0304,0333,0337,",
    "0223:0304,0336,0336,0336,0336,0332,0337,0337,0337,0337,0362,0203,0203,0335,0336,0336,0336,0203,0335,0337,0337,0337,0203,0203,0335,0336,0336,0336,0203,0363,0335,0336,0333,0337,0337,0337,0337,0306,",
    "01223:0333,0200,0336,0332,0306,0334,0201,0335,0201,0335,0201,0335,0201,0335,0201,0335,0201,0335,0335,0223,0304,0333,0337,",
    "0224:0306,0362,0203,0334,0203,0334,0203,0334,0203,0334,0203,0334,0203,0354,0334,",
    "01224:0333,0200,0336,0330,0332,0336,0331,0224,0337,0304,0333,0336,0331,0337,0337,",
    "0225:0224,0334,0335,0336,0336,0336,0332,0362,0203,0203,0203,0203,0203,0203,0203,0364,0333,0337,0337,0337,0331,",
    "01225:0333,0200,0336,0330,0332,0336,0331,0225,0304,0331,0333,0333,0337,0337,",
    "0226:0305,0362,0203,0334,0203,0334,0203,0334,0203,0334,0203,0354,0334,",
    "01226:0333,0200,0336,0330,0332,0336,0331,0226,0313,0304,0331,0333,0333,0337,0337,",
    "0227:0304,0210,0210,0210,0350,0350,0350,0350,0334,0330,0304,0335,0335,0362,0203,0334,0334,0350,0350,0350,0335,0203,0363,0331,0350,0350,0334,0334,0304,0211,0211,0211,",
    "01227:0333,0200,0336,0332,0336,0330,0337,0227,0336,0331,0337,0333,0337,",
    "0230:0210,0336,0336,0336,0331,0335,0331,0337,0342,0336,0330,0334,0337,0337,0337,",
    "01230:0333,0200,",
    "0231:0336,0336,0336,0330,0337,0337,0337,0211,",
    "01231:0333,0200,",
    "0232:0340,0336,0336,0330,0330,0336,0336,0330,0337,0337,0337,0337,0230,0230,0230,0230,0230,0230,0231,0231,0231,0231,0231,0231,0336,0331,0336,0336,0336,0331,0337,0337,0337,0337,",
    "01232:0333,0200,0336,0330,0332,0336,0331,0337,0232,0333,0336,0331,0337,0337,",
    "0233:0342,0336,0330,0336,0336,0331,0334,0306,0362,0203,0335,0335,0203,0203,0335,0335,0203,0203,0335,0335,0203,0363,0330,0335,0335,0330,0330,0335,0331,0337,0342,0336,0330,0334,0337,0331,0336,0333,0335,0304,0334,0331,0331,0331,0337,0337,0337,0330,",
    "01233:0333,0200,0336,0330,0332,0336,0331,0337,0233,0331,0336,0333,0333,0331,0337,0337,",
    "0234:0201,0336,0331,0350,0335,0336,0331,0337,0342,0336,0330,0334,0334,0331,0337,0342,0336,0330,0335,0337,0331,0304,0337,0330,",
    "01234:0333,0200,0336,0330,0332,0336,0331,0333,0332,0337,0234,0333,0331,0336,0331,0337,0337,",
    "0235:0331,0221,0333,0335,0335,0221,0335,0335,0330,",
    "01235:0333,0200,0336,0330,0332,0336,0332,0330,0337,0235,0331,0336,0333,0331,0337,0337,",
    "0236:0201,0336,0336,0334,0306,0362,0336,0203,0335,0335,0203,0203,0335,0335,0203,0203,0335,0335,0203,0363,0304,0335,0337,0337,0337,0331,",
    "01236:0333,0200,0336,0330,0332,0336,0331,0337,0236,0336,0333,0331,0333,0337,0337,",
    "0237:0304,0336,0336,0336,0332,0337,0337,0337,0342,0336,0336,0333,0337,0337,0342,0330,0336,0336,0336,0332,0337,0337,0337,0220,0306,",
    "01237:0333,0200,0336,0330,0332,0336,0220,0237,0304,0333,0333,0330,0337,0337,0331,"
  ]
}</json>-->	<path d = "M275 383 L275 323 L223 292 L171 323 L171 383 L223 413 L275 383 Z" stroke = "#000000" stroke-width = "3.5" fill = "none" />	<path d = "M275 323 L275 383 L327 413 L379 383 L379 323 L327 292 L275 323 Z" stroke = "#000000" stroke-width = "3.5" fill = "none" />	<path d = "M327 292 L379 323 L431 292 L431 232 L379 202 L327 232 L327 292 Z" stroke = "#000000" stroke-width = "3.5" fill = "none" />	<path d = "M431 232 L431 292 L488 311 L524 262 L488 214 L431 232 Z" stroke = "#000000" stroke-width = "3.5" fill = "none" />	<path d = "M275 323 L223 292 L171 323 L171 383 L223 413 L275 383 L275 323 Z" stroke = "#000000" stroke-width = "3.5" fill = "none" />	<path d = "M268 326 L262 323 L255 319 L249 315 L242 311 L236 308 L229 304 L223 300 " stroke = "#000000" stroke-width = "3.5" fill = "none" />	<path d = "M171 323 L171 383 L223 413 L275 383 L275 323 L223 292 L171 323 Z" stroke = "#000000" stroke-width = "3.5" fill = "none" />	<path d = "M177 326 L177 334 L177 341 L177 349 L177 356 L177 364 L177 371 L177 379 " stroke = "#000000" stroke-width = "3.5" fill = "none" />	<path d = "M223 413 L275 383 L275 323 L223 292 L171 323 L171 383 L223 413 Z" stroke = "#000000" stroke-width = "3.5" fill = "none" />	<path d = "M223 405 L229 401 L236 398 L242 394 L249 390 L255 386 L262 383 L268 379 " stroke = "#000000" stroke-width = "3.5" fill = "none" />    <line x1="171" y1="383" x2="119" y2="413" style="stroke:#000000;stroke-width:3.5" />
	<path d = "M375 283 L379 323 L383 283 Z" stroke = "#000000" stroke-width = "3.5" fill = "#000000" />	<path d = "M427 192 L431 232 L435 192 Z" stroke = "#000000" stroke-width = "3.5" fill = "#000000" />	<path d = "M497 175 L488 214 L504 177 Z" stroke = "#000000" stroke-width = "3.5" fill = "#000000" />    <text x="507" y = "157" fill = "#000000" font-size = "26.2669285919652px" font-family = "Arial">OH</text>
    <text x="372" y = "276" fill = "#000000" font-size = "26.2669285919652px" font-family = "Arial">H</text>
<circle cx="431" cy = "292" r = "3.5" stroke = "#000000" stroke-width = "3.5" fill = "#000000" />
    <line x1="438" y1="320" x2="424" y2="320" style="stroke:#000000;stroke-width:3.5" />
    <line x1="437" y1="314" x2="425" y2="314" style="stroke:#000000;stroke-width:3.5" />
    <line x1="436" y1="309" x2="426" y2="309" style="stroke:#000000;stroke-width:3.5" />
    <line x1="435" y1="305" x2="427" y2="305" style="stroke:#000000;stroke-width:3.5" />
    <line x1="435" y1="301" x2="427" y2="301" style="stroke:#000000;stroke-width:3.5" />
    <line x1="434" y1="297" x2="428" y2="297" style="stroke:#000000;stroke-width:3.5" />
    <text x="416" y = "353" fill = "#000000" font-size = "30.052592036063107px" font-family = "Arial">H</text>
<circle cx="327" cy = "292" r = "3.5" stroke = "#000000" stroke-width = "3.5" fill = "#000000" />
    <line x1="333" y1="320" x2="320" y2="320" style="stroke:#000000;stroke-width:3.5" />
    <line x1="333" y1="314" x2="321" y2="314" style="stroke:#000000;stroke-width:3.5" />
    <line x1="332" y1="309" x2="322" y2="309" style="stroke:#000000;stroke-width:3.5" />
    <line x1="331" y1="305" x2="323" y2="305" style="stroke:#000000;stroke-width:3.5" />
    <line x1="331" y1="301" x2="323" y2="301" style="stroke:#000000;stroke-width:3.5" />
    <line x1="330" y1="297" x2="324" y2="297" style="stroke:#000000;stroke-width:3.5" />
    <text x="312" y = "353" fill = "#000000" font-size = "30.052592036063107px" font-family = "Arial">H</text>
    <text x="59" y = "428" fill = "#000000" font-size = "30.052592036063107px" font-family = "Arial">OH</text>
</svg>