<svg width="400" height="400" viewbox = "0 0 400 400"  xmlns="http://www.w3.org/2000/svg">
<!--<json>{
  "glyph": "0332,0332,0332,0332,0332,0331,01306,01312,01201,01334,01201,01334,01201,01334,01201,01334,0331,0332,0332,0332,0332,0332,0332,0332,0332,0332,0332,0336,0331,0337,01201,01334,01201,01334,01350,01334,01337,01306,01201,01334,0331,0332,0332,0332,0332,0332,0332,0332,0332,0332,0332,0336,0331,0337,01334,01201,01334,01334,01201,01350,01334,01336,01331,01334,0331,0332,0332,0332,0332,0332,0332,0332,0332,0332,0332,0336,0331,0337,01337,01306,01201,01334,01334,01201,01334,01334,01201,0336,0330,0333,0336,0341,0337,0331,0332,0337,0330,0330,0330,0330,0330,0330,0332,0332,0332,0332,0306,0321,0335,0337,0362,0203,0334,0203,0334,0203,0334,0203,0334,0203,0334,0203,0354,0334,0350,0312,0334,0337,0201,0334,0334,0334,0334,0201,0334,0334,0334,0334,0201,0334,0336,0331,0334,0334,0334,0337,0201,0335,0335,0335,0335,0201,0335,0335,0335,0335,0201,",
  "x0": 200,
  "y0": 183.45,
  "unit": 37.56574004507888,
  "width": 400,
  "height": 400,
  "style": {
    "color0": "black",
    "fill0": "black",
    "line0": 1,
    "color1": "black",
    "fill1": "black",
    "line1": 5,
    "color2": "red",
    "fill2": "red",
    "line2": 1,
    "color3": "#FF7900",
    "fill3": "#FF7900",
    "line3": 1,
    "color4": "yellow",
    "fill4": "yellow",
    "line4": 1,
    "color5": "green",
    "fill5": "green",
    "line5": 1,
    "color6": "blue",
    "fill6": "blue",
    "line6": 1,
    "color7": "purple",
    "fill7": "purple",
    "line7": 1
  },
  "shapes": [
    "01220:0333,0200,0336,0330,0332,0336,0332,060,062,062,060,0365,0333,0333,0331,0331,0333,0337,0337,",
    "01221:0333,0200,0336,0330,0332,0336,0332,060,062,062,061,0365,0333,0333,0331,0331,0333,0337,0337,",
    "01222:0333,0200,0336,0330,0332,0336,0332,060,062,062,062,0365,0333,0333,0331,0331,0333,0337,0337,",
    "01223:0333,0200,0336,0330,0332,0336,0332,060,062,062,063,0365,0333,0333,0331,0331,0333,0337,0337,",
    "01224:0333,0200,0336,0330,0332,0336,0332,060,062,062,064,0365,0333,0333,0331,0331,0333,0337,0337,",
    "01225:0333,0200,0336,0330,0332,0336,0332,060,062,062,065,0365,0333,0333,0331,0331,0333,0337,0337,",
    "01226:0333,0200,0336,0330,0332,0336,0332,060,062,062,066,0365,0333,0333,0331,0331,0333,0337,0337,",
    "01227:0333,0200,0336,0330,0332,0336,0332,060,062,062,067,0365,0333,0333,0331,0331,0333,0337,0337,",
    "01230:0333,0200,0336,0330,0332,0336,0332,060,062,063,060,0365,0333,0333,0331,0331,0333,0337,0337,",
    "01231:0333,0200,0336,0330,0332,0336,0332,060,062,063,061,0365,0333,0333,0331,0331,0333,0337,0337,",
    "01232:0333,0200,0336,0330,0332,0336,0332,060,062,063,062,0365,0333,0333,0331,0331,0333,0337,0337,",
    "01233:0333,0200,0336,0330,0332,0336,0332,060,062,063,063,0365,0333,0333,0331,0331,0333,0337,0337,",
    "01234:0333,0200,0336,0330,0332,0336,0332,060,062,063,064,0365,0333,0333,0331,0331,0333,0337,0337,",
    "01235:0333,0200,0336,0330,0332,0336,0332,060,062,063,065,0365,0333,0333,0331,0331,0333,0337,0337,",
    "01236:0333,0200,0336,0330,0332,0336,0332,060,062,063,066,0365,0333,0333,0331,0331,0333,0337,0337,",
    "01237:0333,0200,0336,0330,0332,0336,0332,060,062,063,067,0365,0333,0333,0331,0331,0333,0337,0337,"
  ]
}</json>-->	<path d = "M50 221 L50 183 L12 183 L12 221 L50 221 Z" stroke = "#000000" stroke-width = "1" fill = "none" />    <line x1="31" y1="202" x2="31" y2="183" style="stroke:#000000;stroke-width:1" />
    <line x1="31" y1="202" x2="47" y2="193" style="stroke:#000000;stroke-width:1" />
    <line x1="31" y1="202" x2="47" y2="212" style="stroke:#000000;stroke-width:1" />
    <line x1="31" y1="202" x2="31" y2="221" style="stroke:#000000;stroke-width:1" />
    <line x1="31" y1="202" x2="15" y2="212" style="stroke:#000000;stroke-width:1" />
<circle cx="31" cy = "202" r = "18.78287002253944" stroke = "#000000" stroke-width = "1" fill = "none" />
<circle cx="26" cy = "194" r = "2.34785875281743" stroke = "#000000" stroke-width = "1" fill = "none" />
<circle cx="36" cy = "194" r = "2.34785875281743" stroke = "#000000" stroke-width = "1" fill = "none" />
<circle cx="40" cy = "202" r = "2.34785875281743" stroke = "#000000" stroke-width = "1" fill = "none" />
<circle cx="36" cy = "210" r = "2.34785875281743" stroke = "#000000" stroke-width = "1" fill = "none" />
<circle cx="26" cy = "210" r = "2.34785875281743" stroke = "#000000" stroke-width = "1" fill = "none" />
    <line x1="31" y1="202" x2="15" y2="193" style="stroke:#000000;stroke-width:1" />
<circle cx="22" cy = "202" r = "2.34785875281743" stroke = "#000000" stroke-width = "1" fill = "none" />
	<path d = "M87 221 L87 183 L50 183 L50 221 L87 221 Z" stroke = "#000000" stroke-width = "1" fill = "none" />	<path d = "M87 221 L69 188 L50 221 " stroke = "#000000" stroke-width = "1" fill = "none" />    <line x1="69" y1="210" x2="69" y2="188" style="stroke:#000000;stroke-width:1" />
    <line x1="69" y1="210" x2="87" y2="221" style="stroke:#000000;stroke-width:1" />
    <line x1="69" y1="210" x2="50" y2="221" style="stroke:#000000;stroke-width:1" />
	<path d = "M125 221 L125 183 L87 183 L87 221 L125 221 Z" stroke = "#000000" stroke-width = "1" fill = "none" />    <line x1="97" y1="202" x2="115" y2="202" style="stroke:#000000;stroke-width:1" />
    <line x1="115" y1="202" x2="112" y2="206" style="stroke:#000000;stroke-width:1" />
    <line x1="115" y1="202" x2="112" y2="199" style="stroke:#000000;stroke-width:1" />
	<path d = "M162 221 L162 183 L125 183 L125 221 L162 221 Z" stroke = "#000000" stroke-width = "1" fill = "none" />  <path d="M137.01064255084003 195.5921226409976           A9.39143501126972 9.39143501126972 0 0 1 150.29213731392318 195.59212264099756" fill = "none" stroke = "#000000" stroke-width = "1" />
  <path d="M137.01064255084006 208.87361740408073           A9.39143501126972 9.39143501126972 0 0 1 137.01064255084003 195.5921226409976" fill = "none" stroke = "#000000" stroke-width = "1" />
  <path d="M150.2921373139232 208.8736174040807           A9.39143501126972 9.39143501126972 0 0 1 137.01064255084006 208.87361740408073" fill = "none" stroke = "#000000" stroke-width = "1" />
	<path d = "M147 218 L150 209 L142 205 " stroke = "#000000" stroke-width = "1" fill = "none" />	<path d = "M200 221 L200 183 L162 183 L162 221 L200 221 Z" stroke = "#000000" stroke-width = "1" fill = "none" />    <line x1="172" y1="202" x2="191" y2="202" style="stroke:#000000;stroke-width:1" />
    <line x1="191" y1="202" x2="187" y2="206" style="stroke:#000000;stroke-width:1" />
    <line x1="191" y1="202" x2="187" y2="199" style="stroke:#000000;stroke-width:1" />
	<path d = "M238 221 L238 183 L200 183 L200 221 L238 221 Z" stroke = "#000000" stroke-width = "1" fill = "none" />  <path d="M212.14212264099783 195.59212264099742           A9.39143501126972 9.39143501126972 0 0 1 225.42361740408097 195.5921226409974" fill = "none" stroke = "#000000" stroke-width = "1" />
  <path d="M212.14212264099785 208.8736174040806           A9.39143501126972 9.39143501126972 0 0 1 212.14212264099783 195.59212264099742" fill = "none" stroke = "#000000" stroke-width = "1" />
  <path d="M225.42361740408103 208.8736174040805           A9.39143501126972 9.39143501126972 0 0 1 212.14212264099785 208.8736174040806" fill = "none" stroke = "#000000" stroke-width = "1" />
	<path d = "M222 218 L225 209 L217 205 " stroke = "#000000" stroke-width = "1" fill = "none" />	<path d = "M275 221 L275 183 L238 183 L238 221 L275 221 Z" stroke = "#000000" stroke-width = "1" fill = "none" />    <line x1="247" y1="202" x2="266" y2="202" style="stroke:#000000;stroke-width:1" />
    <line x1="266" y1="202" x2="262" y2="206" style="stroke:#000000;stroke-width:1" />
    <line x1="266" y1="202" x2="262" y2="199" style="stroke:#000000;stroke-width:1" />
	<path d = "M313 221 L313 183 L275 183 L275 221 L313 221 Z" stroke = "#000000" stroke-width = "1" fill = "none" />  <path d="M287.2736027311556 195.5921226409972           A9.39143501126972 9.39143501126972 0 0 1 300.55509749423874 195.59212264099713" fill = "none" stroke = "#000000" stroke-width = "1" />
  <path d="M287.2736027311557 208.87361740408036           A9.39143501126972 9.39143501126972 0 0 1 287.2736027311556 195.5921226409972" fill = "none" stroke = "#000000" stroke-width = "1" />
  <path d="M300.55509749423885 208.87361740408028           A9.39143501126972 9.39143501126972 0 0 1 287.2736027311557 208.87361740408036" fill = "none" stroke = "#000000" stroke-width = "1" />
	<path d = "M297 218 L301 209 L292 205 " stroke = "#000000" stroke-width = "1" fill = "none" />	<path d = "M350 221 L350 183 L313 183 L313 221 L350 221 Z" stroke = "#000000" stroke-width = "1" fill = "none" />    <line x1="322" y1="202" x2="341" y2="202" style="stroke:#000000;stroke-width:1" />
    <line x1="341" y1="202" x2="338" y2="206" style="stroke:#000000;stroke-width:1" />
    <line x1="341" y1="202" x2="338" y2="199" style="stroke:#000000;stroke-width:1" />
	<path d = "M388 221 L388 183 L350 183 L350 221 L388 221 Z" stroke = "#000000" stroke-width = "1" fill = "none" />  <path d="M362.4050828213135 195.5921226409971           A9.39143501126972 9.39143501126972 0 0 1 375.6865775843967 195.59212264099708" fill = "none" stroke = "#000000" stroke-width = "1" />
  <path d="M362.40508282131356 208.87361740408028           A9.39143501126972 9.39143501126972 0 0 1 362.4050828213135 195.5921226409971" fill = "none" stroke = "#000000" stroke-width = "1" />
  <path d="M375.6865775843967 208.87361740408022           A9.39143501126972 9.39143501126972 0 0 1 362.40508282131356 208.87361740408028" fill = "none" stroke = "#000000" stroke-width = "1" />
	<path d = "M372 218 L376 209 L367 205 " stroke = "#000000" stroke-width = "1" fill = "none" />	<path d = "M50 277 L50 240 L12 240 L12 277 L50 277 Z" stroke = "#000000" stroke-width = "1" fill = "none" />    <line x1="22" y1="259" x2="40" y2="259" style="stroke:#000000;stroke-width:1" />
    <line x1="40" y1="259" x2="37" y2="262" style="stroke:#000000;stroke-width:1" />
    <line x1="40" y1="259" x2="37" y2="255" style="stroke:#000000;stroke-width:1" />
	<path d = "M87 277 L87 240 L50 240 L50 277 L87 277 Z" stroke = "#000000" stroke-width = "1" fill = "none" />  <path d="M61.87916246068279 251.94073270861867           A9.39143501126972 9.39143501126972 0 0 1 75.16065722376597 251.94073270861847" fill = "none" stroke = "#000000" stroke-width = "1" />
  <path d="M61.87916246068301 265.22222747170184           A9.39143501126972 9.39143501126972 0 0 1 61.87916246068279 251.94073270861867" fill = "none" stroke = "#000000" stroke-width = "1" />
  <path d="M75.16065722376618 265.2222274717016           A9.39143501126972 9.39143501126972 0 0 1 61.87916246068301 265.22222747170184" fill = "none" stroke = "#000000" stroke-width = "1" />
	<path d = "M72 274 L75 265 L66 262 " stroke = "#000000" stroke-width = "1" fill = "none" />	<path d = "M125 277 L125 240 L87 240 L87 277 L125 277 Z" stroke = "#000000" stroke-width = "1" fill = "none" />    <line x1="97" y1="259" x2="115" y2="259" style="stroke:#000000;stroke-width:1" />
    <line x1="115" y1="259" x2="112" y2="262" style="stroke:#000000;stroke-width:1" />
    <line x1="115" y1="259" x2="112" y2="255" style="stroke:#000000;stroke-width:1" />
	<path d = "M162 277 L162 240 L125 240 L125 277 L162 277 Z" stroke = "#000000" stroke-width = "1" fill = "none" />  <path d="M137.01064255084052 251.9407327086173           A9.39143501126972 9.39143501126972 0 0 1 150.29213731392363 251.94073270861693" fill = "none" stroke = "#000000" stroke-width = "1" />
  <path d="M137.01064255084083 265.2222274717004           A9.39143501126972 9.39143501126972 0 0 1 137.01064255084052 251.9407327086173" fill = "none" stroke = "#000000" stroke-width = "1" />
  <path d="M150.29213731392394 265.2222274717002           A9.39143501126972 9.39143501126972 0 0 1 137.01064255084083 265.2222274717004" fill = "none" stroke = "#000000" stroke-width = "1" />
	<path d = "M147 274 L150 265 L142 262 " stroke = "#000000" stroke-width = "1" fill = "none" />	<path d = "M200 277 L200 240 L162 240 L162 277 L200 277 Z" stroke = "#000000" stroke-width = "1" fill = "none" />	<path d = "M194 245 L181 259 L194 272 " stroke = "#000000" stroke-width = "1" fill = "none" />    <line x1="181" y1="259" x2="186" y2="259" style="stroke:#000000;stroke-width:1" />
    <line x1="191" y1="259" x2="195" y2="259" style="stroke:#000000;stroke-width:1" />
	<path d = "M238 277 L238 240 L200 240 L200 277 L238 277 Z" stroke = "#000000" stroke-width = "1" fill = "none" />  <path d="M212.1421226409982 251.94073270861531           A9.39143501126972 9.39143501126972 0 0 1 225.4236174040813 251.94073270861475" fill = "none" stroke = "#000000" stroke-width = "1" />
  <path d="M212.14212264099868 265.22222747169843           A9.39143501126972 9.39143501126972 0 0 1 212.1421226409982 251.94073270861531" fill = "none" stroke = "#000000" stroke-width = "1" />
  <path d="M225.42361740408182 265.222227471698           A9.39143501126972 9.39143501126972 0 0 1 212.14212264099868 265.22222747169843" fill = "none" stroke = "#000000" stroke-width = "1" />
	<path d = "M222 274 L225 265 L217 262 " stroke = "#000000" stroke-width = "1" fill = "none" />	<path d = "M275 277 L275 240 L238 240 L238 277 L275 277 Z" stroke = "#000000" stroke-width = "1" fill = "none" />    <line x1="256" y1="259" x2="256" y2="249" style="stroke:#000000;stroke-width:1" />
    <line x1="256" y1="259" x2="247" y2="259" style="stroke:#000000;stroke-width:1" />
    <line x1="256" y1="259" x2="256" y2="268" style="stroke:#000000;stroke-width:1" />
    <line x1="256" y1="259" x2="266" y2="259" style="stroke:#000000;stroke-width:1" />
	<path d = "M313 277 L313 240 L275 240 L275 277 L313 277 Z" stroke = "#000000" stroke-width = "1" fill = "none" />    <line x1="294" y1="259" x2="294" y2="240" style="stroke:#000000;stroke-width:1" />
    <line x1="294" y1="259" x2="310" y2="249" style="stroke:#000000;stroke-width:1" />
    <line x1="294" y1="259" x2="310" y2="268" style="stroke:#000000;stroke-width:1" />
    <line x1="294" y1="259" x2="294" y2="277" style="stroke:#000000;stroke-width:1" />
    <line x1="294" y1="259" x2="278" y2="268" style="stroke:#000000;stroke-width:1" />
<circle cx="294" cy = "259" r = "18.78287002253944" stroke = "#000000" stroke-width = "1" fill = "none" />
<circle cx="289" cy = "250" r = "2.34785875281743" stroke = "#000000" stroke-width = "1" fill = "none" />
<circle cx="299" cy = "250" r = "2.34785875281743" stroke = "#000000" stroke-width = "1" fill = "none" />
<circle cx="303" cy = "259" r = "2.34785875281743" stroke = "#000000" stroke-width = "1" fill = "none" />
<circle cx="299" cy = "267" r = "2.34785875281743" stroke = "#000000" stroke-width = "1" fill = "none" />
<circle cx="289" cy = "267" r = "2.34785875281743" stroke = "#000000" stroke-width = "1" fill = "none" />
    <line x1="294" y1="259" x2="278" y2="249" style="stroke:#000000;stroke-width:1" />
<circle cx="285" cy = "259" r = "2.34785875281743" stroke = "#000000" stroke-width = "1" fill = "none" />
	<path d = "M350 277 L350 240 L313 240 L313 277 L350 277 Z" stroke = "#000000" stroke-width = "1" fill = "none" />    <line x1="322" y1="259" x2="341" y2="259" style="stroke:#000000;stroke-width:1" />
    <line x1="341" y1="259" x2="338" y2="262" style="stroke:#000000;stroke-width:1" />
    <line x1="341" y1="259" x2="338" y2="255" style="stroke:#000000;stroke-width:1" />
	<path d = "M388 277 L388 240 L350 240 L350 277 L388 277 Z" stroke = "#000000" stroke-width = "1" fill = "none" />  <path d="M362.4050828213134 251.940732708607           A9.39143501126972 9.39143501126972 0 0 1 375.6865775843965 251.94073270860588" fill = "none" stroke = "#000000" stroke-width = "1" />
  <path d="M362.4050828213144 265.22222747169013           A9.39143501126972 9.39143501126972 0 0 1 362.4050828213134 251.940732708607" fill = "none" stroke = "#000000" stroke-width = "1" />
  <path d="M375.6865775843975 265.22222747168917           A9.39143501126972 9.39143501126972 0 0 1 362.4050828213144 265.22222747169013" fill = "none" stroke = "#000000" stroke-width = "1" />
	<path d = "M372 274 L376 265 L367 262 " stroke = "#000000" stroke-width = "1" fill = "none" />	<path d = "M50 334 L50 296 L12 296 L12 334 L50 334 Z" stroke = "#000000" stroke-width = "1" fill = "none" />  <path d="M24.313422415607974 308.2893427762547           A9.39143501126972 9.39143501126972 0 0 1 37.5949171786911 308.2893427762535" fill = "none" stroke = "#000000" stroke-width = "1" />
  <path d="M24.313422415609118 321.57083753933784           A9.39143501126972 9.39143501126972 0 0 1 24.313422415607974 308.2893427762547" fill = "none" stroke = "#000000" stroke-width = "1" />
  <path d="M37.59491717869224 321.57083753933676           A9.39143501126972 9.39143501126972 0 0 1 24.313422415609118 321.57083753933784" fill = "none" stroke = "#000000" stroke-width = "1" />
	<path d = "M34 330 L38 322 L29 318 " stroke = "#000000" stroke-width = "1" fill = "none" />	<path d = "M87 334 L87 296 L50 296 L50 334 L87 334 Z" stroke = "#000000" stroke-width = "1" fill = "none" />    <line x1="59" y1="315" x2="78" y2="315" style="stroke:#000000;stroke-width:1" />
    <line x1="78" y1="315" x2="75" y2="318" style="stroke:#000000;stroke-width:1" />
    <line x1="78" y1="315" x2="75" y2="312" style="stroke:#000000;stroke-width:1" />
	<path d = "M125 334 L125 296 L87 296 L87 334 L125 334 Z" stroke = "#000000" stroke-width = "1" fill = "none" />  <path d="M99.44490250576573 308.2893427762478           A9.39143501126972 9.39143501126972 0 0 1 112.72639726884884 308.2893427762469" fill = "none" stroke = "#000000" stroke-width = "1" />
  <path d="M99.44490250576658 321.5708375393309           A9.39143501126972 9.39143501126972 0 0 1 99.44490250576573 308.2893427762478" fill = "none" stroke = "#000000" stroke-width = "1" />
  <path d="M112.72639726884971 321.5708375393301           A9.39143501126972 9.39143501126972 0 0 1 99.44490250576658 321.5708375393309" fill = "none" stroke = "#000000" stroke-width = "1" />
	<path d = "M109 330 L113 322 L104 318 " stroke = "#000000" stroke-width = "1" fill = "none" />	<path d = "M162 334 L162 296 L125 296 L125 334 L162 334 Z" stroke = "#000000" stroke-width = "1" fill = "none" />  <path d="M137.01064255084464 308.2893427762446           A9.39143501126972 9.39143501126972 0 0 1 150.29213731392775 308.289342776244" fill = "none" stroke = "#000000" stroke-width = "1" />
  <path d="M137.0106425508452 321.5708375393278           A9.39143501126972 9.39143501126972 0 0 1 137.01064255084464 308.2893427762446" fill = "none" stroke = "#000000" stroke-width = "1" />
  <path d="M150.29213731392832 321.5708375393273           A9.39143501126972 9.39143501126972 0 0 1 137.0106425508452 321.5708375393278" fill = "none" stroke = "#000000" stroke-width = "1" />
	<path d = "M147 330 L150 322 L142 318 " stroke = "#000000" stroke-width = "1" fill = "none" />	<path d = "M200 334 L200 296 L162 296 L162 334 L200 334 Z" stroke = "#000000" stroke-width = "1" fill = "none" />    <line x1="172" y1="315" x2="191" y2="315" style="stroke:#000000;stroke-width:1" />
    <line x1="191" y1="315" x2="187" y2="318" style="stroke:#000000;stroke-width:1" />
    <line x1="191" y1="315" x2="187" y2="312" style="stroke:#000000;stroke-width:1" />
	<path d = "M238 334 L238 296 L200 296 L200 334 L238 334 Z" stroke = "#000000" stroke-width = "1" fill = "none" />	<path d = "M232 302 L219 315 L232 328 " stroke = "#000000" stroke-width = "1" fill = "none" />    <line x1="219" y1="315" x2="223" y2="315" style="stroke:#000000;stroke-width:1" />
    <line x1="228" y1="315" x2="233" y2="315" style="stroke:#000000;stroke-width:1" />
	<path d = "M275 334 L275 296 L238 296 L238 334 L275 334 Z" stroke = "#000000" stroke-width = "1" fill = "none" />  <path d="M249.7078626860815 308.28934277623864           A9.39143501126972 9.39143501126972 0 0 1 262.98935744916463 308.2893427762386" fill = "none" stroke = "#000000" stroke-width = "1" />
  <path d="M249.7078626860815 321.5708375393218           A9.39143501126972 9.39143501126972 0 0 1 249.7078626860815 308.28934277623864" fill = "none" stroke = "#000000" stroke-width = "1" />
  <path d="M262.98935744916463 321.5708375393219           A9.39143501126972 9.39143501126972 0 0 1 249.7078626860815 321.5708375393218" fill = "none" stroke = "#000000" stroke-width = "1" />
	<path d = "M259 330 L263 322 L254 318 " stroke = "#000000" stroke-width = "1" fill = "none" />	<path d = "M313 334 L313 296 L275 296 L275 334 L313 334 Z" stroke = "#000000" stroke-width = "1" fill = "none" />    <line x1="303" y1="315" x2="285" y2="315" style="stroke:#000000;stroke-width:1" />
	<path d = "M350 334 L350 296 L313 296 L313 334 L350 334 Z" stroke = "#000000" stroke-width = "1" fill = "none" />	<path d = "M327 306 L336 306 L336 315 L341 315 L336 320 L331 324 L327 320 L322 315 L327 315 L327 306 Z" stroke = "#000000" stroke-width = "1" fill = "none" />	<path d = "M388 334 L388 296 L350 296 L350 334 L388 334 Z" stroke = "#000000" stroke-width = "1" fill = "none" />  <path d="M362.405082821318 308.2893427762379           A9.391435011269722 9.391435011269722 0 0 1 375.6865775844011 308.28934277623813" fill = "none" stroke = "#000000" stroke-width = "1" />
  <path d="M362.4050828213177 321.570837539321           A9.391435011269722 9.391435011269722 0 0 1 362.405082821318 308.2893427762379" fill = "none" stroke = "#000000" stroke-width = "1" />
  <path d="M375.6865775844008 321.57083753932136           A9.391435011269722 9.391435011269722 0 0 1 362.4050828213177 321.570837539321" fill = "none" stroke = "#000000" stroke-width = "1" />
	<path d = "M372 330 L376 322 L367 318 " stroke = "#000000" stroke-width = "1" fill = "none" />	<path d = "M50 390 L50 352 L12 352 L12 390 L50 390 Z" stroke = "#000000" stroke-width = "1" fill = "none" />    <line x1="31" y1="371" x2="31" y2="362" style="stroke:#000000;stroke-width:1" />
    <line x1="31" y1="371" x2="22" y2="371" style="stroke:#000000;stroke-width:1" />
    <line x1="31" y1="371" x2="31" y2="381" style="stroke:#000000;stroke-width:1" />
    <line x1="31" y1="371" x2="40" y2="371" style="stroke:#000000;stroke-width:1" />
	<path d = "M87 390 L87 352 L50 352 L50 390 L87 390 Z" stroke = "#000000" stroke-width = "1" fill = "none" />    <line x1="69" y1="371" x2="69" y2="352" style="stroke:#000000;stroke-width:1" />
    <line x1="69" y1="371" x2="85" y2="362" style="stroke:#000000;stroke-width:1" />
    <line x1="69" y1="371" x2="85" y2="381" style="stroke:#000000;stroke-width:1" />
    <line x1="69" y1="371" x2="69" y2="390" style="stroke:#000000;stroke-width:1" />
    <line x1="69" y1="371" x2="52" y2="381" style="stroke:#000000;stroke-width:1" />
<circle cx="69" cy = "371" r = "18.782870022539445" stroke = "#000000" stroke-width = "1" fill = "none" />
<circle cx="64" cy = "363" r = "2.3478587528174306" stroke = "#000000" stroke-width = "1" fill = "none" />
<circle cx="73" cy = "363" r = "2.3478587528174306" stroke = "#000000" stroke-width = "1" fill = "none" />
<circle cx="78" cy = "371" r = "2.3478587528174306" stroke = "#000000" stroke-width = "1" fill = "none" />
<circle cx="73" cy = "379" r = "2.3478587528174306" stroke = "#000000" stroke-width = "1" fill = "none" />
<circle cx="64" cy = "379" r = "2.3478587528174306" stroke = "#000000" stroke-width = "1" fill = "none" />
    <line x1="69" y1="371" x2="52" y2="362" style="stroke:#000000;stroke-width:1" />
<circle cx="59" cy = "371" r = "2.3478587528174306" stroke = "#000000" stroke-width = "1" fill = "none" />
	<path d = "M125 390 L125 352 L87 352 L87 390 L125 390 Z" stroke = "#000000" stroke-width = "1" fill = "none" />    <line x1="97" y1="371" x2="115" y2="371" style="stroke:#000000;stroke-width:1" />
    <line x1="115" y1="371" x2="112" y2="375" style="stroke:#000000;stroke-width:1" />
    <line x1="115" y1="371" x2="112" y2="368" style="stroke:#000000;stroke-width:1" />
	<path d = "M162 390 L162 352 L125 352 L125 390 L162 390 Z" stroke = "#000000" stroke-width = "1" fill = "none" />  <path d="M137.01064255084455 364.63795284385907           A9.391435011269722 9.391435011269722 0 0 1 150.29213731392767 364.63795284386117" fill = "none" stroke = "#000000" stroke-width = "1" />
  <path d="M137.01064255084236 377.9194476069422           A9.391435011269722 9.391435011269722 0 0 1 137.01064255084455 364.63795284385907" fill = "none" stroke = "#000000" stroke-width = "1" />
  <path d="M150.2921373139255 377.91944760694446           A9.391435011269722 9.391435011269722 0 0 1 137.01064255084236 377.9194476069422" fill = "none" stroke = "#000000" stroke-width = "1" />
	<path d = "M147 387 L150 378 L142 374 " stroke = "#000000" stroke-width = "1" fill = "none" />	<path d = "M200 390 L200 352 L162 352 L162 390 L200 390 Z" stroke = "#000000" stroke-width = "1" fill = "none" />  <path d="M174.5763825959234 364.6379528438646           A9.391435011269722 9.391435011269722 0 0 1 187.85787735900652 364.63795284386697" fill = "none" stroke = "#000000" stroke-width = "1" />
  <path d="M174.57638259592093 377.9194476069477           A9.391435011269722 9.391435011269722 0 0 1 174.5763825959234 364.6379528438646" fill = "none" stroke = "#000000" stroke-width = "1" />
  <path d="M187.85787735900408 377.91944760695026           A9.391435011269722 9.391435011269722 0 0 1 174.57638259592093 377.9194476069477" fill = "none" stroke = "#000000" stroke-width = "1" />
	<path d = "M184 387 L188 378 L179 374 " stroke = "#000000" stroke-width = "1" fill = "none" />	<path d = "M238 390 L238 352 L200 352 L200 390 L238 390 Z" stroke = "#000000" stroke-width = "1" fill = "none" />    <line x1="209" y1="371" x2="228" y2="371" style="stroke:#000000;stroke-width:1" />
    <line x1="228" y1="371" x2="225" y2="375" style="stroke:#000000;stroke-width:1" />
    <line x1="228" y1="371" x2="225" y2="368" style="stroke:#000000;stroke-width:1" />
	<path d = "M275 390 L275 352 L238 352 L238 390 L275 390 Z" stroke = "#000000" stroke-width = "1" fill = "none" />  <path d="M249.70786268608117 364.63795284387743           A9.391435011269722 9.391435011269722 0 0 1 262.9893574491643 364.6379528438801" fill = "none" stroke = "#000000" stroke-width = "1" />
  <path d="M249.7078626860784 377.91944760696055           A9.391435011269722 9.391435011269722 0 0 1 249.70786268608117 364.63795284387743" fill = "none" stroke = "#000000" stroke-width = "1" />
  <path d="M262.98935744916156 377.9194476069634           A9.391435011269722 9.391435011269722 0 0 1 249.7078626860784 377.91944760696055" fill = "none" stroke = "#000000" stroke-width = "1" />
	<path d = "M259 387 L263 378 L254 374 " stroke = "#000000" stroke-width = "1" fill = "none" />	<path d = "M313 390 L313 352 L275 352 L275 390 L313 390 Z" stroke = "#000000" stroke-width = "1" fill = "none" />  <path d="M287.27360273115994 364.6379528438849           A9.391435011269722 9.391435011269722 0 0 1 300.55509749424317 364.6379528438878" fill = "none" stroke = "#000000" stroke-width = "1" />
  <path d="M287.2736027311571 377.919447606968           A9.391435011269722 9.391435011269722 0 0 1 287.27360273115994 364.6379528438849" fill = "none" stroke = "#000000" stroke-width = "1" />
  <path d="M300.5550974942402 377.91944760697095           A9.391435011269722 9.391435011269722 0 0 1 287.2736027311571 377.919447606968" fill = "none" stroke = "#000000" stroke-width = "1" />
	<path d = "M297 387 L301 378 L292 374 " stroke = "#000000" stroke-width = "1" fill = "none" />	<path d = "M350 390 L350 352 L313 352 L313 390 L350 390 Z" stroke = "#000000" stroke-width = "1" fill = "none" />    <line x1="322" y1="371" x2="341" y2="371" style="stroke:#000000;stroke-width:1" />
    <line x1="341" y1="371" x2="338" y2="375" style="stroke:#000000;stroke-width:1" />
    <line x1="341" y1="371" x2="338" y2="368" style="stroke:#000000;stroke-width:1" />
<circle cx="369" cy = "371" r = "9.391435011269722" stroke = "#000000" stroke-width = "1" fill = "none" />
	<path d = "M200 165 L265 127 L265 52 L200 14 L135 52 L135 127 L200 165 Z" stroke = "#000000" stroke-width = "5" fill = "none" />    <line x1="200" y1="165" x2="265" y2="52" style="stroke:#000000;stroke-width:5" />
    <line x1="265" y1="52" x2="135" y2="52" style="stroke:#000000;stroke-width:5" />
    <line x1="135" y1="52" x2="200" y2="165" style="stroke:#000000;stroke-width:5" />
    <line x1="135" y1="127" x2="200" y2="14" style="stroke:#000000;stroke-width:5" />
    <line x1="200" y1="14" x2="265" y2="127" style="stroke:#000000;stroke-width:5" />
    <line x1="265" y1="127" x2="135" y2="127" style="stroke:#000000;stroke-width:5" />
</svg>