<svg width="400" height="400" viewbox = "0 0 400 400"  xmlns="http://www.w3.org/2000/svg">
<!--<json>{
  "glyph": "0331,0332,0332,0332,0332,0331,0332,01305,01311,01201,01334,01201,01334,01201,01334,01201,01334,0331,0332,0332,0332,0332,0332,0332,0332,0332,0332,0332,0336,0331,0337,01201,01334,01350,01334,01337,01305,01201,01334,01334,01201,0331,0332,0332,0332,0332,0332,0332,0332,0332,0332,0332,0336,0331,0337,01334,01334,01201,01334,01334,01201,01334,01334,01201,0336,0330,0333,0336,0341,0337,0331,0332,0337,0330,0330,0330,0330,0330,0332,0332,0332,0332,0211,0211,0211,0332,0335,0337,0321,0362,0305,0203,0334,0203,0334,0203,0334,0203,0334,0203,0354,0334,0334,0311,0337,0201,0335,0335,0201,0335,0335,0201,0335,0335,0201,0335,0335,0201,",
  "x0": 200,
  "y0": 183.45,
  "unit": 37.56574004507888,
  "width": 400,
  "height": 400,
  "style": {
    "color0": "black",
    "fill0": "black",
    "line0": 1,
    "color1": "black",
    "fill1": "black",
    "line1": 5,
    "color2": "red",
    "fill2": "red",
    "line2": 1,
    "color3": "#FF7900",
    "fill3": "#FF7900",
    "line3": 1,
    "color4": "yellow",
    "fill4": "yellow",
    "line4": 1,
    "color5": "green",
    "fill5": "green",
    "line5": 1,
    "color6": "blue",
    "fill6": "blue",
    "line6": 1,
    "color7": "purple",
    "fill7": "purple",
    "line7": 1
  },
  "shapes": [
    "01220:0333,0200,0336,0330,0332,0336,0332,060,062,062,060,0365,0333,0333,0331,0331,0333,0337,0337,",
    "01221:0333,0200,0336,0330,0332,0336,0332,060,062,062,061,0365,0333,0333,0331,0331,0333,0337,0337,",
    "01222:0333,0200,0336,0330,0332,0336,0332,060,062,062,062,0365,0333,0333,0331,0331,0333,0337,0337,",
    "01223:0333,0200,0336,0330,0332,0336,0332,060,062,062,063,0365,0333,0333,0331,0331,0333,0337,0337,",
    "01224:0333,0200,0336,0330,0332,0336,0332,060,062,062,064,0365,0333,0333,0331,0331,0333,0337,0337,",
    "01225:0333,0200,0336,0330,0332,0336,0332,060,062,062,065,0365,0333,0333,0331,0331,0333,0337,0337,",
    "01226:0333,0200,0336,0330,0332,0336,0332,060,062,062,066,0365,0333,0333,0331,0331,0333,0337,0337,",
    "01227:0333,0200,0336,0330,0332,0336,0332,060,062,062,067,0365,0333,0333,0331,0331,0333,0337,0337,",
    "01230:0333,0200,0336,0330,0332,0336,0332,060,062,063,060,0365,0333,0333,0331,0331,0333,0337,0337,",
    "01231:0333,0200,0336,0330,0332,0336,0332,060,062,063,061,0365,0333,0333,0331,0331,0333,0337,0337,",
    "01232:0333,0200,0336,0330,0332,0336,0332,060,062,063,062,0365,0333,0333,0331,0331,0333,0337,0337,",
    "01233:0333,0200,0336,0330,0332,0336,0332,060,062,063,063,0365,0333,0333,0331,0331,0333,0337,0337,",
    "01234:0333,0200,0336,0330,0332,0336,0332,060,062,063,064,0365,0333,0333,0331,0331,0333,0337,0337,",
    "01235:0333,0200,0336,0330,0332,0336,0332,060,062,063,065,0365,0333,0333,0331,0331,0333,0337,0337,",
    "01236:0333,0200,0336,0330,0332,0336,0332,060,062,063,066,0365,0333,0333,0331,0331,0333,0337,0337,",
    "01237:0333,0200,0336,0330,0332,0336,0332,060,062,063,067,0365,0333,0333,0331,0331,0333,0337,0337,"
  ]
}</json>-->	<path d = "M50 259 L50 221 L12 221 L12 259 L50 259 Z" stroke = "#000000" stroke-width = "1" fill = "none" />    <line x1="31" y1="240" x2="31" y2="221" style="stroke:#000000;stroke-width:1" />
    <line x1="31" y1="240" x2="49" y2="234" style="stroke:#000000;stroke-width:1" />
    <line x1="31" y1="240" x2="42" y2="255" style="stroke:#000000;stroke-width:1" />
    <line x1="31" y1="240" x2="20" y2="255" style="stroke:#000000;stroke-width:1" />
    <line x1="31" y1="240" x2="13" y2="234" style="stroke:#000000;stroke-width:1" />
<circle cx="31" cy = "240" r = "18.78287002253944" stroke = "#000000" stroke-width = "1" fill = "none" />
<circle cx="36" cy = "232" r = "2.34785875281743" stroke = "#000000" stroke-width = "1" fill = "none" />
<circle cx="40" cy = "243" r = "2.34785875281743" stroke = "#000000" stroke-width = "1" fill = "none" />
<circle cx="31" cy = "249" r = "2.34785875281743" stroke = "#000000" stroke-width = "1" fill = "none" />
<circle cx="22" cy = "243" r = "2.34785875281743" stroke = "#000000" stroke-width = "1" fill = "none" />
<circle cx="25" cy = "232" r = "2.34785875281743" stroke = "#000000" stroke-width = "1" fill = "none" />
	<path d = "M87 259 L87 221 L50 221 L50 259 L87 259 Z" stroke = "#000000" stroke-width = "1" fill = "none" />	<path d = "M87 259 L69 201 L50 259 L87 259 Z" stroke = "#000000" stroke-width = "1" fill = "none" />    <line x1="87" y1="259" x2="57" y2="237" style="stroke:#000000;stroke-width:1" />
    <line x1="57" y1="237" x2="76" y2="223" style="stroke:#000000;stroke-width:1" />
    <line x1="76" y1="223" x2="64" y2="214" style="stroke:#000000;stroke-width:1" />
	<path d = "M125 259 L125 221 L87 221 L87 259 L125 259 Z" stroke = "#000000" stroke-width = "1" fill = "none" />    <line x1="97" y1="240" x2="115" y2="240" style="stroke:#000000;stroke-width:1" />
    <line x1="115" y1="240" x2="112" y2="243" style="stroke:#000000;stroke-width:1" />
    <line x1="115" y1="240" x2="112" y2="236" style="stroke:#000000;stroke-width:1" />
	<path d = "M162 259 L162 221 L125 221 L125 259 L162 259 Z" stroke = "#000000" stroke-width = "1" fill = "none" />  <path d="M137.01064255084012 233.15786268607678           A9.39143501126972 9.39143501126972 0 0 1 150.29213731392326 233.15786268607678" fill = "none" stroke = "#000000" stroke-width = "1" />
  <path d="M137.0106425508401 246.43935744915996           A9.39143501126972 9.39143501126972 0 0 1 137.01064255084012 233.15786268607678" fill = "none" stroke = "#000000" stroke-width = "1" />
  <path d="M150.29213731392326 246.43935744915993           A9.39143501126972 9.39143501126972 0 0 1 137.0106425508401 246.43935744915996" fill = "none" stroke = "#000000" stroke-width = "1" />
	<path d = "M147 255 L150 246 L142 243 " stroke = "#000000" stroke-width = "1" fill = "none" />	<path d = "M200 259 L200 221 L162 221 L162 259 L200 259 Z" stroke = "#000000" stroke-width = "1" fill = "none" />    <line x1="172" y1="240" x2="191" y2="240" style="stroke:#000000;stroke-width:1" />
    <line x1="191" y1="240" x2="187" y2="243" style="stroke:#000000;stroke-width:1" />
    <line x1="191" y1="240" x2="187" y2="236" style="stroke:#000000;stroke-width:1" />
	<path d = "M238 259 L238 221 L200 221 L200 259 L238 259 Z" stroke = "#000000" stroke-width = "1" fill = "none" />  <path d="M212.14212264099788 233.15786268607712           A9.39143501126972 9.39143501126972 0 0 1 225.42361740408106 233.1578626860772" fill = "none" stroke = "#000000" stroke-width = "1" />
  <path d="M212.14212264099783 246.4393574491603           A9.39143501126972 9.39143501126972 0 0 1 212.14212264099788 233.15786268607712" fill = "none" stroke = "#000000" stroke-width = "1" />
  <path d="M225.423617404081 246.43935744916033           A9.39143501126972 9.39143501126972 0 0 1 212.14212264099783 246.4393574491603" fill = "none" stroke = "#000000" stroke-width = "1" />
	<path d = "M222 255 L225 246 L217 243 " stroke = "#000000" stroke-width = "1" fill = "none" />	<path d = "M275 259 L275 221 L238 221 L238 259 L275 259 Z" stroke = "#000000" stroke-width = "1" fill = "none" />    <line x1="247" y1="240" x2="266" y2="240" style="stroke:#000000;stroke-width:1" />
    <line x1="266" y1="240" x2="262" y2="243" style="stroke:#000000;stroke-width:1" />
    <line x1="266" y1="240" x2="262" y2="236" style="stroke:#000000;stroke-width:1" />
	<path d = "M313 259 L313 221 L275 221 L275 259 L313 259 Z" stroke = "#000000" stroke-width = "1" fill = "none" />  <path d="M287.27360273115556 233.15786268607724           A9.39143501126972 9.39143501126972 0 0 1 300.55509749423874 233.15786268607715" fill = "none" stroke = "#000000" stroke-width = "1" />
  <path d="M287.2736027311557 246.4393574491604           A9.39143501126972 9.39143501126972 0 0 1 287.27360273115556 233.15786268607724" fill = "none" stroke = "#000000" stroke-width = "1" />
  <path d="M300.55509749423885 246.43935744916027           A9.39143501126972 9.39143501126972 0 0 1 287.2736027311557 246.4393574491604" fill = "none" stroke = "#000000" stroke-width = "1" />
	<path d = "M297 255 L301 246 L292 243 " stroke = "#000000" stroke-width = "1" fill = "none" />	<path d = "M350 259 L350 221 L313 221 L313 259 L350 259 Z" stroke = "#000000" stroke-width = "1" fill = "none" />    <line x1="322" y1="240" x2="341" y2="240" style="stroke:#000000;stroke-width:1" />
    <line x1="341" y1="240" x2="338" y2="243" style="stroke:#000000;stroke-width:1" />
    <line x1="341" y1="240" x2="338" y2="236" style="stroke:#000000;stroke-width:1" />
	<path d = "M388 259 L388 221 L350 221 L350 259 L388 259 Z" stroke = "#000000" stroke-width = "1" fill = "none" />  <path d="M362.4050828213132 233.1578626860764           A9.39143501126972 9.39143501126972 0 0 1 375.68657758439633 233.1578626860761" fill = "none" stroke = "#000000" stroke-width = "1" />
  <path d="M362.40508282131344 246.43935744915953           A9.39143501126972 9.39143501126972 0 0 1 362.4050828213132 233.1578626860764" fill = "none" stroke = "#000000" stroke-width = "1" />
  <path d="M375.68657758439656 246.4393574491594           A9.39143501126972 9.39143501126972 0 0 1 362.40508282131344 246.43935744915953" fill = "none" stroke = "#000000" stroke-width = "1" />
	<path d = "M372 255 L376 246 L367 243 " stroke = "#000000" stroke-width = "1" fill = "none" />	<path d = "M50 315 L50 277 L12 277 L12 315 L50 315 Z" stroke = "#000000" stroke-width = "1" fill = "none" />    <line x1="22" y1="296" x2="40" y2="296" style="stroke:#000000;stroke-width:1" />
    <line x1="40" y1="296" x2="37" y2="299" style="stroke:#000000;stroke-width:1" />
    <line x1="40" y1="296" x2="37" y2="293" style="stroke:#000000;stroke-width:1" />
	<path d = "M87 315 L87 277 L50 277 L50 315 L87 315 Z" stroke = "#000000" stroke-width = "1" fill = "none" />  <path d="M61.8791624606831 289.5064727537022           A9.39143501126972 9.39143501126972 0 0 1 75.16065722376622 289.50647275370164" fill = "none" stroke = "#000000" stroke-width = "1" />
  <path d="M61.8791624606836 302.78796751678533           A9.39143501126972 9.39143501126972 0 0 1 61.8791624606831 289.5064727537022" fill = "none" stroke = "#000000" stroke-width = "1" />
  <path d="M75.16065722376672 302.7879675167849           A9.39143501126972 9.39143501126972 0 0 1 61.8791624606836 302.78796751678533" fill = "none" stroke = "#000000" stroke-width = "1" />
	<path d = "M72 311 L75 303 L66 299 " stroke = "#000000" stroke-width = "1" fill = "none" />	<path d = "M125 315 L125 277 L87 277 L87 315 L125 315 Z" stroke = "#000000" stroke-width = "1" fill = "none" />	<path d = "M119 283 L106 296 L119 309 " stroke = "#000000" stroke-width = "1" fill = "none" />    <line x1="106" y1="296" x2="111" y2="296" style="stroke:#000000;stroke-width:1" />
    <line x1="115" y1="296" x2="120" y2="296" style="stroke:#000000;stroke-width:1" />
	<path d = "M162 315 L162 277 L125 277 L125 315 L162 315 Z" stroke = "#000000" stroke-width = "1" fill = "none" />  <path d="M137.01064255084074 289.50647275369914           A9.39143501126972 9.39143501126972 0 0 1 150.29213731392386 289.5064727536984" fill = "none" stroke = "#000000" stroke-width = "1" />
  <path d="M137.01064255084142 302.7879675167823           A9.39143501126972 9.39143501126972 0 0 1 137.01064255084074 289.50647275369914" fill = "none" stroke = "#000000" stroke-width = "1" />
  <path d="M150.29213731392454 302.7879675167817           A9.39143501126972 9.39143501126972 0 0 1 137.01064255084142 302.7879675167823" fill = "none" stroke = "#000000" stroke-width = "1" />
	<path d = "M147 311 L150 303 L142 299 " stroke = "#000000" stroke-width = "1" fill = "none" />	<path d = "M200 315 L200 277 L162 277 L162 315 L200 315 Z" stroke = "#000000" stroke-width = "1" fill = "none" />    <line x1="181" y1="296" x2="181" y2="287" style="stroke:#000000;stroke-width:1" />
    <line x1="181" y1="296" x2="172" y2="296" style="stroke:#000000;stroke-width:1" />
    <line x1="181" y1="296" x2="181" y2="306" style="stroke:#000000;stroke-width:1" />
    <line x1="181" y1="296" x2="191" y2="296" style="stroke:#000000;stroke-width:1" />
	<path d = "M238 315 L238 277 L200 277 L200 315 L238 315 Z" stroke = "#000000" stroke-width = "1" fill = "none" />    <line x1="219" y1="296" x2="219" y2="277" style="stroke:#000000;stroke-width:1" />
    <line x1="219" y1="296" x2="237" y2="290" style="stroke:#000000;stroke-width:1" />
    <line x1="219" y1="296" x2="230" y2="311" style="stroke:#000000;stroke-width:1" />
    <line x1="219" y1="296" x2="208" y2="311" style="stroke:#000000;stroke-width:1" />
    <line x1="219" y1="296" x2="201" y2="290" style="stroke:#000000;stroke-width:1" />
<circle cx="219" cy = "296" r = "18.78287002253944" stroke = "#000000" stroke-width = "1" fill = "none" />
<circle cx="224" cy = "289" r = "2.34785875281743" stroke = "#000000" stroke-width = "1" fill = "none" />
<circle cx="228" cy = "299" r = "2.34785875281743" stroke = "#000000" stroke-width = "1" fill = "none" />
<circle cx="219" cy = "306" r = "2.34785875281743" stroke = "#000000" stroke-width = "1" fill = "none" />
<circle cx="210" cy = "299" r = "2.34785875281743" stroke = "#000000" stroke-width = "1" fill = "none" />
<circle cx="213" cy = "289" r = "2.34785875281743" stroke = "#000000" stroke-width = "1" fill = "none" />
	<path d = "M275 315 L275 277 L238 277 L238 315 L275 315 Z" stroke = "#000000" stroke-width = "1" fill = "none" />    <line x1="247" y1="296" x2="266" y2="296" style="stroke:#000000;stroke-width:1" />
    <line x1="266" y1="296" x2="262" y2="299" style="stroke:#000000;stroke-width:1" />
    <line x1="266" y1="296" x2="262" y2="293" style="stroke:#000000;stroke-width:1" />
	<path d = "M313 315 L313 277 L275 277 L275 315 L313 315 Z" stroke = "#000000" stroke-width = "1" fill = "none" />  <path d="M287.27360273115625 289.506472753694           A9.39143501126972 9.39143501126972 0 0 1 300.55509749423936 289.50647275369374" fill = "none" stroke = "#000000" stroke-width = "1" />
  <path d="M287.2736027311565 302.78796751677714           A9.39143501126972 9.39143501126972 0 0 1 287.27360273115625 289.506472753694" fill = "none" stroke = "#000000" stroke-width = "1" />
  <path d="M300.5550974942396 302.78796751677703           A9.39143501126972 9.39143501126972 0 0 1 287.2736027311565 302.78796751677714" fill = "none" stroke = "#000000" stroke-width = "1" />
	<path d = "M297 311 L301 303 L292 299 " stroke = "#000000" stroke-width = "1" fill = "none" />	<path d = "M350 315 L350 277 L313 277 L313 315 L350 315 Z" stroke = "#000000" stroke-width = "1" fill = "none" />  <path d="M324.8393427762351 289.50647275369323           A9.39143501126972 9.39143501126972 0 0 1 338.12083753931825 289.50647275369323" fill = "none" stroke = "#000000" stroke-width = "1" />
  <path d="M324.839342776235 302.78796751677635           A9.39143501126972 9.39143501126972 0 0 1 324.8393427762351 289.50647275369323" fill = "none" stroke = "#000000" stroke-width = "1" />
  <path d="M338.12083753931813 302.7879675167765           A9.39143501126972 9.39143501126972 0 0 1 324.839342776235 302.78796751677635" fill = "none" stroke = "#000000" stroke-width = "1" />
	<path d = "M335 311 L338 303 L329 299 " stroke = "#000000" stroke-width = "1" fill = "none" />	<path d = "M388 315 L388 277 L350 277 L350 315 L388 315 Z" stroke = "#000000" stroke-width = "1" fill = "none" />    <line x1="360" y1="296" x2="378" y2="296" style="stroke:#000000;stroke-width:1" />
    <line x1="378" y1="296" x2="375" y2="299" style="stroke:#000000;stroke-width:1" />
    <line x1="378" y1="296" x2="375" y2="293" style="stroke:#000000;stroke-width:1" />
	<path d = "M50 371 L50 334 L12 334 L12 371 L50 371 Z" stroke = "#000000" stroke-width = "1" fill = "none" />  <path d="M24.31342241560402 345.8550828213085           A9.39143501126972 9.39143501126972 0 0 1 37.59491717868714 345.85508282130877" fill = "none" stroke = "#000000" stroke-width = "1" />
  <path d="M24.31342241560365 359.1365775843916           A9.39143501126972 9.39143501126972 0 0 1 24.31342241560402 345.8550828213085" fill = "none" stroke = "#000000" stroke-width = "1" />
  <path d="M37.59491717868677 359.13657758439206           A9.39143501126972 9.39143501126972 0 0 1 24.31342241560365 359.1365775843916" fill = "none" stroke = "#000000" stroke-width = "1" />
	<path d = "M34 368 L38 359 L29 356 " stroke = "#000000" stroke-width = "1" fill = "none" />	<path d = "M87 371 L87 334 L50 334 L50 371 L87 371 Z" stroke = "#000000" stroke-width = "1" fill = "none" />  <path d="M61.879162460682885 345.85508282130894           A9.39143501126972 9.39143501126972 0 0 1 75.16065722376601 345.8550828213095" fill = "none" stroke = "#000000" stroke-width = "1" />
  <path d="M61.879162460682224 359.13657758439206           A9.39143501126972 9.39143501126972 0 0 1 61.879162460682885 345.85508282130894" fill = "none" stroke = "#000000" stroke-width = "1" />
  <path d="M75.16065722376536 359.1365775843928           A9.39143501126972 9.39143501126972 0 0 1 61.879162460682224 359.13657758439206" fill = "none" stroke = "#000000" stroke-width = "1" />
	<path d = "M72 368 L75 359 L66 356 " stroke = "#000000" stroke-width = "1" fill = "none" />	<path d = "M125 371 L125 334 L87 334 L87 371 L125 371 Z" stroke = "#000000" stroke-width = "1" fill = "none" />    <line x1="97" y1="352" x2="115" y2="352" style="stroke:#000000;stroke-width:1" />
    <line x1="115" y1="352" x2="112" y2="356" style="stroke:#000000;stroke-width:1" />
    <line x1="115" y1="352" x2="112" y2="349" style="stroke:#000000;stroke-width:1" />
	<path d = "M162 371 L162 334 L125 334 L125 371 L162 371 Z" stroke = "#000000" stroke-width = "1" fill = "none" />  <path d="M137.01064255084063 345.85508282131144           A9.39143501126972 9.39143501126972 0 0 1 150.29213731392375 345.8550828213123" fill = "none" stroke = "#000000" stroke-width = "1" />
  <path d="M137.0106425508397 359.13657758439456           A9.39143501126972 9.39143501126972 0 0 1 137.01064255084063 345.85508282131144" fill = "none" stroke = "#000000" stroke-width = "1" />
  <path d="M150.2921373139228 359.1365775843956           A9.39143501126972 9.39143501126972 0 0 1 137.0106425508397 359.13657758439456" fill = "none" stroke = "#000000" stroke-width = "1" />
	<path d = "M147 368 L150 359 L142 356 " stroke = "#000000" stroke-width = "1" fill = "none" />	<path d = "M200 371 L200 334 L162 334 L162 371 L200 371 Z" stroke = "#000000" stroke-width = "1" fill = "none" />  <path d="M174.5763825959195 345.8550828213134           A9.39143501126972 9.39143501126972 0 0 1 187.85787735900266 345.8550828213145" fill = "none" stroke = "#000000" stroke-width = "1" />
  <path d="M174.5763825959183 359.1365775843965           A9.39143501126972 9.39143501126972 0 0 1 174.5763825959195 345.8550828213134" fill = "none" stroke = "#000000" stroke-width = "1" />
  <path d="M187.8578773590014 359.1365775843978           A9.39143501126972 9.39143501126972 0 0 1 174.5763825959183 359.1365775843965" fill = "none" stroke = "#000000" stroke-width = "1" />
	<path d = "M184 368 L188 359 L179 356 " stroke = "#000000" stroke-width = "1" fill = "none" />	<path d = "M238 371 L238 334 L200 334 L200 371 L238 371 Z" stroke = "#000000" stroke-width = "1" fill = "none" />    <line x1="209" y1="352" x2="228" y2="352" style="stroke:#000000;stroke-width:1" />
    <line x1="228" y1="352" x2="225" y2="356" style="stroke:#000000;stroke-width:1" />
    <line x1="228" y1="352" x2="225" y2="349" style="stroke:#000000;stroke-width:1" />
	<path d = "M275 371 L275 334 L238 334 L238 371 L275 371 Z" stroke = "#000000" stroke-width = "1" fill = "none" />  <path d="M249.7078626860772 345.8550828213191           A9.39143501126972 9.39143501126972 0 0 1 262.9893574491603 345.8550828213206" fill = "none" stroke = "#000000" stroke-width = "1" />
  <path d="M249.70786268607569 359.13657758440223           A9.39143501126972 9.39143501126972 0 0 1 249.7078626860772 345.8550828213191" fill = "none" stroke = "#000000" stroke-width = "1" />
  <path d="M262.98935744915883 359.1365775844038           A9.39143501126972 9.39143501126972 0 0 1 249.70786268607569 359.13657758440223" fill = "none" stroke = "#000000" stroke-width = "1" />
	<path d = "M259 368 L263 359 L254 356 " stroke = "#000000" stroke-width = "1" fill = "none" />	<path d = "M313 371 L313 334 L275 334 L275 371 L313 371 Z" stroke = "#000000" stroke-width = "1" fill = "none" />  <path d="M287.27360273115613 345.8550828213227           A9.39143501126972 9.39143501126972 0 0 1 300.55509749423925 345.8550828213244" fill = "none" stroke = "#000000" stroke-width = "1" />
  <path d="M287.2736027311543 359.1365775844058           A9.39143501126972 9.39143501126972 0 0 1 287.27360273115613 345.8550828213227" fill = "none" stroke = "#000000" stroke-width = "1" />
  <path d="M300.55509749423743 359.1365775844077           A9.39143501126972 9.39143501126972 0 0 1 287.2736027311543 359.1365775844058" fill = "none" stroke = "#000000" stroke-width = "1" />
	<path d = "M297 368 L301 359 L292 356 " stroke = "#000000" stroke-width = "1" fill = "none" />	<path d = "M350 371 L350 334 L313 334 L313 371 L350 371 Z" stroke = "#000000" stroke-width = "1" fill = "none" />    <line x1="322" y1="352" x2="341" y2="352" style="stroke:#000000;stroke-width:1" />
    <line x1="341" y1="352" x2="338" y2="356" style="stroke:#000000;stroke-width:1" />
    <line x1="341" y1="352" x2="338" y2="349" style="stroke:#000000;stroke-width:1" />
<circle cx="369" cy = "352" r = "9.39143501126972" stroke = "#000000" stroke-width = "1" fill = "none" />
	<path d = "M144 183 L256 183 L291 76 L200 10 L109 76 L144 183 Z" stroke = "#000000" stroke-width = "5" fill = "none" />    <line x1="144" y1="183" x2="200" y2="10" style="stroke:#000000;stroke-width:5" />
    <line x1="200" y1="10" x2="256" y2="183" style="stroke:#000000;stroke-width:5" />
    <line x1="256" y1="183" x2="109" y2="76" style="stroke:#000000;stroke-width:5" />
    <line x1="109" y1="76" x2="291" y2="76" style="stroke:#000000;stroke-width:5" />
    <line x1="291" y1="76" x2="144" y2="183" style="stroke:#000000;stroke-width:5" />
</svg>