<svg width="400" height="400" viewbox = "0 0 400 400"  xmlns="http://www.w3.org/2000/svg">
<!--<json>{
  "glyph": "0336,0333,0210,0331,0333,0214,0214,0214,0214,0214,0214,0214,0214,0214,0330,0330,0332,0332,0332,0332,0321,0233,0235,0236,0331,0236,0331,0236,0332,0332,0237,",
  "x0": 200,
  "y0": 200,
  "unit": 146.41000000000008,
  "width": 400,
  "height": 400,
  "style": {
    "color0": "black",
    "fill0": "black",
    "line0": 1,
    "color1": "black",
    "fill1": "black",
    "line1": 3,
    "color2": "black",
    "fill2": "red",
    "line2": 3,
    "color3": "black",
    "fill3": "#FF7900",
    "line3": 3,
    "color4": "black",
    "fill4": "yellow",
    "line4": 3,
    "color5": "black",
    "fill5": "green",
    "line5": 3,
    "color6": "black",
    "fill6": "blue",
    "line6": 3,
    "color7": "black",
    "fill7": "purple",
    "line7": 3
  }
}</json>-->    <line x1="20" y1="106" x2="100" y2="106" style="stroke:#000000;stroke-width:3" />
    <circle cx="60" cy = "106" r = "9.900969560426708" stroke = "#000000" stroke-width = "3" fill = "#000000" />
    <line x1="20" y1="185" x2="40" y2="185" style="stroke:#000000;stroke-width:3" />
	<path d = "M80 205 L80 165 L40 165 L40 205 L80 205 Z" stroke = "#000000" stroke-width = "3" fill = "none" />    <text x="50" y = "195" fill = "#000000" font-size = "19.801939120853415px" font-family = "Arial">S</text>
    <line x1="80" y1="185" x2="100" y2="185" style="stroke:#000000;stroke-width:3" />
    <line x1="60" y1="165" x2="60" y2="145" style="stroke:#000000;stroke-width:3" />
    <line x1="60" y1="145" x2="60" y2="125" style="stroke:#000000;stroke-width:3" />
    <line x1="60" y1="125" x2="60" y2="106" style="stroke:#000000;stroke-width:3" />
    <line x1="100" y1="106" x2="179" y2="106" style="stroke:#000000;stroke-width:3" />
    <line x1="100" y1="185" x2="179" y2="185" style="stroke:#000000;stroke-width:3" />
    <line x1="100" y1="264" x2="179" y2="264" style="stroke:#000000;stroke-width:3" />
    <line x1="139" y1="264" x2="153" y2="250" style="stroke:#000000;stroke-width:3" />
    <line x1="139" y1="264" x2="153" y2="278" style="stroke:#000000;stroke-width:3" />
    <line x1="139" y1="264" x2="125" y2="278" style="stroke:#000000;stroke-width:3" />
    <line x1="139" y1="264" x2="125" y2="250" style="stroke:#000000;stroke-width:3" />
    <line x1="139" y1="264" x2="139" y2="185" style="stroke:#000000;stroke-width:3" />
    <line x1="139" y1="185" x2="153" y2="171" style="stroke:#000000;stroke-width:3" />
    <line x1="139" y1="185" x2="153" y2="199" style="stroke:#000000;stroke-width:3" />
    <line x1="139" y1="185" x2="125" y2="199" style="stroke:#000000;stroke-width:3" />
    <line x1="139" y1="185" x2="125" y2="171" style="stroke:#000000;stroke-width:3" />
    <line x1="139" y1="185" x2="139" y2="106" style="stroke:#000000;stroke-width:3" />
    <circle cx="139" cy = "106" r = "9.900969560426708" stroke = "#000000" stroke-width = "3" fill = "#000000" />
    <line x1="179" y1="106" x2="258" y2="106" style="stroke:#000000;stroke-width:3" />
	<path d = "M258 136 L258 75 L318 75 L349 75 L349 106 L349 136 L318 136 L288 136 L258 136 Z" stroke = "#000000" stroke-width = "3" fill = "none" />  <path d="M263.33072103462865 112.71016211935594           A46.22502371481543 46.22502371481543 0 0 1 343.3948106897652 112.7101621193559" fill = "none" stroke = "#000000" stroke-width = "3" />
    <line x1="303" y1="136" x2="334" y2="83" style="stroke:#000000;stroke-width:3" />
    <line x1="334" y1="83" x2="327" y2="87" style="stroke:#000000;stroke-width:3" />
    <line x1="334" y1="83" x2="334" y2="91" style="stroke:#000000;stroke-width:3" />
	<path d = "M334 91 L334 83 L327 87 " stroke = "#000000" stroke-width = "3" fill = "none" />    <line x1="179" y1="185" x2="258" y2="185" style="stroke:#000000;stroke-width:3" />
	<path d = "M258 215 L258 155 L318 155 L349 155 L349 185 L349 215 L318 215 L288 215 L258 215 Z" stroke = "#000000" stroke-width = "3" fill = "none" />  <path d="M263.3307210346296 191.91791860277038           A46.22502371481543 46.22502371481543 0 0 1 343.39481068976613 191.91791860277016" fill = "none" stroke = "#000000" stroke-width = "3" />
    <line x1="303" y1="215" x2="334" y2="163" style="stroke:#000000;stroke-width:3" />
    <line x1="334" y1="163" x2="327" y2="166" style="stroke:#000000;stroke-width:3" />
    <line x1="334" y1="163" x2="334" y2="170" style="stroke:#000000;stroke-width:3" />
	<path d = "M334 170 L334 163 L327 166 " stroke = "#000000" stroke-width = "3" fill = "none" />    <line x1="179" y1="264" x2="258" y2="264" style="stroke:#000000;stroke-width:3" />
	<path d = "M258 294 L258 234 L318 234 L349 234 L349 264 L349 294 L318 294 L288 294 L258 294 Z" stroke = "#000000" stroke-width = "3" fill = "none" />  <path d="M263.3307210346254 271.1256750861811           A46.22502371481543 46.22502371481543 0 0 1 343.3948106897619 271.1256750861848" fill = "none" stroke = "#000000" stroke-width = "3" />
    <line x1="303" y1="294" x2="334" y2="242" style="stroke:#000000;stroke-width:3" />
    <line x1="334" y1="242" x2="327" y2="246" style="stroke:#000000;stroke-width:3" />
    <line x1="334" y1="242" x2="334" y2="249" style="stroke:#000000;stroke-width:3" />
	<path d = "M334 249 L334 242 L327 246 " stroke = "#000000" stroke-width = "3" fill = "none" />    <line x1="20" y1="264" x2="100" y2="264" style="stroke:#000000;stroke-width:3" />
</svg>