<svg width="400" height="400" viewbox = "0 0 400 400"  xmlns="http://www.w3.org/2000/svg">
<!--<json>{
  "glyph": "0325,0221,0335,0335,0221,0322,0335,0335,0221,0335,0335,0221,0335,0335,0221,0334,0334,0330,0335,0335,0330,0334,0334,0334,0221,0334,0334,0330,0333,0334,0332,0335,0332,0335,0335,0335,0335,0221,0330,0335,0335,0335,0335,0331,0334,0331,0220,0335,0220,0335,0220,0334,0334,0334,0220,",
  "x0": 200,
  "y0": 145,
  "unit": 88.57805000000006,
  "width": 400,
  "height": 400,
  "style": {
    "color0": "black",
    "fill0": "black",
    "line0": 1,
    "color1": "black",
    "fill1": "black",
    "line1": 5,
    "color2": "red",
    "fill2": "red",
    "line2": 1,
    "color3": "#FF7900",
    "fill3": "#FF7900",
    "line3": 1,
    "color4": "yellow",
    "fill4": "yellow",
    "line4": 1,
    "color5": "green",
    "fill5": "green",
    "line5": 1,
    "color6": "blue",
    "fill6": "blue",
    "line6": 1,
    "color7": "purple",
    "fill7": "purple",
    "line7": 1
  },
  "shapes": [
    "0220:0305,0311,0350,0334,0335,0330,0334,0334,0334,0336,0313,0336,0330,0210,0330,0334,0334,0334,0337,0334,0334,0335,0335,0311,0337,0362,0203,0334,0334,0334,0334,0203,0334,0203,0334,0334,0334,0334,0203,0363,0334,0334,0334,0336,0313,0336,0330,0211,0330,0334,0334,0337,0311,0337,0331,",
    "0221:0305,0311,0350,0334,0334,0335,0335,0313,0336,0330,0334,0334,0330,0340,0210,0330,0335,0335,0362,0203,0335,0335,0335,0203,0203,0335,0335,0203,0203,0335,0335,0335,0203,0203,0335,0335,0203,0363,0334,0334,0331,0211,0331,0335,0335,0331,0313,0337,",
    "0222:0221,0221,0221,0221,0221,0221,0221,0221,",
    "0223:0336,0336,0336,0333,0337,0337,0306,0335,0342,0334,0337,0304,",
    "0224:0306,0336,0336,0332,0337,0337,0342,",
    "0237:0220,0332,0222,0334,0222,0335,0332,0223,0223,0223,0223,0223,0223,0223,0223,0331,0335,0336,0306,0350,0334,0224,0224,0224,0224,0224,0224,0224,0224,0334,0337,0331,0336,0336,0336,0333,0337,0337,0337,0342,0336,0336,0336,0333,0337,0337,0337,0342,0336,0336,0336,0333,0337,0337,0337,0342,0336,0336,0336,0336,0333,0337,0337,0337,0337,0342,0336,0336,0336,0336,0335,0331,0331,0334,0337,0337,0337,0337,0342,0335,0336,0331,0336,0330,0334,0337,0337,0342,0336,0336,0336,0336,0333,0333,0337,0337,0337,0337,0342,0335,0336,0336,0331,0336,0336,0330,0334,0337,0337,0337,0337,0330,0336,0336,0336,0333,0334,0337,0350,0334,0337,0337,0342,0334,0336,0336,0331,0336,0331,0336,0330,0335,0337,0337,0337,0337,0342,0336,0336,0336,0336,0332,0337,0337,0337,0337,0342,0336,0336,0336,0332,0337,0337,0337,0342,0336,0336,0336,0336,0332,0337,0337,0337,0337,0342,0336,0336,0336,0336,0332,0332,0337,0337,0337,0337,0342,0334,0336,0336,0331,0335,0337,0337,0342,0335,0335,0335,0335,0335,0336,0336,0336,0330,0336,0330,0334,0334,0337,0337,0337,0337,0331,0335,0335,0336,0331,0334,0334,0337,0304,",
    "01220:0333,0200,0336,0330,0332,0336,0220,0313,0304,0331,0333,0331,0333,0337,0337,",
    "01221:0333,0200,0336,0330,0332,0336,0221,0313,0304,0331,0331,0333,0333,0337,0337,",
    "01222:0333,0200,0336,0330,0332,0336,0332,060,062,062,062,0365,0333,0333,0331,0331,0333,0337,0337,",
    "01223:0333,0200,0336,0330,0332,0336,0332,060,062,062,063,0365,0333,0333,0331,0331,0333,0337,0337,",
    "01224:0333,0200,0336,0330,0332,0336,0332,060,062,062,064,0365,0333,0333,0331,0331,0333,0337,0337,",
    "01225:0333,0200,0336,0330,0332,0336,0332,060,062,062,065,0365,0333,0333,0331,0331,0333,0337,0337,",
    "01226:0333,0200,0336,0330,0332,0336,0332,060,062,062,066,0365,0333,0333,0331,0331,0333,0337,0337,",
    "01227:0333,0200,0336,0330,0332,0336,0332,060,062,062,067,0365,0333,0333,0331,0331,0333,0337,0337,",
    "01230:0333,0200,0336,0330,0332,0336,0332,060,062,063,060,0365,0333,0333,0331,0331,0333,0337,0337,",
    "01231:0333,0200,0336,0330,0332,0336,0332,060,062,063,061,0365,0333,0333,0331,0331,0333,0337,0337,",
    "01232:0333,0200,0336,0330,0332,0336,0332,060,062,063,062,0365,0333,0333,0331,0331,0333,0337,0337,",
    "01233:0333,0200,0336,0330,0332,0336,0332,060,062,063,063,0365,0333,0333,0331,0331,0333,0337,0337,",
    "01234:0333,0200,0336,0330,0332,0336,0332,060,062,063,064,0365,0333,0333,0331,0331,0333,0337,0337,",
    "01235:0333,0200,0336,0330,0332,0336,0332,060,062,063,065,0365,0333,0333,0331,0331,0333,0337,0337,",
    "01236:0333,0200,0336,0330,0332,0336,0332,060,062,063,066,0365,0333,0333,0331,0331,0333,0337,0337,",
    "01237:0333,0200,0336,0330,0332,0336,0332,060,062,063,067,0365,0333,0333,0331,0331,0333,0337,0337,"
  ]
}</json>--><circle cx="158" cy = "87" r = "1" stroke = "#008000" stroke-width = "1" fill = "#008000" />
	<path d = "M121 75 L121 36 L158 48 L195 60 L195 99 L195 138 L158 126 L121 114 L121 75 Z" stroke = "#008000" stroke-width = "1" fill = "#008000" /><circle cx="242" cy = "87" r = "1" stroke = "#008000" stroke-width = "1" fill = "#008000" />
	<path d = "M242 48 L279 36 L279 75 L279 114 L242 126 L205 138 L205 99 L205 60 L242 48 Z" stroke = "#008000" stroke-width = "1" fill = "#008000" /><circle cx="268" cy = "167" r = "1" stroke = "#ff0000" stroke-width = "1" fill = "#ff0000" />
	<path d = "M305 155 L328 186 L291 198 L254 210 L231 179 L209 148 L245 136 L282 124 L305 155 Z" stroke = "#ff0000" stroke-width = "1" fill = "#ff0000" /><circle cx="200" cy = "217" r = "1" stroke = "#ff0000" stroke-width = "1" fill = "#ff0000" />
	<path d = "M223 248 L200 279 L177 248 L154 217 L177 185 L200 154 L223 185 L246 217 L223 248 Z" stroke = "#ff0000" stroke-width = "1" fill = "#ff0000" /><circle cx="132" cy = "167" r = "1" stroke = "#ff0000" stroke-width = "1" fill = "#ff0000" />
	<path d = "M109 198 L72 186 L95 155 L118 124 L155 136 L191 148 L169 179 L146 210 L109 198 Z" stroke = "#ff0000" stroke-width = "1" fill = "#ff0000" /><circle cx="106" cy = "247" r = "1" stroke = "#ff0000" stroke-width = "1" fill = "#ff0000" />
	<path d = "M143 259 L143 298 L106 286 L69 274 L69 235 L69 197 L106 209 L143 221 L143 259 Z" stroke = "#ff0000" stroke-width = "1" fill = "#ff0000" /><circle cx="294" cy = "247" r = "1" stroke = "#ff0000" stroke-width = "1" fill = "#ff0000" />
	<path d = "M294 286 L257 298 L257 259 L257 221 L294 209 L331 197 L331 235 L331 274 L294 286 Z" stroke = "#ff0000" stroke-width = "1" fill = "#ff0000" />	<path d = "M151 304 L197 367 L197 289 L151 227 L151 304 Z" stroke = "#ff0000" stroke-width = "1" fill = "#ff0000" />	<path d = "M203 289 L203 367 L249 304 L249 227 L203 289 Z" stroke = "#ff0000" stroke-width = "1" fill = "#ff0000" />	<path d = "M254 308 L209 371 L282 347 L328 284 L254 308 Z" stroke = "#ff0000" stroke-width = "1" fill = "#ff0000" />	<path d = "M118 347 L191 371 L146 308 L72 284 L118 347 Z" stroke = "#ff0000" stroke-width = "1" fill = "#ff0000" /></svg>