<svg width="500" height="600" viewbox = "0 0 500 600"  xmlns="http://www.w3.org/2000/svg">
<!--<json>{
  "glyph": "0322,0330,0330,0333,0333,0362,0203,0334,0203,0203,0203,0203,0334,0203,0334,0203,0203,0203,0203,0363,0323,0335,0362,0203,0335,0203,0203,0203,0203,0335,0203,0335,0203,0203,0203,0203,0363,0335,0330,0324,0362,0203,0335,0203,0203,0203,0203,0335,0203,0335,0203,0203,0203,0203,0363,0335,0330,0325,0362,0203,0335,0203,0203,0203,0203,0335,0203,0335,0203,0203,0203,0203,0363,0335,0330,0326,0362,0203,0335,0203,0203,0203,0203,0335,0203,0335,0203,0203,0203,0203,0363,0335,0330,0327,0362,0203,0335,0203,0203,0203,0203,0335,0203,0335,0203,0203,0203,0203,0363,0334,0331,0321,0362,0203,0203,0203,0203,0203,0203,0334,0203,0203,0203,0203,0334,0203,0203,0203,0203,0203,0203,0334,0203,0203,0203,0203,0354,0334,0330,0330,0330,0332,0332,0336,0332,0332,0330,0347,0333,0333,0333,0331,0333,0336,0330,0337,0211,0211,0347,0210,0210,0320,0336,0331,0333,0336,0331,0337,0347,0337,0330,0332,0332,0332,0330,0332,0332,0331,0333,0336,0336,0331,0332,0337,0347,0331,0331,0331,0331,0331,0331,0331,0331,0331,0337,0362,0203,0335,0203,0203,0203,0335,0203,0203,0335,0203,0203,0203,0335,0203,0363,",
  "x0": 250,
  "y0": 300,
  "unit": 96.80000000000001,
  "width": 500,
  "height": 600,
  "style": {
    "color0": "black",
    "fill0": "black",
    "line0": 1,
    "color1": "black",
    "fill1": "white",
    "line1": 5,
    "color2": "red",
    "fill2": "red",
    "line2": 1,
    "color3": "#FF7900",
    "fill3": "#FF7900",
    "line3": 1,
    "color4": "yellow",
    "fill4": "yellow",
    "line4": 1,
    "color5": "green",
    "fill5": "green",
    "line5": 1,
    "color6": "blue",
    "fill6": "blue",
    "line6": 1,
    "color7": "purple",
    "fill7": "purple",
    "line7": 1
  },
  "shapes": [
    "0220:0305,0350,0334,0362,0203,0335,0335,0203,0335,0335,0335,0203,0335,0335,0203,0363,0335,0335,0335,0335,",
    "01220:0333,0200,0336,0330,0332,0336,0326,0220,0320,0337,0313,0304,0331,0333,0337,",
    "0221:0305,0350,0350,0334,0362,0203,0335,0335,0203,0335,0335,0335,0335,0335,0335,0335,0335,0203,0335,0335,0203,0363,0335,0335,0335,0335,0335,0335,0335,0335,0335,",
    "01221:0333,0200,0336,0330,0332,0336,0326,0221,0320,0313,0304,0337,0331,0333,0337,",
    "0222:0341,0336,0333,0341,0332,0337,0333,0333,0333,",
    "01222:0333,0200,"
  ]
}</json>-->	<path d = "M444 106 L444 10 L347 10 L250 10 L153 10 L56 10 L56 106 L153 106 L250 106 L347 106 L444 106 Z" stroke = "#ff0000" stroke-width = "1" fill = "#ff0000" />	<path d = "M444 106 L444 203 L347 203 L250 203 L153 203 L56 203 L56 106 L153 106 L250 106 L347 106 L444 106 Z" stroke = "#ff7900" stroke-width = "1" fill = "#ff7900" />	<path d = "M444 203 L444 300 L347 300 L250 300 L153 300 L56 300 L56 203 L153 203 L250 203 L347 203 L444 203 Z" stroke = "#ffff00" stroke-width = "1" fill = "#ffff00" />	<path d = "M444 300 L444 397 L347 397 L250 397 L153 397 L56 397 L56 300 L153 300 L250 300 L347 300 L444 300 Z" stroke = "#008000" stroke-width = "1" fill = "#008000" />	<path d = "M444 397 L444 494 L347 494 L250 494 L153 494 L56 494 L56 397 L153 397 L250 397 L347 397 L444 397 Z" stroke = "#0000ff" stroke-width = "1" fill = "#0000ff" />	<path d = "M444 494 L444 590 L347 590 L250 590 L153 590 L56 590 L56 494 L153 494 L250 494 L347 494 L444 494 Z" stroke = "#800080" stroke-width = "1" fill = "#800080" />	<path d = "M444 590 L444 494 L444 397 L444 300 L444 203 L444 106 L444 10 L347 10 L250 10 L153 10 L56 10 L56 106 L56 203 L56 300 L56 397 L56 494 L56 590 L153 590 L250 590 L347 590 L444 590 Z" stroke = "#000000" stroke-width = "5" fill = "none" />    <circle cx="153" cy = "252" r = "48.400000000000006" stroke = "#000000" stroke-width = "5" fill = "#ffffff" />
    <circle cx="347" cy = "276" r = "63.356422527747455" stroke = "#000000" stroke-width = "5" fill = "#ffffff" />
    <circle cx="371" cy = "312" r = "24.200000000000003" stroke = "#000000" stroke-width = "1" fill = "#000000" />
    <circle cx="165" cy = "276" r = "24.200000000000003" stroke = "#000000" stroke-width = "1" fill = "#000000" />
	<path d = "M165 494 L165 445 L214 445 L262 445 L311 445 L311 494 L311 542 L262 542 L214 542 L165 542 L165 494 Z" stroke = "#000000" stroke-width = "1" fill = "#000000" /></svg>