<svg width="400" height="300" viewbox = "0 0 400 300"  xmlns="http://www.w3.org/2000/svg">
<!--<json>{
  "glyph": "0336,0336,0333,0337,0337,0332,0237,0333,0333,0237,0332,0331,0332,0336,0330,0332,0336,0330,0332,0332,0336,0331,0337,0141,0143,0164,0151,0157,0156,0365,0333,0333,0333,0333,0333,0333,0333,0333,0333,0163,0171,0155,0142,0157,0154,0365,",
  "x0": 200,
  "y0": 200.21677351387936,
  "unit": 107.1794405000001,
  "width": 400,
  "height": 300,
  "style": {
    "color0": "black",
    "fill0": "black",
    "line0": 1,
    "color1": "black",
    "fill1": "black",
    "line1": 5,
    "color2": "red",
    "fill2": "red",
    "line2": 1,
    "color3": "#FF7900",
    "fill3": "#FF7900",
    "line3": 1,
    "color4": "yellow",
    "fill4": "yellow",
    "line4": 1,
    "color5": "green",
    "fill5": "green",
    "line5": 1,
    "color6": "blue",
    "fill6": "blue",
    "line6": 1,
    "color7": "purple",
    "fill7": "purple",
    "line7": 1
  },
  "shapes": [
    "0220:0200,0306,0335,0336,0201,0334,0337,0201,0334,0334,0336,0342,0350,0335,0337,0201,0334,0336,0342,0335,0337,0331,0335,0335,0335,0331,0335,0335,0336,0331,0334,0334,0337,0304,",
    "0221:0336,0336,0336,0333,0337,0337,0337,0342,",
    "0222:0221,0221,0221,0221,0221,0221,0221,0221,",
    "0223:0336,0336,0336,0333,0337,0337,0306,0335,0342,0334,0337,0304,",
    "0224:0306,0336,0336,0332,0337,0337,0342,",
    "0237:0220,0332,0222,0334,0222,0335,0332,0223,0223,0223,0223,0223,0223,0223,0223,0331,0335,0336,0306,0350,0334,0224,0224,0224,0224,0224,0224,0224,0224,0334,0337,0331,0336,0336,0336,0333,0337,0337,0337,0342,0336,0336,0336,0333,0337,0337,0337,0342,0336,0336,0336,0333,0337,0337,0337,0342,0336,0336,0336,0336,0333,0337,0337,0337,0337,0342,0336,0336,0336,0336,0335,0331,0331,0334,0337,0337,0337,0337,0342,0335,0336,0331,0336,0330,0334,0337,0337,0342,0336,0336,0336,0336,0333,0333,0337,0337,0337,0337,0342,0335,0336,0336,0331,0336,0336,0330,0334,0337,0337,0337,0337,0330,0336,0336,0336,0333,0334,0337,0350,0334,0337,0337,0342,0334,0336,0336,0331,0336,0331,0336,0330,0335,0337,0337,0337,0337,0342,0336,0336,0336,0336,0332,0337,0337,0337,0337,0342,0336,0336,0336,0332,0337,0337,0337,0342,0336,0336,0336,0336,0332,0337,0337,0337,0337,0342,0336,0336,0336,0336,0332,0332,0337,0337,0337,0337,0342,0334,0336,0336,0331,0335,0337,0337,0342,0335,0335,0335,0335,0335,0336,0336,0336,0330,0336,0330,0334,0334,0337,0337,0337,0337,0331,0335,0335,0336,0331,0334,0334,0337,0304,",
    "01220:0333,0200,0336,0330,0332,0336,0332,060,062,062,060,0365,0333,0333,0331,0331,0333,0337,0337,",
    "01221:0333,0200,0336,0330,0332,0336,0332,060,062,062,061,0365,0333,0333,0331,0331,0333,0337,0337,",
    "01222:0333,0200,0336,0330,0332,0336,0332,060,062,062,062,0365,0333,0333,0331,0331,0333,0337,0337,",
    "01223:0333,0200,0336,0330,0332,0336,0332,060,062,062,063,0365,0333,0333,0331,0331,0333,0337,0337,",
    "01224:0333,0200,0336,0330,0332,0336,0332,060,062,062,064,0365,0333,0333,0331,0331,0333,0337,0337,",
    "01225:0333,0200,0336,0330,0332,0336,0332,060,062,062,065,0365,0333,0333,0331,0331,0333,0337,0337,",
    "01226:0333,0200,0336,0330,0332,0336,0332,060,062,062,066,0365,0333,0333,0331,0331,0333,0337,0337,",
    "01227:0333,0200,0336,0330,0332,0336,0332,060,062,062,067,0365,0333,0333,0331,0331,0333,0337,0337,",
    "01230:0333,0200,0336,0330,0332,0336,0332,060,062,063,060,0365,0333,0333,0331,0331,0333,0337,0337,",
    "01231:0333,0200,0336,0330,0332,0336,0332,060,062,063,061,0365,0333,0333,0331,0331,0333,0337,0337,",
    "01232:0333,0200,0336,0330,0332,0336,0332,060,062,063,062,0365,0333,0333,0331,0331,0333,0337,0337,",
    "01233:0333,0200,0336,0330,0332,0336,0332,060,062,063,063,0365,0333,0333,0331,0331,0333,0337,0337,",
    "01234:0333,0200,0336,0330,0332,0336,0332,060,062,063,064,0365,0333,0333,0331,0331,0333,0337,0337,",
    "01235:0333,0200,0336,0330,0332,0336,0332,060,062,063,065,0365,0333,0333,0331,0331,0333,0337,0337,",
    "01236:0333,0200,0336,0330,0332,0336,0332,060,062,063,066,0365,0333,0333,0331,0331,0333,0337,0337,",
    "01237:0333,0200,0336,0330,0332,0336,0332,060,062,063,067,0365,0333,0333,0331,0331,0333,0337,0337,"
  ]
}</json>-->	<path d = "M120 200 L120 93 L12 93 L12 200 L120 200 Z" stroke = "#000000" stroke-width = "1" fill = "none" />    <line x1="120" y1="200" x2="166" y2="173" style="stroke:#000000;stroke-width:1" />
    <line x1="166" y1="173" x2="166" y2="66" style="stroke:#000000;stroke-width:1" />
    <line x1="166" y1="66" x2="120" y2="93" style="stroke:#000000;stroke-width:1" />
    <line x1="166" y1="66" x2="59" y2="66" style="stroke:#000000;stroke-width:1" />
    <line x1="59" y1="66" x2="12" y2="93" style="stroke:#000000;stroke-width:1" />
    <line x1="26" y1="200" x2="26" y2="93" style="stroke:#000000;stroke-width:1" />
    <line x1="39" y1="200" x2="39" y2="93" style="stroke:#000000;stroke-width:1" />
    <line x1="53" y1="200" x2="53" y2="93" style="stroke:#000000;stroke-width:1" />
    <line x1="66" y1="200" x2="66" y2="93" style="stroke:#000000;stroke-width:1" />
    <line x1="79" y1="200" x2="79" y2="93" style="stroke:#000000;stroke-width:1" />
    <line x1="93" y1="200" x2="93" y2="93" style="stroke:#000000;stroke-width:1" />
    <line x1="106" y1="200" x2="106" y2="93" style="stroke:#000000;stroke-width:1" />
    <line x1="120" y1="200" x2="120" y2="93" style="stroke:#000000;stroke-width:1" />
    <line x1="120" y1="187" x2="12" y2="187" style="stroke:#000000;stroke-width:1" />
    <line x1="120" y1="173" x2="12" y2="173" style="stroke:#000000;stroke-width:1" />
    <line x1="120" y1="160" x2="12" y2="160" style="stroke:#000000;stroke-width:1" />
    <line x1="120" y1="147" x2="12" y2="147" style="stroke:#000000;stroke-width:1" />
    <line x1="120" y1="133" x2="12" y2="133" style="stroke:#000000;stroke-width:1" />
    <line x1="120" y1="120" x2="12" y2="120" style="stroke:#000000;stroke-width:1" />
    <line x1="120" y1="106" x2="12" y2="106" style="stroke:#000000;stroke-width:1" />
    <line x1="120" y1="93" x2="12" y2="93" style="stroke:#000000;stroke-width:1" />
    <line x1="26" y1="93" x2="72" y2="66" style="stroke:#000000;stroke-width:1" />
    <line x1="39" y1="93" x2="86" y2="66" style="stroke:#000000;stroke-width:1" />
    <line x1="53" y1="93" x2="99" y2="66" style="stroke:#000000;stroke-width:1" />
    <line x1="66" y1="93" x2="112" y2="66" style="stroke:#000000;stroke-width:1" />
    <line x1="79" y1="93" x2="126" y2="66" style="stroke:#000000;stroke-width:1" />
    <line x1="93" y1="93" x2="139" y2="66" style="stroke:#000000;stroke-width:1" />
    <line x1="106" y1="93" x2="153" y2="66" style="stroke:#000000;stroke-width:1" />
    <line x1="120" y1="93" x2="166" y2="66" style="stroke:#000000;stroke-width:1" />
    <line x1="120" y1="187" x2="166" y2="160" style="stroke:#000000;stroke-width:1" />
    <line x1="120" y1="173" x2="166" y2="147" style="stroke:#000000;stroke-width:1" />
    <line x1="120" y1="160" x2="166" y2="133" style="stroke:#000000;stroke-width:1" />
    <line x1="120" y1="147" x2="166" y2="120" style="stroke:#000000;stroke-width:1" />
    <line x1="120" y1="133" x2="166" y2="106" style="stroke:#000000;stroke-width:1" />
    <line x1="120" y1="120" x2="166" y2="93" style="stroke:#000000;stroke-width:1" />
    <line x1="120" y1="106" x2="166" y2="80" style="stroke:#000000;stroke-width:1" />
    <line x1="120" y1="93" x2="166" y2="66" style="stroke:#000000;stroke-width:1" />
    <line x1="131" y1="194" x2="131" y2="86" style="stroke:#000000;stroke-width:1" />
    <line x1="143" y1="187" x2="143" y2="80" style="stroke:#000000;stroke-width:1" />
    <line x1="154" y1="180" x2="154" y2="73" style="stroke:#000000;stroke-width:1" />
    <line x1="160" y1="177" x2="160" y2="70" style="stroke:#000000;stroke-width:1" />
    <line x1="149" y1="183" x2="149" y2="76" style="stroke:#000000;stroke-width:1" />
    <line x1="125" y1="197" x2="125" y2="90" style="stroke:#000000;stroke-width:1" />
    <line x1="137" y1="190" x2="137" y2="83" style="stroke:#000000;stroke-width:1" />
    <line x1="131" y1="86" x2="24" y2="86" style="stroke:#000000;stroke-width:1" />
    <line x1="160" y1="70" x2="53" y2="70" style="stroke:#000000;stroke-width:1" />
    <line x1="154" y1="73" x2="47" y2="73" style="stroke:#000000;stroke-width:1" />
    <line x1="143" y1="80" x2="36" y2="80" style="stroke:#000000;stroke-width:1" />
    <line x1="137" y1="83" x2="30" y2="83" style="stroke:#000000;stroke-width:1" />
    <line x1="125" y1="90" x2="18" y2="90" style="stroke:#000000;stroke-width:1" />
    <line x1="149" y1="76" x2="41" y2="76" style="stroke:#000000;stroke-width:1" />
	<path d = "M334 200 L334 93 L227 93 L227 200 L334 200 Z" stroke = "#000000" stroke-width = "1" fill = "none" />    <line x1="334" y1="200" x2="380" y2="173" style="stroke:#000000;stroke-width:1" />
    <line x1="380" y1="173" x2="380" y2="66" style="stroke:#000000;stroke-width:1" />
    <line x1="380" y1="66" x2="334" y2="93" style="stroke:#000000;stroke-width:1" />
    <line x1="380" y1="66" x2="273" y2="66" style="stroke:#000000;stroke-width:1" />
    <line x1="273" y1="66" x2="227" y2="93" style="stroke:#000000;stroke-width:1" />
    <line x1="240" y1="200" x2="240" y2="93" style="stroke:#000000;stroke-width:1" />
    <line x1="254" y1="200" x2="254" y2="93" style="stroke:#000000;stroke-width:1" />
    <line x1="267" y1="200" x2="267" y2="93" style="stroke:#000000;stroke-width:1" />
    <line x1="280" y1="200" x2="280" y2="93" style="stroke:#000000;stroke-width:1" />
    <line x1="294" y1="200" x2="294" y2="93" style="stroke:#000000;stroke-width:1" />
    <line x1="307" y1="200" x2="307" y2="93" style="stroke:#000000;stroke-width:1" />
    <line x1="321" y1="200" x2="321" y2="93" style="stroke:#000000;stroke-width:1" />
    <line x1="334" y1="200" x2="334" y2="93" style="stroke:#000000;stroke-width:1" />
    <line x1="334" y1="187" x2="227" y2="187" style="stroke:#000000;stroke-width:1" />
    <line x1="334" y1="173" x2="227" y2="173" style="stroke:#000000;stroke-width:1" />
    <line x1="334" y1="160" x2="227" y2="160" style="stroke:#000000;stroke-width:1" />
    <line x1="334" y1="147" x2="227" y2="147" style="stroke:#000000;stroke-width:1" />
    <line x1="334" y1="133" x2="227" y2="133" style="stroke:#000000;stroke-width:1" />
    <line x1="334" y1="120" x2="227" y2="120" style="stroke:#000000;stroke-width:1" />
    <line x1="334" y1="106" x2="227" y2="106" style="stroke:#000000;stroke-width:1" />
    <line x1="334" y1="93" x2="227" y2="93" style="stroke:#000000;stroke-width:1" />
    <line x1="240" y1="93" x2="287" y2="66" style="stroke:#000000;stroke-width:1" />
    <line x1="254" y1="93" x2="300" y2="66" style="stroke:#000000;stroke-width:1" />
    <line x1="267" y1="93" x2="313" y2="66" style="stroke:#000000;stroke-width:1" />
    <line x1="280" y1="93" x2="327" y2="66" style="stroke:#000000;stroke-width:1" />
    <line x1="294" y1="93" x2="340" y2="66" style="stroke:#000000;stroke-width:1" />
    <line x1="307" y1="93" x2="354" y2="66" style="stroke:#000000;stroke-width:1" />
    <line x1="321" y1="93" x2="367" y2="66" style="stroke:#000000;stroke-width:1" />
    <line x1="334" y1="93" x2="380" y2="66" style="stroke:#000000;stroke-width:1" />
    <line x1="334" y1="187" x2="380" y2="160" style="stroke:#000000;stroke-width:1" />
    <line x1="334" y1="173" x2="380" y2="147" style="stroke:#000000;stroke-width:1" />
    <line x1="334" y1="160" x2="380" y2="133" style="stroke:#000000;stroke-width:1" />
    <line x1="334" y1="147" x2="380" y2="120" style="stroke:#000000;stroke-width:1" />
    <line x1="334" y1="133" x2="380" y2="106" style="stroke:#000000;stroke-width:1" />
    <line x1="334" y1="120" x2="380" y2="93" style="stroke:#000000;stroke-width:1" />
    <line x1="334" y1="106" x2="380" y2="80" style="stroke:#000000;stroke-width:1" />
    <line x1="334" y1="93" x2="380" y2="66" style="stroke:#000000;stroke-width:1" />
    <line x1="346" y1="194" x2="346" y2="86" style="stroke:#000000;stroke-width:1" />
    <line x1="357" y1="187" x2="357" y2="80" style="stroke:#000000;stroke-width:1" />
    <line x1="369" y1="180" x2="369" y2="73" style="stroke:#000000;stroke-width:1" />
    <line x1="375" y1="177" x2="375" y2="70" style="stroke:#000000;stroke-width:1" />
    <line x1="363" y1="183" x2="363" y2="76" style="stroke:#000000;stroke-width:1" />
    <line x1="340" y1="197" x2="340" y2="90" style="stroke:#000000;stroke-width:1" />
    <line x1="351" y1="190" x2="351" y2="83" style="stroke:#000000;stroke-width:1" />
    <line x1="346" y1="86" x2="238" y2="86" style="stroke:#000000;stroke-width:1" />
    <line x1="375" y1="70" x2="267" y2="70" style="stroke:#000000;stroke-width:1" />
    <line x1="369" y1="73" x2="262" y2="73" style="stroke:#000000;stroke-width:1" />
    <line x1="357" y1="80" x2="250" y2="80" style="stroke:#000000;stroke-width:1" />
    <line x1="351" y1="83" x2="244" y2="83" style="stroke:#000000;stroke-width:1" />
    <line x1="340" y1="90" x2="233" y2="90" style="stroke:#000000;stroke-width:1" />
    <line x1="363" y1="76" x2="256" y2="76" style="stroke:#000000;stroke-width:1" />
    <text x="12" y = "240" fill = "#000000" font-size = "26.794860125000024px" font-family = "Arial">action</text>
    <text x="254" y = "240" fill = "#000000" font-size = "26.794860125000024px" font-family = "Arial">symbol</text>
</svg>